G75*
%MOIN*%
%OFA0B0*%
%FSLAX25Y25*%
%IPPOS*%
%LPD*%
%AMOC8*
5,1,8,0,0,1.08239X$1,22.5*
%
%ADD10C,0.09800*%
%ADD11C,0.13800*%
%ADD12C,0.04737*%
%ADD13C,0.04808*%
%ADD14R,0.10300X0.10300*%
%ADD15C,0.10300*%
%ADD16C,0.08200*%
%ADD17C,0.17800*%
%ADD18R,0.03300X0.05800*%
D10*
X0043750Y0088750D03*
X0063750Y0088750D03*
X0103750Y0088750D03*
X0123750Y0088750D03*
X0143750Y0088750D03*
X0183750Y0088750D03*
X0203750Y0088750D03*
X0223750Y0088750D03*
X0263750Y0088750D03*
X0283750Y0088750D03*
X0303750Y0088750D03*
X0343750Y0088750D03*
X0370750Y0088750D03*
X0390750Y0088750D03*
X0430750Y0088750D03*
X0450750Y0088750D03*
X0470750Y0088750D03*
X0510750Y0088750D03*
X0530750Y0088750D03*
X0550750Y0088750D03*
X0590750Y0088750D03*
X0610750Y0088750D03*
X0630750Y0088750D03*
X0670750Y0088750D03*
X0670750Y0118750D03*
X0620750Y0118750D03*
X0590750Y0118750D03*
X0540750Y0118750D03*
X0510750Y0118750D03*
X0460750Y0118750D03*
X0430750Y0118750D03*
X0380750Y0118750D03*
X0343750Y0118750D03*
X0293750Y0118750D03*
X0263750Y0118750D03*
X0213750Y0118750D03*
X0183750Y0118750D03*
X0133750Y0118750D03*
X0103750Y0118750D03*
X0053750Y0118750D03*
X0043750Y0275750D03*
X0063750Y0275750D03*
X0103750Y0275750D03*
X0123750Y0275750D03*
X0143750Y0275750D03*
X0183750Y0275750D03*
X0203750Y0275750D03*
X0223750Y0275750D03*
X0263750Y0275750D03*
X0283750Y0275750D03*
X0303750Y0275750D03*
X0343750Y0275750D03*
X0370750Y0275750D03*
X0390750Y0275750D03*
X0430750Y0275750D03*
X0450750Y0275750D03*
X0470750Y0275750D03*
X0510750Y0275750D03*
X0530750Y0275750D03*
X0550750Y0275750D03*
X0590750Y0275750D03*
X0610750Y0275750D03*
X0630750Y0275750D03*
X0670750Y0275750D03*
X0670750Y0305750D03*
X0620750Y0305750D03*
X0590750Y0305750D03*
X0540750Y0305750D03*
X0510750Y0305750D03*
X0460750Y0305750D03*
X0430750Y0305750D03*
X0380750Y0305750D03*
X0343750Y0305750D03*
X0293750Y0305750D03*
X0263750Y0305750D03*
X0213750Y0305750D03*
X0183750Y0305750D03*
X0133750Y0305750D03*
X0103750Y0305750D03*
X0053750Y0305750D03*
D11*
X0038750Y0038750D03*
X0038750Y0203750D03*
X0038750Y0225750D03*
X0038750Y0390750D03*
X0343750Y0390750D03*
X0365750Y0390750D03*
X0365750Y0225750D03*
X0343750Y0225750D03*
X0343750Y0203750D03*
X0365750Y0203750D03*
X0365750Y0038750D03*
X0343750Y0038750D03*
X0670750Y0038750D03*
X0670750Y0203750D03*
X0670750Y0225750D03*
X0670750Y0390750D03*
D12*
X0670750Y0380750D03*
X0375750Y0225750D03*
X0343750Y0193750D03*
X0375750Y0038750D03*
X0670750Y0193750D03*
X0343750Y0380750D03*
X0048750Y0225750D03*
X0048750Y0038750D03*
D13*
X0141250Y0173250D03*
X0151250Y0173250D03*
X0161250Y0173250D03*
X0161250Y0183250D03*
X0151250Y0183250D03*
X0141250Y0183250D03*
X0141250Y0360250D03*
X0151250Y0360250D03*
X0161250Y0360250D03*
X0161250Y0370250D03*
X0151250Y0370250D03*
X0141250Y0370250D03*
X0468250Y0370250D03*
X0468250Y0360250D03*
X0478250Y0360250D03*
X0488250Y0360250D03*
X0488250Y0370250D03*
X0478250Y0370250D03*
X0478250Y0183250D03*
X0488250Y0183250D03*
X0488250Y0173250D03*
X0478250Y0173250D03*
X0468250Y0173250D03*
X0468250Y0183250D03*
D14*
X0466250Y0250750D03*
X0401750Y0250750D03*
X0530750Y0250750D03*
X0595250Y0250750D03*
X0595250Y0063750D03*
X0530750Y0063750D03*
X0466250Y0063750D03*
X0401750Y0063750D03*
X0268250Y0063750D03*
X0203750Y0063750D03*
X0139250Y0063750D03*
X0074750Y0063750D03*
X0074750Y0250750D03*
X0139250Y0250750D03*
X0203750Y0250750D03*
X0268250Y0250750D03*
D15*
X0287935Y0250750D03*
X0307620Y0250750D03*
X0243120Y0250750D03*
X0223435Y0250750D03*
X0178620Y0250750D03*
X0158935Y0250750D03*
X0114120Y0250750D03*
X0094435Y0250750D03*
X0094435Y0063750D03*
X0114120Y0063750D03*
X0158935Y0063750D03*
X0178620Y0063750D03*
X0223435Y0063750D03*
X0243120Y0063750D03*
X0287935Y0063750D03*
X0307620Y0063750D03*
X0421435Y0063750D03*
X0441120Y0063750D03*
X0485935Y0063750D03*
X0505620Y0063750D03*
X0550435Y0063750D03*
X0570120Y0063750D03*
X0614935Y0063750D03*
X0634620Y0063750D03*
X0634620Y0250750D03*
X0614935Y0250750D03*
X0570120Y0250750D03*
X0550435Y0250750D03*
X0505620Y0250750D03*
X0485935Y0250750D03*
X0441120Y0250750D03*
X0421435Y0250750D03*
D16*
X0465750Y0208750D03*
X0475750Y0208750D03*
X0485750Y0208750D03*
X0495750Y0208750D03*
X0495750Y0395750D03*
X0485750Y0395750D03*
X0475750Y0395750D03*
X0465750Y0395750D03*
X0168750Y0395750D03*
X0158750Y0395750D03*
X0148750Y0395750D03*
X0138750Y0395750D03*
X0138750Y0208750D03*
X0148750Y0208750D03*
X0158750Y0208750D03*
X0168750Y0208750D03*
D17*
X0288246Y0183624D03*
X0306750Y0171813D03*
X0306750Y0195435D03*
X0306750Y0358813D03*
X0288246Y0370624D03*
X0306750Y0382435D03*
X0615246Y0370624D03*
X0633750Y0358813D03*
X0633750Y0382435D03*
X0633750Y0195435D03*
X0615246Y0183624D03*
X0633750Y0171813D03*
D18*
X0594850Y0172250D03*
X0591650Y0172250D03*
X0591650Y0359250D03*
X0594850Y0359250D03*
X0267850Y0359250D03*
X0264650Y0359250D03*
X0264650Y0172250D03*
X0267850Y0172250D03*
M02*
