G75*
%MOIN*%
%OFA0B0*%
%FSLAX25Y25*%
%IPPOS*%
%LPD*%
%AMOC8*
5,1,8,0,0,1.08239X$1,22.5*
%
%ADD10C,0.00800*%
%ADD11C,0.00100*%
%ADD12C,0.01000*%
%ADD13C,0.00000*%
D10*
X0038750Y0028750D02*
X0343750Y0028750D01*
X0343992Y0028753D01*
X0344233Y0028762D01*
X0344474Y0028776D01*
X0344715Y0028797D01*
X0344955Y0028823D01*
X0345195Y0028855D01*
X0345434Y0028893D01*
X0345671Y0028936D01*
X0345908Y0028986D01*
X0346143Y0029041D01*
X0346377Y0029101D01*
X0346609Y0029168D01*
X0346840Y0029239D01*
X0347069Y0029317D01*
X0347296Y0029400D01*
X0347521Y0029488D01*
X0347744Y0029582D01*
X0347964Y0029681D01*
X0348182Y0029786D01*
X0348397Y0029895D01*
X0348610Y0030010D01*
X0348820Y0030130D01*
X0349026Y0030255D01*
X0349230Y0030385D01*
X0349431Y0030520D01*
X0349628Y0030660D01*
X0349822Y0030804D01*
X0350012Y0030953D01*
X0350198Y0031107D01*
X0350381Y0031265D01*
X0350560Y0031427D01*
X0350735Y0031594D01*
X0350906Y0031765D01*
X0351073Y0031940D01*
X0351235Y0032119D01*
X0351393Y0032302D01*
X0351547Y0032488D01*
X0351696Y0032678D01*
X0351840Y0032872D01*
X0351980Y0033069D01*
X0352115Y0033270D01*
X0352245Y0033474D01*
X0352370Y0033680D01*
X0352490Y0033890D01*
X0352605Y0034103D01*
X0352714Y0034318D01*
X0352819Y0034536D01*
X0352918Y0034756D01*
X0353012Y0034979D01*
X0353100Y0035204D01*
X0353183Y0035431D01*
X0353261Y0035660D01*
X0353332Y0035891D01*
X0353399Y0036123D01*
X0353459Y0036357D01*
X0353514Y0036592D01*
X0353564Y0036829D01*
X0353607Y0037066D01*
X0353645Y0037305D01*
X0353677Y0037545D01*
X0353703Y0037785D01*
X0353724Y0038026D01*
X0353738Y0038267D01*
X0353747Y0038508D01*
X0353750Y0038750D01*
X0353750Y0203750D01*
X0355750Y0203750D02*
X0355750Y0038750D01*
X0355753Y0038508D01*
X0355762Y0038267D01*
X0355776Y0038026D01*
X0355797Y0037785D01*
X0355823Y0037545D01*
X0355855Y0037305D01*
X0355893Y0037066D01*
X0355936Y0036829D01*
X0355986Y0036592D01*
X0356041Y0036357D01*
X0356101Y0036123D01*
X0356168Y0035891D01*
X0356239Y0035660D01*
X0356317Y0035431D01*
X0356400Y0035204D01*
X0356488Y0034979D01*
X0356582Y0034756D01*
X0356681Y0034536D01*
X0356786Y0034318D01*
X0356895Y0034103D01*
X0357010Y0033890D01*
X0357130Y0033680D01*
X0357255Y0033474D01*
X0357385Y0033270D01*
X0357520Y0033069D01*
X0357660Y0032872D01*
X0357804Y0032678D01*
X0357953Y0032488D01*
X0358107Y0032302D01*
X0358265Y0032119D01*
X0358427Y0031940D01*
X0358594Y0031765D01*
X0358765Y0031594D01*
X0358940Y0031427D01*
X0359119Y0031265D01*
X0359302Y0031107D01*
X0359488Y0030953D01*
X0359678Y0030804D01*
X0359872Y0030660D01*
X0360069Y0030520D01*
X0360270Y0030385D01*
X0360474Y0030255D01*
X0360680Y0030130D01*
X0360890Y0030010D01*
X0361103Y0029895D01*
X0361318Y0029786D01*
X0361536Y0029681D01*
X0361756Y0029582D01*
X0361979Y0029488D01*
X0362204Y0029400D01*
X0362431Y0029317D01*
X0362660Y0029239D01*
X0362891Y0029168D01*
X0363123Y0029101D01*
X0363357Y0029041D01*
X0363592Y0028986D01*
X0363829Y0028936D01*
X0364066Y0028893D01*
X0364305Y0028855D01*
X0364545Y0028823D01*
X0364785Y0028797D01*
X0365026Y0028776D01*
X0365267Y0028762D01*
X0365508Y0028753D01*
X0365750Y0028750D01*
X0670750Y0028750D01*
X0670992Y0028753D01*
X0671233Y0028762D01*
X0671474Y0028776D01*
X0671715Y0028797D01*
X0671955Y0028823D01*
X0672195Y0028855D01*
X0672434Y0028893D01*
X0672671Y0028936D01*
X0672908Y0028986D01*
X0673143Y0029041D01*
X0673377Y0029101D01*
X0673609Y0029168D01*
X0673840Y0029239D01*
X0674069Y0029317D01*
X0674296Y0029400D01*
X0674521Y0029488D01*
X0674744Y0029582D01*
X0674964Y0029681D01*
X0675182Y0029786D01*
X0675397Y0029895D01*
X0675610Y0030010D01*
X0675820Y0030130D01*
X0676026Y0030255D01*
X0676230Y0030385D01*
X0676431Y0030520D01*
X0676628Y0030660D01*
X0676822Y0030804D01*
X0677012Y0030953D01*
X0677198Y0031107D01*
X0677381Y0031265D01*
X0677560Y0031427D01*
X0677735Y0031594D01*
X0677906Y0031765D01*
X0678073Y0031940D01*
X0678235Y0032119D01*
X0678393Y0032302D01*
X0678547Y0032488D01*
X0678696Y0032678D01*
X0678840Y0032872D01*
X0678980Y0033069D01*
X0679115Y0033270D01*
X0679245Y0033474D01*
X0679370Y0033680D01*
X0679490Y0033890D01*
X0679605Y0034103D01*
X0679714Y0034318D01*
X0679819Y0034536D01*
X0679918Y0034756D01*
X0680012Y0034979D01*
X0680100Y0035204D01*
X0680183Y0035431D01*
X0680261Y0035660D01*
X0680332Y0035891D01*
X0680399Y0036123D01*
X0680459Y0036357D01*
X0680514Y0036592D01*
X0680564Y0036829D01*
X0680607Y0037066D01*
X0680645Y0037305D01*
X0680677Y0037545D01*
X0680703Y0037785D01*
X0680724Y0038026D01*
X0680738Y0038267D01*
X0680747Y0038508D01*
X0680750Y0038750D01*
X0680750Y0203750D01*
X0680747Y0203992D01*
X0680738Y0204233D01*
X0680724Y0204474D01*
X0680703Y0204715D01*
X0680677Y0204955D01*
X0680645Y0205195D01*
X0680607Y0205434D01*
X0680564Y0205671D01*
X0680514Y0205908D01*
X0680459Y0206143D01*
X0680399Y0206377D01*
X0680332Y0206609D01*
X0680261Y0206840D01*
X0680183Y0207069D01*
X0680100Y0207296D01*
X0680012Y0207521D01*
X0679918Y0207744D01*
X0679819Y0207964D01*
X0679714Y0208182D01*
X0679605Y0208397D01*
X0679490Y0208610D01*
X0679370Y0208820D01*
X0679245Y0209026D01*
X0679115Y0209230D01*
X0678980Y0209431D01*
X0678840Y0209628D01*
X0678696Y0209822D01*
X0678547Y0210012D01*
X0678393Y0210198D01*
X0678235Y0210381D01*
X0678073Y0210560D01*
X0677906Y0210735D01*
X0677735Y0210906D01*
X0677560Y0211073D01*
X0677381Y0211235D01*
X0677198Y0211393D01*
X0677012Y0211547D01*
X0676822Y0211696D01*
X0676628Y0211840D01*
X0676431Y0211980D01*
X0676230Y0212115D01*
X0676026Y0212245D01*
X0675820Y0212370D01*
X0675610Y0212490D01*
X0675397Y0212605D01*
X0675182Y0212714D01*
X0674964Y0212819D01*
X0674744Y0212918D01*
X0674521Y0213012D01*
X0674296Y0213100D01*
X0674069Y0213183D01*
X0673840Y0213261D01*
X0673609Y0213332D01*
X0673377Y0213399D01*
X0673143Y0213459D01*
X0672908Y0213514D01*
X0672671Y0213564D01*
X0672434Y0213607D01*
X0672195Y0213645D01*
X0671955Y0213677D01*
X0671715Y0213703D01*
X0671474Y0213724D01*
X0671233Y0213738D01*
X0670992Y0213747D01*
X0670750Y0213750D01*
X0365750Y0213750D01*
X0365750Y0215750D02*
X0670750Y0215750D01*
X0670992Y0215753D01*
X0671233Y0215762D01*
X0671474Y0215776D01*
X0671715Y0215797D01*
X0671955Y0215823D01*
X0672195Y0215855D01*
X0672434Y0215893D01*
X0672671Y0215936D01*
X0672908Y0215986D01*
X0673143Y0216041D01*
X0673377Y0216101D01*
X0673609Y0216168D01*
X0673840Y0216239D01*
X0674069Y0216317D01*
X0674296Y0216400D01*
X0674521Y0216488D01*
X0674744Y0216582D01*
X0674964Y0216681D01*
X0675182Y0216786D01*
X0675397Y0216895D01*
X0675610Y0217010D01*
X0675820Y0217130D01*
X0676026Y0217255D01*
X0676230Y0217385D01*
X0676431Y0217520D01*
X0676628Y0217660D01*
X0676822Y0217804D01*
X0677012Y0217953D01*
X0677198Y0218107D01*
X0677381Y0218265D01*
X0677560Y0218427D01*
X0677735Y0218594D01*
X0677906Y0218765D01*
X0678073Y0218940D01*
X0678235Y0219119D01*
X0678393Y0219302D01*
X0678547Y0219488D01*
X0678696Y0219678D01*
X0678840Y0219872D01*
X0678980Y0220069D01*
X0679115Y0220270D01*
X0679245Y0220474D01*
X0679370Y0220680D01*
X0679490Y0220890D01*
X0679605Y0221103D01*
X0679714Y0221318D01*
X0679819Y0221536D01*
X0679918Y0221756D01*
X0680012Y0221979D01*
X0680100Y0222204D01*
X0680183Y0222431D01*
X0680261Y0222660D01*
X0680332Y0222891D01*
X0680399Y0223123D01*
X0680459Y0223357D01*
X0680514Y0223592D01*
X0680564Y0223829D01*
X0680607Y0224066D01*
X0680645Y0224305D01*
X0680677Y0224545D01*
X0680703Y0224785D01*
X0680724Y0225026D01*
X0680738Y0225267D01*
X0680747Y0225508D01*
X0680750Y0225750D01*
X0680750Y0390750D01*
X0680747Y0390992D01*
X0680738Y0391233D01*
X0680724Y0391474D01*
X0680703Y0391715D01*
X0680677Y0391955D01*
X0680645Y0392195D01*
X0680607Y0392434D01*
X0680564Y0392671D01*
X0680514Y0392908D01*
X0680459Y0393143D01*
X0680399Y0393377D01*
X0680332Y0393609D01*
X0680261Y0393840D01*
X0680183Y0394069D01*
X0680100Y0394296D01*
X0680012Y0394521D01*
X0679918Y0394744D01*
X0679819Y0394964D01*
X0679714Y0395182D01*
X0679605Y0395397D01*
X0679490Y0395610D01*
X0679370Y0395820D01*
X0679245Y0396026D01*
X0679115Y0396230D01*
X0678980Y0396431D01*
X0678840Y0396628D01*
X0678696Y0396822D01*
X0678547Y0397012D01*
X0678393Y0397198D01*
X0678235Y0397381D01*
X0678073Y0397560D01*
X0677906Y0397735D01*
X0677735Y0397906D01*
X0677560Y0398073D01*
X0677381Y0398235D01*
X0677198Y0398393D01*
X0677012Y0398547D01*
X0676822Y0398696D01*
X0676628Y0398840D01*
X0676431Y0398980D01*
X0676230Y0399115D01*
X0676026Y0399245D01*
X0675820Y0399370D01*
X0675610Y0399490D01*
X0675397Y0399605D01*
X0675182Y0399714D01*
X0674964Y0399819D01*
X0674744Y0399918D01*
X0674521Y0400012D01*
X0674296Y0400100D01*
X0674069Y0400183D01*
X0673840Y0400261D01*
X0673609Y0400332D01*
X0673377Y0400399D01*
X0673143Y0400459D01*
X0672908Y0400514D01*
X0672671Y0400564D01*
X0672434Y0400607D01*
X0672195Y0400645D01*
X0671955Y0400677D01*
X0671715Y0400703D01*
X0671474Y0400724D01*
X0671233Y0400738D01*
X0670992Y0400747D01*
X0670750Y0400750D01*
X0365750Y0400750D01*
X0365508Y0400747D01*
X0365267Y0400738D01*
X0365026Y0400724D01*
X0364785Y0400703D01*
X0364545Y0400677D01*
X0364305Y0400645D01*
X0364066Y0400607D01*
X0363829Y0400564D01*
X0363592Y0400514D01*
X0363357Y0400459D01*
X0363123Y0400399D01*
X0362891Y0400332D01*
X0362660Y0400261D01*
X0362431Y0400183D01*
X0362204Y0400100D01*
X0361979Y0400012D01*
X0361756Y0399918D01*
X0361536Y0399819D01*
X0361318Y0399714D01*
X0361103Y0399605D01*
X0360890Y0399490D01*
X0360680Y0399370D01*
X0360474Y0399245D01*
X0360270Y0399115D01*
X0360069Y0398980D01*
X0359872Y0398840D01*
X0359678Y0398696D01*
X0359488Y0398547D01*
X0359302Y0398393D01*
X0359119Y0398235D01*
X0358940Y0398073D01*
X0358765Y0397906D01*
X0358594Y0397735D01*
X0358427Y0397560D01*
X0358265Y0397381D01*
X0358107Y0397198D01*
X0357953Y0397012D01*
X0357804Y0396822D01*
X0357660Y0396628D01*
X0357520Y0396431D01*
X0357385Y0396230D01*
X0357255Y0396026D01*
X0357130Y0395820D01*
X0357010Y0395610D01*
X0356895Y0395397D01*
X0356786Y0395182D01*
X0356681Y0394964D01*
X0356582Y0394744D01*
X0356488Y0394521D01*
X0356400Y0394296D01*
X0356317Y0394069D01*
X0356239Y0393840D01*
X0356168Y0393609D01*
X0356101Y0393377D01*
X0356041Y0393143D01*
X0355986Y0392908D01*
X0355936Y0392671D01*
X0355893Y0392434D01*
X0355855Y0392195D01*
X0355823Y0391955D01*
X0355797Y0391715D01*
X0355776Y0391474D01*
X0355762Y0391233D01*
X0355753Y0390992D01*
X0355750Y0390750D01*
X0355750Y0225750D01*
X0353750Y0225750D02*
X0353750Y0390750D01*
X0353747Y0390992D01*
X0353738Y0391233D01*
X0353724Y0391474D01*
X0353703Y0391715D01*
X0353677Y0391955D01*
X0353645Y0392195D01*
X0353607Y0392434D01*
X0353564Y0392671D01*
X0353514Y0392908D01*
X0353459Y0393143D01*
X0353399Y0393377D01*
X0353332Y0393609D01*
X0353261Y0393840D01*
X0353183Y0394069D01*
X0353100Y0394296D01*
X0353012Y0394521D01*
X0352918Y0394744D01*
X0352819Y0394964D01*
X0352714Y0395182D01*
X0352605Y0395397D01*
X0352490Y0395610D01*
X0352370Y0395820D01*
X0352245Y0396026D01*
X0352115Y0396230D01*
X0351980Y0396431D01*
X0351840Y0396628D01*
X0351696Y0396822D01*
X0351547Y0397012D01*
X0351393Y0397198D01*
X0351235Y0397381D01*
X0351073Y0397560D01*
X0350906Y0397735D01*
X0350735Y0397906D01*
X0350560Y0398073D01*
X0350381Y0398235D01*
X0350198Y0398393D01*
X0350012Y0398547D01*
X0349822Y0398696D01*
X0349628Y0398840D01*
X0349431Y0398980D01*
X0349230Y0399115D01*
X0349026Y0399245D01*
X0348820Y0399370D01*
X0348610Y0399490D01*
X0348397Y0399605D01*
X0348182Y0399714D01*
X0347964Y0399819D01*
X0347744Y0399918D01*
X0347521Y0400012D01*
X0347296Y0400100D01*
X0347069Y0400183D01*
X0346840Y0400261D01*
X0346609Y0400332D01*
X0346377Y0400399D01*
X0346143Y0400459D01*
X0345908Y0400514D01*
X0345671Y0400564D01*
X0345434Y0400607D01*
X0345195Y0400645D01*
X0344955Y0400677D01*
X0344715Y0400703D01*
X0344474Y0400724D01*
X0344233Y0400738D01*
X0343992Y0400747D01*
X0343750Y0400750D01*
X0038750Y0400750D01*
X0038508Y0400747D01*
X0038267Y0400738D01*
X0038026Y0400724D01*
X0037785Y0400703D01*
X0037545Y0400677D01*
X0037305Y0400645D01*
X0037066Y0400607D01*
X0036829Y0400564D01*
X0036592Y0400514D01*
X0036357Y0400459D01*
X0036123Y0400399D01*
X0035891Y0400332D01*
X0035660Y0400261D01*
X0035431Y0400183D01*
X0035204Y0400100D01*
X0034979Y0400012D01*
X0034756Y0399918D01*
X0034536Y0399819D01*
X0034318Y0399714D01*
X0034103Y0399605D01*
X0033890Y0399490D01*
X0033680Y0399370D01*
X0033474Y0399245D01*
X0033270Y0399115D01*
X0033069Y0398980D01*
X0032872Y0398840D01*
X0032678Y0398696D01*
X0032488Y0398547D01*
X0032302Y0398393D01*
X0032119Y0398235D01*
X0031940Y0398073D01*
X0031765Y0397906D01*
X0031594Y0397735D01*
X0031427Y0397560D01*
X0031265Y0397381D01*
X0031107Y0397198D01*
X0030953Y0397012D01*
X0030804Y0396822D01*
X0030660Y0396628D01*
X0030520Y0396431D01*
X0030385Y0396230D01*
X0030255Y0396026D01*
X0030130Y0395820D01*
X0030010Y0395610D01*
X0029895Y0395397D01*
X0029786Y0395182D01*
X0029681Y0394964D01*
X0029582Y0394744D01*
X0029488Y0394521D01*
X0029400Y0394296D01*
X0029317Y0394069D01*
X0029239Y0393840D01*
X0029168Y0393609D01*
X0029101Y0393377D01*
X0029041Y0393143D01*
X0028986Y0392908D01*
X0028936Y0392671D01*
X0028893Y0392434D01*
X0028855Y0392195D01*
X0028823Y0391955D01*
X0028797Y0391715D01*
X0028776Y0391474D01*
X0028762Y0391233D01*
X0028753Y0390992D01*
X0028750Y0390750D01*
X0028750Y0225750D01*
X0028753Y0225508D01*
X0028762Y0225267D01*
X0028776Y0225026D01*
X0028797Y0224785D01*
X0028823Y0224545D01*
X0028855Y0224305D01*
X0028893Y0224066D01*
X0028936Y0223829D01*
X0028986Y0223592D01*
X0029041Y0223357D01*
X0029101Y0223123D01*
X0029168Y0222891D01*
X0029239Y0222660D01*
X0029317Y0222431D01*
X0029400Y0222204D01*
X0029488Y0221979D01*
X0029582Y0221756D01*
X0029681Y0221536D01*
X0029786Y0221318D01*
X0029895Y0221103D01*
X0030010Y0220890D01*
X0030130Y0220680D01*
X0030255Y0220474D01*
X0030385Y0220270D01*
X0030520Y0220069D01*
X0030660Y0219872D01*
X0030804Y0219678D01*
X0030953Y0219488D01*
X0031107Y0219302D01*
X0031265Y0219119D01*
X0031427Y0218940D01*
X0031594Y0218765D01*
X0031765Y0218594D01*
X0031940Y0218427D01*
X0032119Y0218265D01*
X0032302Y0218107D01*
X0032488Y0217953D01*
X0032678Y0217804D01*
X0032872Y0217660D01*
X0033069Y0217520D01*
X0033270Y0217385D01*
X0033474Y0217255D01*
X0033680Y0217130D01*
X0033890Y0217010D01*
X0034103Y0216895D01*
X0034318Y0216786D01*
X0034536Y0216681D01*
X0034756Y0216582D01*
X0034979Y0216488D01*
X0035204Y0216400D01*
X0035431Y0216317D01*
X0035660Y0216239D01*
X0035891Y0216168D01*
X0036123Y0216101D01*
X0036357Y0216041D01*
X0036592Y0215986D01*
X0036829Y0215936D01*
X0037066Y0215893D01*
X0037305Y0215855D01*
X0037545Y0215823D01*
X0037785Y0215797D01*
X0038026Y0215776D01*
X0038267Y0215762D01*
X0038508Y0215753D01*
X0038750Y0215750D01*
X0343750Y0215750D01*
X0343750Y0213750D02*
X0038750Y0213750D01*
X0038508Y0213747D01*
X0038267Y0213738D01*
X0038026Y0213724D01*
X0037785Y0213703D01*
X0037545Y0213677D01*
X0037305Y0213645D01*
X0037066Y0213607D01*
X0036829Y0213564D01*
X0036592Y0213514D01*
X0036357Y0213459D01*
X0036123Y0213399D01*
X0035891Y0213332D01*
X0035660Y0213261D01*
X0035431Y0213183D01*
X0035204Y0213100D01*
X0034979Y0213012D01*
X0034756Y0212918D01*
X0034536Y0212819D01*
X0034318Y0212714D01*
X0034103Y0212605D01*
X0033890Y0212490D01*
X0033680Y0212370D01*
X0033474Y0212245D01*
X0033270Y0212115D01*
X0033069Y0211980D01*
X0032872Y0211840D01*
X0032678Y0211696D01*
X0032488Y0211547D01*
X0032302Y0211393D01*
X0032119Y0211235D01*
X0031940Y0211073D01*
X0031765Y0210906D01*
X0031594Y0210735D01*
X0031427Y0210560D01*
X0031265Y0210381D01*
X0031107Y0210198D01*
X0030953Y0210012D01*
X0030804Y0209822D01*
X0030660Y0209628D01*
X0030520Y0209431D01*
X0030385Y0209230D01*
X0030255Y0209026D01*
X0030130Y0208820D01*
X0030010Y0208610D01*
X0029895Y0208397D01*
X0029786Y0208182D01*
X0029681Y0207964D01*
X0029582Y0207744D01*
X0029488Y0207521D01*
X0029400Y0207296D01*
X0029317Y0207069D01*
X0029239Y0206840D01*
X0029168Y0206609D01*
X0029101Y0206377D01*
X0029041Y0206143D01*
X0028986Y0205908D01*
X0028936Y0205671D01*
X0028893Y0205434D01*
X0028855Y0205195D01*
X0028823Y0204955D01*
X0028797Y0204715D01*
X0028776Y0204474D01*
X0028762Y0204233D01*
X0028753Y0203992D01*
X0028750Y0203750D01*
X0028750Y0038750D01*
X0028753Y0038508D01*
X0028762Y0038267D01*
X0028776Y0038026D01*
X0028797Y0037785D01*
X0028823Y0037545D01*
X0028855Y0037305D01*
X0028893Y0037066D01*
X0028936Y0036829D01*
X0028986Y0036592D01*
X0029041Y0036357D01*
X0029101Y0036123D01*
X0029168Y0035891D01*
X0029239Y0035660D01*
X0029317Y0035431D01*
X0029400Y0035204D01*
X0029488Y0034979D01*
X0029582Y0034756D01*
X0029681Y0034536D01*
X0029786Y0034318D01*
X0029895Y0034103D01*
X0030010Y0033890D01*
X0030130Y0033680D01*
X0030255Y0033474D01*
X0030385Y0033270D01*
X0030520Y0033069D01*
X0030660Y0032872D01*
X0030804Y0032678D01*
X0030953Y0032488D01*
X0031107Y0032302D01*
X0031265Y0032119D01*
X0031427Y0031940D01*
X0031594Y0031765D01*
X0031765Y0031594D01*
X0031940Y0031427D01*
X0032119Y0031265D01*
X0032302Y0031107D01*
X0032488Y0030953D01*
X0032678Y0030804D01*
X0032872Y0030660D01*
X0033069Y0030520D01*
X0033270Y0030385D01*
X0033474Y0030255D01*
X0033680Y0030130D01*
X0033890Y0030010D01*
X0034103Y0029895D01*
X0034318Y0029786D01*
X0034536Y0029681D01*
X0034756Y0029582D01*
X0034979Y0029488D01*
X0035204Y0029400D01*
X0035431Y0029317D01*
X0035660Y0029239D01*
X0035891Y0029168D01*
X0036123Y0029101D01*
X0036357Y0029041D01*
X0036592Y0028986D01*
X0036829Y0028936D01*
X0037066Y0028893D01*
X0037305Y0028855D01*
X0037545Y0028823D01*
X0037785Y0028797D01*
X0038026Y0028776D01*
X0038267Y0028762D01*
X0038508Y0028753D01*
X0038750Y0028750D01*
X0343750Y0213750D02*
X0343992Y0213747D01*
X0344233Y0213738D01*
X0344474Y0213724D01*
X0344715Y0213703D01*
X0344955Y0213677D01*
X0345195Y0213645D01*
X0345434Y0213607D01*
X0345671Y0213564D01*
X0345908Y0213514D01*
X0346143Y0213459D01*
X0346377Y0213399D01*
X0346609Y0213332D01*
X0346840Y0213261D01*
X0347069Y0213183D01*
X0347296Y0213100D01*
X0347521Y0213012D01*
X0347744Y0212918D01*
X0347964Y0212819D01*
X0348182Y0212714D01*
X0348397Y0212605D01*
X0348610Y0212490D01*
X0348820Y0212370D01*
X0349026Y0212245D01*
X0349230Y0212115D01*
X0349431Y0211980D01*
X0349628Y0211840D01*
X0349822Y0211696D01*
X0350012Y0211547D01*
X0350198Y0211393D01*
X0350381Y0211235D01*
X0350560Y0211073D01*
X0350735Y0210906D01*
X0350906Y0210735D01*
X0351073Y0210560D01*
X0351235Y0210381D01*
X0351393Y0210198D01*
X0351547Y0210012D01*
X0351696Y0209822D01*
X0351840Y0209628D01*
X0351980Y0209431D01*
X0352115Y0209230D01*
X0352245Y0209026D01*
X0352370Y0208820D01*
X0352490Y0208610D01*
X0352605Y0208397D01*
X0352714Y0208182D01*
X0352819Y0207964D01*
X0352918Y0207744D01*
X0353012Y0207521D01*
X0353100Y0207296D01*
X0353183Y0207069D01*
X0353261Y0206840D01*
X0353332Y0206609D01*
X0353399Y0206377D01*
X0353459Y0206143D01*
X0353514Y0205908D01*
X0353564Y0205671D01*
X0353607Y0205434D01*
X0353645Y0205195D01*
X0353677Y0204955D01*
X0353703Y0204715D01*
X0353724Y0204474D01*
X0353738Y0204233D01*
X0353747Y0203992D01*
X0353750Y0203750D01*
X0355750Y0203750D02*
X0355753Y0203992D01*
X0355762Y0204233D01*
X0355776Y0204474D01*
X0355797Y0204715D01*
X0355823Y0204955D01*
X0355855Y0205195D01*
X0355893Y0205434D01*
X0355936Y0205671D01*
X0355986Y0205908D01*
X0356041Y0206143D01*
X0356101Y0206377D01*
X0356168Y0206609D01*
X0356239Y0206840D01*
X0356317Y0207069D01*
X0356400Y0207296D01*
X0356488Y0207521D01*
X0356582Y0207744D01*
X0356681Y0207964D01*
X0356786Y0208182D01*
X0356895Y0208397D01*
X0357010Y0208610D01*
X0357130Y0208820D01*
X0357255Y0209026D01*
X0357385Y0209230D01*
X0357520Y0209431D01*
X0357660Y0209628D01*
X0357804Y0209822D01*
X0357953Y0210012D01*
X0358107Y0210198D01*
X0358265Y0210381D01*
X0358427Y0210560D01*
X0358594Y0210735D01*
X0358765Y0210906D01*
X0358940Y0211073D01*
X0359119Y0211235D01*
X0359302Y0211393D01*
X0359488Y0211547D01*
X0359678Y0211696D01*
X0359872Y0211840D01*
X0360069Y0211980D01*
X0360270Y0212115D01*
X0360474Y0212245D01*
X0360680Y0212370D01*
X0360890Y0212490D01*
X0361103Y0212605D01*
X0361318Y0212714D01*
X0361536Y0212819D01*
X0361756Y0212918D01*
X0361979Y0213012D01*
X0362204Y0213100D01*
X0362431Y0213183D01*
X0362660Y0213261D01*
X0362891Y0213332D01*
X0363123Y0213399D01*
X0363357Y0213459D01*
X0363592Y0213514D01*
X0363829Y0213564D01*
X0364066Y0213607D01*
X0364305Y0213645D01*
X0364545Y0213677D01*
X0364785Y0213703D01*
X0365026Y0213724D01*
X0365267Y0213738D01*
X0365508Y0213747D01*
X0365750Y0213750D01*
X0365750Y0215750D02*
X0365508Y0215753D01*
X0365267Y0215762D01*
X0365026Y0215776D01*
X0364785Y0215797D01*
X0364545Y0215823D01*
X0364305Y0215855D01*
X0364066Y0215893D01*
X0363829Y0215936D01*
X0363592Y0215986D01*
X0363357Y0216041D01*
X0363123Y0216101D01*
X0362891Y0216168D01*
X0362660Y0216239D01*
X0362431Y0216317D01*
X0362204Y0216400D01*
X0361979Y0216488D01*
X0361756Y0216582D01*
X0361536Y0216681D01*
X0361318Y0216786D01*
X0361103Y0216895D01*
X0360890Y0217010D01*
X0360680Y0217130D01*
X0360474Y0217255D01*
X0360270Y0217385D01*
X0360069Y0217520D01*
X0359872Y0217660D01*
X0359678Y0217804D01*
X0359488Y0217953D01*
X0359302Y0218107D01*
X0359119Y0218265D01*
X0358940Y0218427D01*
X0358765Y0218594D01*
X0358594Y0218765D01*
X0358427Y0218940D01*
X0358265Y0219119D01*
X0358107Y0219302D01*
X0357953Y0219488D01*
X0357804Y0219678D01*
X0357660Y0219872D01*
X0357520Y0220069D01*
X0357385Y0220270D01*
X0357255Y0220474D01*
X0357130Y0220680D01*
X0357010Y0220890D01*
X0356895Y0221103D01*
X0356786Y0221318D01*
X0356681Y0221536D01*
X0356582Y0221756D01*
X0356488Y0221979D01*
X0356400Y0222204D01*
X0356317Y0222431D01*
X0356239Y0222660D01*
X0356168Y0222891D01*
X0356101Y0223123D01*
X0356041Y0223357D01*
X0355986Y0223592D01*
X0355936Y0223829D01*
X0355893Y0224066D01*
X0355855Y0224305D01*
X0355823Y0224545D01*
X0355797Y0224785D01*
X0355776Y0225026D01*
X0355762Y0225267D01*
X0355753Y0225508D01*
X0355750Y0225750D01*
X0353750Y0225750D02*
X0353747Y0225508D01*
X0353738Y0225267D01*
X0353724Y0225026D01*
X0353703Y0224785D01*
X0353677Y0224545D01*
X0353645Y0224305D01*
X0353607Y0224066D01*
X0353564Y0223829D01*
X0353514Y0223592D01*
X0353459Y0223357D01*
X0353399Y0223123D01*
X0353332Y0222891D01*
X0353261Y0222660D01*
X0353183Y0222431D01*
X0353100Y0222204D01*
X0353012Y0221979D01*
X0352918Y0221756D01*
X0352819Y0221536D01*
X0352714Y0221318D01*
X0352605Y0221103D01*
X0352490Y0220890D01*
X0352370Y0220680D01*
X0352245Y0220474D01*
X0352115Y0220270D01*
X0351980Y0220069D01*
X0351840Y0219872D01*
X0351696Y0219678D01*
X0351547Y0219488D01*
X0351393Y0219302D01*
X0351235Y0219119D01*
X0351073Y0218940D01*
X0350906Y0218765D01*
X0350735Y0218594D01*
X0350560Y0218427D01*
X0350381Y0218265D01*
X0350198Y0218107D01*
X0350012Y0217953D01*
X0349822Y0217804D01*
X0349628Y0217660D01*
X0349431Y0217520D01*
X0349230Y0217385D01*
X0349026Y0217255D01*
X0348820Y0217130D01*
X0348610Y0217010D01*
X0348397Y0216895D01*
X0348182Y0216786D01*
X0347964Y0216681D01*
X0347744Y0216582D01*
X0347521Y0216488D01*
X0347296Y0216400D01*
X0347069Y0216317D01*
X0346840Y0216239D01*
X0346609Y0216168D01*
X0346377Y0216101D01*
X0346143Y0216041D01*
X0345908Y0215986D01*
X0345671Y0215936D01*
X0345434Y0215893D01*
X0345195Y0215855D01*
X0344955Y0215823D01*
X0344715Y0215797D01*
X0344474Y0215776D01*
X0344233Y0215762D01*
X0343992Y0215753D01*
X0343750Y0215750D01*
D11*
X0301700Y0293800D02*
X0300300Y0293800D01*
X0300300Y0294189D01*
X0300302Y0294227D01*
X0300307Y0294265D01*
X0300317Y0294302D01*
X0300330Y0294338D01*
X0300346Y0294372D01*
X0300366Y0294405D01*
X0300388Y0294436D01*
X0300414Y0294464D01*
X0300442Y0294490D01*
X0300473Y0294512D01*
X0300506Y0294532D01*
X0300540Y0294548D01*
X0300576Y0294561D01*
X0300613Y0294571D01*
X0300651Y0294576D01*
X0300689Y0294578D01*
X0300727Y0294576D01*
X0300765Y0294571D01*
X0300802Y0294561D01*
X0300838Y0294548D01*
X0300872Y0294532D01*
X0300905Y0294512D01*
X0300936Y0294490D01*
X0300964Y0294464D01*
X0300990Y0294436D01*
X0301012Y0294405D01*
X0301032Y0294372D01*
X0301048Y0294338D01*
X0301061Y0294302D01*
X0301071Y0294265D01*
X0301076Y0294227D01*
X0301078Y0294189D01*
X0301078Y0293800D01*
X0301078Y0294267D02*
X0301700Y0294578D01*
X0301389Y0295130D02*
X0301078Y0295130D01*
X0301044Y0295132D01*
X0301011Y0295137D01*
X0300979Y0295146D01*
X0300947Y0295159D01*
X0300918Y0295175D01*
X0300890Y0295193D01*
X0300864Y0295215D01*
X0300841Y0295240D01*
X0300821Y0295266D01*
X0300803Y0295295D01*
X0300789Y0295326D01*
X0300778Y0295358D01*
X0300771Y0295391D01*
X0300767Y0295424D01*
X0300767Y0295458D01*
X0300771Y0295491D01*
X0300778Y0295524D01*
X0300789Y0295556D01*
X0300803Y0295587D01*
X0300821Y0295616D01*
X0300841Y0295642D01*
X0300864Y0295667D01*
X0300890Y0295689D01*
X0300918Y0295707D01*
X0300947Y0295723D01*
X0300979Y0295736D01*
X0301011Y0295745D01*
X0301044Y0295750D01*
X0301078Y0295752D01*
X0301389Y0295752D01*
X0301423Y0295750D01*
X0301456Y0295745D01*
X0301488Y0295736D01*
X0301520Y0295723D01*
X0301549Y0295707D01*
X0301577Y0295689D01*
X0301603Y0295667D01*
X0301626Y0295642D01*
X0301646Y0295616D01*
X0301664Y0295587D01*
X0301678Y0295556D01*
X0301689Y0295524D01*
X0301696Y0295491D01*
X0301700Y0295458D01*
X0301700Y0295424D01*
X0301696Y0295391D01*
X0301689Y0295358D01*
X0301678Y0295326D01*
X0301664Y0295295D01*
X0301646Y0295266D01*
X0301626Y0295240D01*
X0301603Y0295215D01*
X0301577Y0295193D01*
X0301549Y0295175D01*
X0301520Y0295159D01*
X0301488Y0295146D01*
X0301456Y0295137D01*
X0301423Y0295132D01*
X0301389Y0295130D01*
X0301467Y0296345D02*
X0300767Y0296345D01*
X0300767Y0296967D02*
X0301700Y0296967D01*
X0301700Y0296578D01*
X0301698Y0296550D01*
X0301693Y0296522D01*
X0301685Y0296495D01*
X0301673Y0296470D01*
X0301659Y0296446D01*
X0301641Y0296423D01*
X0301622Y0296404D01*
X0301599Y0296386D01*
X0301575Y0296372D01*
X0301550Y0296360D01*
X0301523Y0296352D01*
X0301495Y0296347D01*
X0301467Y0296345D01*
X0301467Y0297603D02*
X0300300Y0297603D01*
X0300767Y0297448D02*
X0300767Y0297914D01*
X0301078Y0298415D02*
X0301467Y0298415D01*
X0301497Y0298417D01*
X0301527Y0298423D01*
X0301556Y0298433D01*
X0301584Y0298446D01*
X0301609Y0298463D01*
X0301632Y0298483D01*
X0301652Y0298506D01*
X0301669Y0298532D01*
X0301682Y0298559D01*
X0301692Y0298588D01*
X0301698Y0298618D01*
X0301700Y0298648D01*
X0301700Y0299037D01*
X0301233Y0299037D02*
X0301233Y0298415D01*
X0301078Y0298415D02*
X0301044Y0298417D01*
X0301011Y0298422D01*
X0300979Y0298431D01*
X0300947Y0298444D01*
X0300918Y0298460D01*
X0300890Y0298478D01*
X0300864Y0298500D01*
X0300841Y0298525D01*
X0300821Y0298551D01*
X0300803Y0298580D01*
X0300789Y0298611D01*
X0300778Y0298643D01*
X0300771Y0298676D01*
X0300767Y0298709D01*
X0300767Y0298743D01*
X0300771Y0298776D01*
X0300778Y0298809D01*
X0300789Y0298841D01*
X0300803Y0298872D01*
X0300821Y0298901D01*
X0300841Y0298927D01*
X0300864Y0298952D01*
X0300890Y0298974D01*
X0300918Y0298992D01*
X0300947Y0299008D01*
X0300979Y0299021D01*
X0301011Y0299030D01*
X0301044Y0299035D01*
X0301078Y0299037D01*
X0301233Y0299037D01*
X0301700Y0297914D02*
X0301700Y0297836D01*
X0301698Y0297808D01*
X0301693Y0297780D01*
X0301685Y0297753D01*
X0301673Y0297728D01*
X0301659Y0297704D01*
X0301641Y0297681D01*
X0301622Y0297662D01*
X0301599Y0297644D01*
X0301575Y0297630D01*
X0301550Y0297618D01*
X0301523Y0297610D01*
X0301495Y0297605D01*
X0301467Y0297603D01*
X0301311Y0300317D02*
X0300689Y0300317D01*
X0300651Y0300319D01*
X0300613Y0300324D01*
X0300576Y0300334D01*
X0300540Y0300347D01*
X0300506Y0300363D01*
X0300473Y0300383D01*
X0300442Y0300405D01*
X0300414Y0300431D01*
X0300388Y0300459D01*
X0300366Y0300490D01*
X0300346Y0300523D01*
X0300330Y0300557D01*
X0300317Y0300593D01*
X0300307Y0300630D01*
X0300302Y0300668D01*
X0300300Y0300706D01*
X0300302Y0300744D01*
X0300307Y0300782D01*
X0300317Y0300819D01*
X0300330Y0300855D01*
X0300346Y0300889D01*
X0300366Y0300922D01*
X0300388Y0300953D01*
X0300414Y0300981D01*
X0300442Y0301007D01*
X0300473Y0301029D01*
X0300506Y0301049D01*
X0300540Y0301065D01*
X0300576Y0301078D01*
X0300613Y0301088D01*
X0300651Y0301093D01*
X0300689Y0301095D01*
X0301311Y0301095D01*
X0301349Y0301093D01*
X0301387Y0301088D01*
X0301424Y0301078D01*
X0301460Y0301065D01*
X0301494Y0301049D01*
X0301527Y0301029D01*
X0301558Y0301007D01*
X0301586Y0300981D01*
X0301612Y0300953D01*
X0301634Y0300922D01*
X0301654Y0300889D01*
X0301670Y0300855D01*
X0301683Y0300819D01*
X0301693Y0300782D01*
X0301698Y0300744D01*
X0301700Y0300706D01*
X0301698Y0300668D01*
X0301693Y0300630D01*
X0301683Y0300593D01*
X0301670Y0300557D01*
X0301654Y0300523D01*
X0301634Y0300490D01*
X0301612Y0300459D01*
X0301586Y0300431D01*
X0301558Y0300405D01*
X0301527Y0300383D01*
X0301494Y0300363D01*
X0301460Y0300347D01*
X0301424Y0300334D01*
X0301387Y0300324D01*
X0301349Y0300319D01*
X0301311Y0300317D01*
X0301467Y0301700D02*
X0300767Y0301700D01*
X0300767Y0302322D02*
X0301700Y0302322D01*
X0301700Y0301933D01*
X0301698Y0301905D01*
X0301693Y0301877D01*
X0301685Y0301850D01*
X0301673Y0301825D01*
X0301659Y0301801D01*
X0301641Y0301778D01*
X0301622Y0301759D01*
X0301599Y0301741D01*
X0301575Y0301727D01*
X0301550Y0301715D01*
X0301523Y0301707D01*
X0301495Y0301702D01*
X0301467Y0301700D01*
X0301467Y0302958D02*
X0300300Y0302958D01*
X0300767Y0302802D02*
X0300767Y0303269D01*
X0301467Y0302958D02*
X0301495Y0302960D01*
X0301523Y0302965D01*
X0301550Y0302973D01*
X0301575Y0302985D01*
X0301599Y0302999D01*
X0301622Y0303017D01*
X0301641Y0303036D01*
X0301659Y0303059D01*
X0301673Y0303083D01*
X0301685Y0303108D01*
X0301693Y0303135D01*
X0301698Y0303163D01*
X0301700Y0303191D01*
X0301700Y0303269D01*
X0301700Y0116269D02*
X0301700Y0116191D01*
X0301698Y0116163D01*
X0301693Y0116135D01*
X0301685Y0116108D01*
X0301673Y0116083D01*
X0301659Y0116059D01*
X0301641Y0116036D01*
X0301622Y0116017D01*
X0301599Y0115999D01*
X0301575Y0115985D01*
X0301550Y0115973D01*
X0301523Y0115965D01*
X0301495Y0115960D01*
X0301467Y0115958D01*
X0300300Y0115958D01*
X0300767Y0115802D02*
X0300767Y0116269D01*
X0300767Y0115322D02*
X0301700Y0115322D01*
X0301700Y0114933D01*
X0301698Y0114905D01*
X0301693Y0114877D01*
X0301685Y0114850D01*
X0301673Y0114825D01*
X0301659Y0114801D01*
X0301641Y0114778D01*
X0301622Y0114759D01*
X0301599Y0114741D01*
X0301575Y0114727D01*
X0301550Y0114715D01*
X0301523Y0114707D01*
X0301495Y0114702D01*
X0301467Y0114700D01*
X0300767Y0114700D01*
X0300689Y0114095D02*
X0301311Y0114095D01*
X0301349Y0114093D01*
X0301387Y0114088D01*
X0301424Y0114078D01*
X0301460Y0114065D01*
X0301494Y0114049D01*
X0301527Y0114029D01*
X0301558Y0114007D01*
X0301586Y0113981D01*
X0301612Y0113953D01*
X0301634Y0113922D01*
X0301654Y0113889D01*
X0301670Y0113855D01*
X0301683Y0113819D01*
X0301693Y0113782D01*
X0301698Y0113744D01*
X0301700Y0113706D01*
X0301698Y0113668D01*
X0301693Y0113630D01*
X0301683Y0113593D01*
X0301670Y0113557D01*
X0301654Y0113523D01*
X0301634Y0113490D01*
X0301612Y0113459D01*
X0301586Y0113431D01*
X0301558Y0113405D01*
X0301527Y0113383D01*
X0301494Y0113363D01*
X0301460Y0113347D01*
X0301424Y0113334D01*
X0301387Y0113324D01*
X0301349Y0113319D01*
X0301311Y0113317D01*
X0300689Y0113317D01*
X0300651Y0113319D01*
X0300613Y0113324D01*
X0300576Y0113334D01*
X0300540Y0113347D01*
X0300506Y0113363D01*
X0300473Y0113383D01*
X0300442Y0113405D01*
X0300414Y0113431D01*
X0300388Y0113459D01*
X0300366Y0113490D01*
X0300346Y0113523D01*
X0300330Y0113557D01*
X0300317Y0113593D01*
X0300307Y0113630D01*
X0300302Y0113668D01*
X0300300Y0113706D01*
X0300302Y0113744D01*
X0300307Y0113782D01*
X0300317Y0113819D01*
X0300330Y0113855D01*
X0300346Y0113889D01*
X0300366Y0113922D01*
X0300388Y0113953D01*
X0300414Y0113981D01*
X0300442Y0114007D01*
X0300473Y0114029D01*
X0300506Y0114049D01*
X0300540Y0114065D01*
X0300576Y0114078D01*
X0300613Y0114088D01*
X0300651Y0114093D01*
X0300689Y0114095D01*
X0301078Y0112037D02*
X0301233Y0112037D01*
X0301233Y0111415D01*
X0301078Y0111415D02*
X0301467Y0111415D01*
X0301497Y0111417D01*
X0301527Y0111423D01*
X0301556Y0111433D01*
X0301584Y0111446D01*
X0301609Y0111463D01*
X0301632Y0111483D01*
X0301652Y0111506D01*
X0301669Y0111532D01*
X0301682Y0111559D01*
X0301692Y0111588D01*
X0301698Y0111618D01*
X0301700Y0111648D01*
X0301700Y0112037D01*
X0301078Y0112037D02*
X0301044Y0112035D01*
X0301011Y0112030D01*
X0300979Y0112021D01*
X0300947Y0112008D01*
X0300918Y0111992D01*
X0300890Y0111974D01*
X0300864Y0111952D01*
X0300841Y0111927D01*
X0300821Y0111901D01*
X0300803Y0111872D01*
X0300789Y0111841D01*
X0300778Y0111809D01*
X0300771Y0111776D01*
X0300767Y0111743D01*
X0300767Y0111709D01*
X0300771Y0111676D01*
X0300778Y0111643D01*
X0300789Y0111611D01*
X0300803Y0111580D01*
X0300821Y0111551D01*
X0300841Y0111525D01*
X0300864Y0111500D01*
X0300890Y0111478D01*
X0300918Y0111460D01*
X0300947Y0111444D01*
X0300979Y0111431D01*
X0301011Y0111422D01*
X0301044Y0111417D01*
X0301078Y0111415D01*
X0300767Y0110914D02*
X0300767Y0110448D01*
X0300767Y0109967D02*
X0301700Y0109967D01*
X0301700Y0109578D01*
X0301698Y0109550D01*
X0301693Y0109522D01*
X0301685Y0109495D01*
X0301673Y0109470D01*
X0301659Y0109446D01*
X0301641Y0109423D01*
X0301622Y0109404D01*
X0301599Y0109386D01*
X0301575Y0109372D01*
X0301550Y0109360D01*
X0301523Y0109352D01*
X0301495Y0109347D01*
X0301467Y0109345D01*
X0300767Y0109345D01*
X0301078Y0108752D02*
X0301389Y0108752D01*
X0301423Y0108750D01*
X0301456Y0108745D01*
X0301488Y0108736D01*
X0301520Y0108723D01*
X0301549Y0108707D01*
X0301577Y0108689D01*
X0301603Y0108667D01*
X0301626Y0108642D01*
X0301646Y0108616D01*
X0301664Y0108587D01*
X0301678Y0108556D01*
X0301689Y0108524D01*
X0301696Y0108491D01*
X0301700Y0108458D01*
X0301700Y0108424D01*
X0301696Y0108391D01*
X0301689Y0108358D01*
X0301678Y0108326D01*
X0301664Y0108295D01*
X0301646Y0108266D01*
X0301626Y0108240D01*
X0301603Y0108215D01*
X0301577Y0108193D01*
X0301549Y0108175D01*
X0301520Y0108159D01*
X0301488Y0108146D01*
X0301456Y0108137D01*
X0301423Y0108132D01*
X0301389Y0108130D01*
X0301078Y0108130D01*
X0301044Y0108132D01*
X0301011Y0108137D01*
X0300979Y0108146D01*
X0300947Y0108159D01*
X0300918Y0108175D01*
X0300890Y0108193D01*
X0300864Y0108215D01*
X0300841Y0108240D01*
X0300821Y0108266D01*
X0300803Y0108295D01*
X0300789Y0108326D01*
X0300778Y0108358D01*
X0300771Y0108391D01*
X0300767Y0108424D01*
X0300767Y0108458D01*
X0300771Y0108491D01*
X0300778Y0108524D01*
X0300789Y0108556D01*
X0300803Y0108587D01*
X0300821Y0108616D01*
X0300841Y0108642D01*
X0300864Y0108667D01*
X0300890Y0108689D01*
X0300918Y0108707D01*
X0300947Y0108723D01*
X0300979Y0108736D01*
X0301011Y0108745D01*
X0301044Y0108750D01*
X0301078Y0108752D01*
X0301700Y0107578D02*
X0301078Y0107267D01*
X0301078Y0107189D02*
X0301078Y0106800D01*
X0301078Y0107189D02*
X0301076Y0107227D01*
X0301071Y0107265D01*
X0301061Y0107302D01*
X0301048Y0107338D01*
X0301032Y0107372D01*
X0301012Y0107405D01*
X0300990Y0107436D01*
X0300964Y0107464D01*
X0300936Y0107490D01*
X0300905Y0107512D01*
X0300872Y0107532D01*
X0300838Y0107548D01*
X0300802Y0107561D01*
X0300765Y0107571D01*
X0300727Y0107576D01*
X0300689Y0107578D01*
X0300651Y0107576D01*
X0300613Y0107571D01*
X0300576Y0107561D01*
X0300540Y0107548D01*
X0300506Y0107532D01*
X0300473Y0107512D01*
X0300442Y0107490D01*
X0300414Y0107464D01*
X0300388Y0107436D01*
X0300366Y0107405D01*
X0300346Y0107372D01*
X0300330Y0107338D01*
X0300317Y0107302D01*
X0300307Y0107265D01*
X0300302Y0107227D01*
X0300300Y0107189D01*
X0300300Y0106800D01*
X0301700Y0106800D01*
X0301467Y0110603D02*
X0300300Y0110603D01*
X0301467Y0110603D02*
X0301495Y0110605D01*
X0301523Y0110610D01*
X0301550Y0110618D01*
X0301575Y0110630D01*
X0301599Y0110644D01*
X0301622Y0110662D01*
X0301641Y0110681D01*
X0301659Y0110704D01*
X0301673Y0110728D01*
X0301685Y0110753D01*
X0301693Y0110780D01*
X0301698Y0110808D01*
X0301700Y0110836D01*
X0301700Y0110914D01*
X0627300Y0110603D02*
X0628467Y0110603D01*
X0628495Y0110605D01*
X0628523Y0110610D01*
X0628550Y0110618D01*
X0628575Y0110630D01*
X0628599Y0110644D01*
X0628622Y0110662D01*
X0628641Y0110681D01*
X0628659Y0110704D01*
X0628673Y0110728D01*
X0628685Y0110753D01*
X0628693Y0110780D01*
X0628698Y0110808D01*
X0628700Y0110836D01*
X0628700Y0110914D01*
X0628467Y0111415D02*
X0628078Y0111415D01*
X0628233Y0111415D02*
X0628233Y0112037D01*
X0628078Y0112037D01*
X0628044Y0112035D01*
X0628011Y0112030D01*
X0627979Y0112021D01*
X0627947Y0112008D01*
X0627918Y0111992D01*
X0627890Y0111974D01*
X0627864Y0111952D01*
X0627841Y0111927D01*
X0627821Y0111901D01*
X0627803Y0111872D01*
X0627789Y0111841D01*
X0627778Y0111809D01*
X0627771Y0111776D01*
X0627767Y0111743D01*
X0627767Y0111709D01*
X0627771Y0111676D01*
X0627778Y0111643D01*
X0627789Y0111611D01*
X0627803Y0111580D01*
X0627821Y0111551D01*
X0627841Y0111525D01*
X0627864Y0111500D01*
X0627890Y0111478D01*
X0627918Y0111460D01*
X0627947Y0111444D01*
X0627979Y0111431D01*
X0628011Y0111422D01*
X0628044Y0111417D01*
X0628078Y0111415D01*
X0628467Y0111415D02*
X0628497Y0111417D01*
X0628527Y0111423D01*
X0628556Y0111433D01*
X0628584Y0111446D01*
X0628609Y0111463D01*
X0628632Y0111483D01*
X0628652Y0111506D01*
X0628669Y0111532D01*
X0628682Y0111559D01*
X0628692Y0111588D01*
X0628698Y0111618D01*
X0628700Y0111648D01*
X0628700Y0112037D01*
X0628311Y0113317D02*
X0627689Y0113317D01*
X0627651Y0113319D01*
X0627613Y0113324D01*
X0627576Y0113334D01*
X0627540Y0113347D01*
X0627506Y0113363D01*
X0627473Y0113383D01*
X0627442Y0113405D01*
X0627414Y0113431D01*
X0627388Y0113459D01*
X0627366Y0113490D01*
X0627346Y0113523D01*
X0627330Y0113557D01*
X0627317Y0113593D01*
X0627307Y0113630D01*
X0627302Y0113668D01*
X0627300Y0113706D01*
X0627302Y0113744D01*
X0627307Y0113782D01*
X0627317Y0113819D01*
X0627330Y0113855D01*
X0627346Y0113889D01*
X0627366Y0113922D01*
X0627388Y0113953D01*
X0627414Y0113981D01*
X0627442Y0114007D01*
X0627473Y0114029D01*
X0627506Y0114049D01*
X0627540Y0114065D01*
X0627576Y0114078D01*
X0627613Y0114088D01*
X0627651Y0114093D01*
X0627689Y0114095D01*
X0628311Y0114095D01*
X0628349Y0114093D01*
X0628387Y0114088D01*
X0628424Y0114078D01*
X0628460Y0114065D01*
X0628494Y0114049D01*
X0628527Y0114029D01*
X0628558Y0114007D01*
X0628586Y0113981D01*
X0628612Y0113953D01*
X0628634Y0113922D01*
X0628654Y0113889D01*
X0628670Y0113855D01*
X0628683Y0113819D01*
X0628693Y0113782D01*
X0628698Y0113744D01*
X0628700Y0113706D01*
X0628698Y0113668D01*
X0628693Y0113630D01*
X0628683Y0113593D01*
X0628670Y0113557D01*
X0628654Y0113523D01*
X0628634Y0113490D01*
X0628612Y0113459D01*
X0628586Y0113431D01*
X0628558Y0113405D01*
X0628527Y0113383D01*
X0628494Y0113363D01*
X0628460Y0113347D01*
X0628424Y0113334D01*
X0628387Y0113324D01*
X0628349Y0113319D01*
X0628311Y0113317D01*
X0628467Y0114700D02*
X0627767Y0114700D01*
X0627767Y0115322D02*
X0628700Y0115322D01*
X0628700Y0114933D01*
X0628698Y0114905D01*
X0628693Y0114877D01*
X0628685Y0114850D01*
X0628673Y0114825D01*
X0628659Y0114801D01*
X0628641Y0114778D01*
X0628622Y0114759D01*
X0628599Y0114741D01*
X0628575Y0114727D01*
X0628550Y0114715D01*
X0628523Y0114707D01*
X0628495Y0114702D01*
X0628467Y0114700D01*
X0628467Y0115958D02*
X0627300Y0115958D01*
X0627767Y0115802D02*
X0627767Y0116269D01*
X0628467Y0115958D02*
X0628495Y0115960D01*
X0628523Y0115965D01*
X0628550Y0115973D01*
X0628575Y0115985D01*
X0628599Y0115999D01*
X0628622Y0116017D01*
X0628641Y0116036D01*
X0628659Y0116059D01*
X0628673Y0116083D01*
X0628685Y0116108D01*
X0628693Y0116135D01*
X0628698Y0116163D01*
X0628700Y0116191D01*
X0628700Y0116269D01*
X0627767Y0110914D02*
X0627767Y0110448D01*
X0627767Y0109967D02*
X0628700Y0109967D01*
X0628700Y0109578D01*
X0628698Y0109550D01*
X0628693Y0109522D01*
X0628685Y0109495D01*
X0628673Y0109470D01*
X0628659Y0109446D01*
X0628641Y0109423D01*
X0628622Y0109404D01*
X0628599Y0109386D01*
X0628575Y0109372D01*
X0628550Y0109360D01*
X0628523Y0109352D01*
X0628495Y0109347D01*
X0628467Y0109345D01*
X0627767Y0109345D01*
X0628078Y0108752D02*
X0628389Y0108752D01*
X0628423Y0108750D01*
X0628456Y0108745D01*
X0628488Y0108736D01*
X0628520Y0108723D01*
X0628549Y0108707D01*
X0628577Y0108689D01*
X0628603Y0108667D01*
X0628626Y0108642D01*
X0628646Y0108616D01*
X0628664Y0108587D01*
X0628678Y0108556D01*
X0628689Y0108524D01*
X0628696Y0108491D01*
X0628700Y0108458D01*
X0628700Y0108424D01*
X0628696Y0108391D01*
X0628689Y0108358D01*
X0628678Y0108326D01*
X0628664Y0108295D01*
X0628646Y0108266D01*
X0628626Y0108240D01*
X0628603Y0108215D01*
X0628577Y0108193D01*
X0628549Y0108175D01*
X0628520Y0108159D01*
X0628488Y0108146D01*
X0628456Y0108137D01*
X0628423Y0108132D01*
X0628389Y0108130D01*
X0628078Y0108130D01*
X0628044Y0108132D01*
X0628011Y0108137D01*
X0627979Y0108146D01*
X0627947Y0108159D01*
X0627918Y0108175D01*
X0627890Y0108193D01*
X0627864Y0108215D01*
X0627841Y0108240D01*
X0627821Y0108266D01*
X0627803Y0108295D01*
X0627789Y0108326D01*
X0627778Y0108358D01*
X0627771Y0108391D01*
X0627767Y0108424D01*
X0627767Y0108458D01*
X0627771Y0108491D01*
X0627778Y0108524D01*
X0627789Y0108556D01*
X0627803Y0108587D01*
X0627821Y0108616D01*
X0627841Y0108642D01*
X0627864Y0108667D01*
X0627890Y0108689D01*
X0627918Y0108707D01*
X0627947Y0108723D01*
X0627979Y0108736D01*
X0628011Y0108745D01*
X0628044Y0108750D01*
X0628078Y0108752D01*
X0628700Y0107578D02*
X0628078Y0107267D01*
X0628078Y0107189D02*
X0628078Y0106800D01*
X0628078Y0107189D02*
X0628076Y0107227D01*
X0628071Y0107265D01*
X0628061Y0107302D01*
X0628048Y0107338D01*
X0628032Y0107372D01*
X0628012Y0107405D01*
X0627990Y0107436D01*
X0627964Y0107464D01*
X0627936Y0107490D01*
X0627905Y0107512D01*
X0627872Y0107532D01*
X0627838Y0107548D01*
X0627802Y0107561D01*
X0627765Y0107571D01*
X0627727Y0107576D01*
X0627689Y0107578D01*
X0627651Y0107576D01*
X0627613Y0107571D01*
X0627576Y0107561D01*
X0627540Y0107548D01*
X0627506Y0107532D01*
X0627473Y0107512D01*
X0627442Y0107490D01*
X0627414Y0107464D01*
X0627388Y0107436D01*
X0627366Y0107405D01*
X0627346Y0107372D01*
X0627330Y0107338D01*
X0627317Y0107302D01*
X0627307Y0107265D01*
X0627302Y0107227D01*
X0627300Y0107189D01*
X0627300Y0106800D01*
X0628700Y0106800D01*
X0628700Y0293800D02*
X0627300Y0293800D01*
X0627300Y0294189D01*
X0627302Y0294227D01*
X0627307Y0294265D01*
X0627317Y0294302D01*
X0627330Y0294338D01*
X0627346Y0294372D01*
X0627366Y0294405D01*
X0627388Y0294436D01*
X0627414Y0294464D01*
X0627442Y0294490D01*
X0627473Y0294512D01*
X0627506Y0294532D01*
X0627540Y0294548D01*
X0627576Y0294561D01*
X0627613Y0294571D01*
X0627651Y0294576D01*
X0627689Y0294578D01*
X0627727Y0294576D01*
X0627765Y0294571D01*
X0627802Y0294561D01*
X0627838Y0294548D01*
X0627872Y0294532D01*
X0627905Y0294512D01*
X0627936Y0294490D01*
X0627964Y0294464D01*
X0627990Y0294436D01*
X0628012Y0294405D01*
X0628032Y0294372D01*
X0628048Y0294338D01*
X0628061Y0294302D01*
X0628071Y0294265D01*
X0628076Y0294227D01*
X0628078Y0294189D01*
X0628078Y0293800D01*
X0628078Y0294267D02*
X0628700Y0294578D01*
X0628389Y0295130D02*
X0628078Y0295130D01*
X0628044Y0295132D01*
X0628011Y0295137D01*
X0627979Y0295146D01*
X0627947Y0295159D01*
X0627918Y0295175D01*
X0627890Y0295193D01*
X0627864Y0295215D01*
X0627841Y0295240D01*
X0627821Y0295266D01*
X0627803Y0295295D01*
X0627789Y0295326D01*
X0627778Y0295358D01*
X0627771Y0295391D01*
X0627767Y0295424D01*
X0627767Y0295458D01*
X0627771Y0295491D01*
X0627778Y0295524D01*
X0627789Y0295556D01*
X0627803Y0295587D01*
X0627821Y0295616D01*
X0627841Y0295642D01*
X0627864Y0295667D01*
X0627890Y0295689D01*
X0627918Y0295707D01*
X0627947Y0295723D01*
X0627979Y0295736D01*
X0628011Y0295745D01*
X0628044Y0295750D01*
X0628078Y0295752D01*
X0628389Y0295752D01*
X0628423Y0295750D01*
X0628456Y0295745D01*
X0628488Y0295736D01*
X0628520Y0295723D01*
X0628549Y0295707D01*
X0628577Y0295689D01*
X0628603Y0295667D01*
X0628626Y0295642D01*
X0628646Y0295616D01*
X0628664Y0295587D01*
X0628678Y0295556D01*
X0628689Y0295524D01*
X0628696Y0295491D01*
X0628700Y0295458D01*
X0628700Y0295424D01*
X0628696Y0295391D01*
X0628689Y0295358D01*
X0628678Y0295326D01*
X0628664Y0295295D01*
X0628646Y0295266D01*
X0628626Y0295240D01*
X0628603Y0295215D01*
X0628577Y0295193D01*
X0628549Y0295175D01*
X0628520Y0295159D01*
X0628488Y0295146D01*
X0628456Y0295137D01*
X0628423Y0295132D01*
X0628389Y0295130D01*
X0628467Y0296345D02*
X0627767Y0296345D01*
X0627767Y0296967D02*
X0628700Y0296967D01*
X0628700Y0296578D01*
X0628698Y0296550D01*
X0628693Y0296522D01*
X0628685Y0296495D01*
X0628673Y0296470D01*
X0628659Y0296446D01*
X0628641Y0296423D01*
X0628622Y0296404D01*
X0628599Y0296386D01*
X0628575Y0296372D01*
X0628550Y0296360D01*
X0628523Y0296352D01*
X0628495Y0296347D01*
X0628467Y0296345D01*
X0628467Y0297603D02*
X0627300Y0297603D01*
X0627767Y0297448D02*
X0627767Y0297914D01*
X0628078Y0298415D02*
X0628467Y0298415D01*
X0628497Y0298417D01*
X0628527Y0298423D01*
X0628556Y0298433D01*
X0628584Y0298446D01*
X0628609Y0298463D01*
X0628632Y0298483D01*
X0628652Y0298506D01*
X0628669Y0298532D01*
X0628682Y0298559D01*
X0628692Y0298588D01*
X0628698Y0298618D01*
X0628700Y0298648D01*
X0628700Y0299037D01*
X0628233Y0299037D02*
X0628233Y0298415D01*
X0628078Y0298415D02*
X0628044Y0298417D01*
X0628011Y0298422D01*
X0627979Y0298431D01*
X0627947Y0298444D01*
X0627918Y0298460D01*
X0627890Y0298478D01*
X0627864Y0298500D01*
X0627841Y0298525D01*
X0627821Y0298551D01*
X0627803Y0298580D01*
X0627789Y0298611D01*
X0627778Y0298643D01*
X0627771Y0298676D01*
X0627767Y0298709D01*
X0627767Y0298743D01*
X0627771Y0298776D01*
X0627778Y0298809D01*
X0627789Y0298841D01*
X0627803Y0298872D01*
X0627821Y0298901D01*
X0627841Y0298927D01*
X0627864Y0298952D01*
X0627890Y0298974D01*
X0627918Y0298992D01*
X0627947Y0299008D01*
X0627979Y0299021D01*
X0628011Y0299030D01*
X0628044Y0299035D01*
X0628078Y0299037D01*
X0628233Y0299037D01*
X0628700Y0297914D02*
X0628700Y0297836D01*
X0628698Y0297808D01*
X0628693Y0297780D01*
X0628685Y0297753D01*
X0628673Y0297728D01*
X0628659Y0297704D01*
X0628641Y0297681D01*
X0628622Y0297662D01*
X0628599Y0297644D01*
X0628575Y0297630D01*
X0628550Y0297618D01*
X0628523Y0297610D01*
X0628495Y0297605D01*
X0628467Y0297603D01*
X0628311Y0300317D02*
X0627689Y0300317D01*
X0627651Y0300319D01*
X0627613Y0300324D01*
X0627576Y0300334D01*
X0627540Y0300347D01*
X0627506Y0300363D01*
X0627473Y0300383D01*
X0627442Y0300405D01*
X0627414Y0300431D01*
X0627388Y0300459D01*
X0627366Y0300490D01*
X0627346Y0300523D01*
X0627330Y0300557D01*
X0627317Y0300593D01*
X0627307Y0300630D01*
X0627302Y0300668D01*
X0627300Y0300706D01*
X0627302Y0300744D01*
X0627307Y0300782D01*
X0627317Y0300819D01*
X0627330Y0300855D01*
X0627346Y0300889D01*
X0627366Y0300922D01*
X0627388Y0300953D01*
X0627414Y0300981D01*
X0627442Y0301007D01*
X0627473Y0301029D01*
X0627506Y0301049D01*
X0627540Y0301065D01*
X0627576Y0301078D01*
X0627613Y0301088D01*
X0627651Y0301093D01*
X0627689Y0301095D01*
X0628311Y0301095D01*
X0628349Y0301093D01*
X0628387Y0301088D01*
X0628424Y0301078D01*
X0628460Y0301065D01*
X0628494Y0301049D01*
X0628527Y0301029D01*
X0628558Y0301007D01*
X0628586Y0300981D01*
X0628612Y0300953D01*
X0628634Y0300922D01*
X0628654Y0300889D01*
X0628670Y0300855D01*
X0628683Y0300819D01*
X0628693Y0300782D01*
X0628698Y0300744D01*
X0628700Y0300706D01*
X0628698Y0300668D01*
X0628693Y0300630D01*
X0628683Y0300593D01*
X0628670Y0300557D01*
X0628654Y0300523D01*
X0628634Y0300490D01*
X0628612Y0300459D01*
X0628586Y0300431D01*
X0628558Y0300405D01*
X0628527Y0300383D01*
X0628494Y0300363D01*
X0628460Y0300347D01*
X0628424Y0300334D01*
X0628387Y0300324D01*
X0628349Y0300319D01*
X0628311Y0300317D01*
X0628467Y0301700D02*
X0627767Y0301700D01*
X0627767Y0302322D02*
X0628700Y0302322D01*
X0628700Y0301933D01*
X0628698Y0301905D01*
X0628693Y0301877D01*
X0628685Y0301850D01*
X0628673Y0301825D01*
X0628659Y0301801D01*
X0628641Y0301778D01*
X0628622Y0301759D01*
X0628599Y0301741D01*
X0628575Y0301727D01*
X0628550Y0301715D01*
X0628523Y0301707D01*
X0628495Y0301702D01*
X0628467Y0301700D01*
X0628467Y0302958D02*
X0627300Y0302958D01*
X0627767Y0302802D02*
X0627767Y0303269D01*
X0628467Y0302958D02*
X0628495Y0302960D01*
X0628523Y0302965D01*
X0628550Y0302973D01*
X0628575Y0302985D01*
X0628599Y0302999D01*
X0628622Y0303017D01*
X0628641Y0303036D01*
X0628659Y0303059D01*
X0628673Y0303083D01*
X0628685Y0303108D01*
X0628693Y0303135D01*
X0628698Y0303163D01*
X0628700Y0303191D01*
X0628700Y0303269D01*
D12*
X0001750Y0026750D02*
X0001750Y0001750D01*
X0707750Y0001750D01*
X0707750Y0026750D01*
X0001750Y0026750D01*
X0001750Y0028750D02*
X0001750Y0400750D01*
X0026750Y0400750D01*
X0026750Y0028750D01*
X0001750Y0028750D01*
X0001750Y0402750D02*
X0001750Y0427750D01*
X0707750Y0427750D01*
X0707750Y0402750D01*
X0001750Y0402750D01*
X0682750Y0400750D02*
X0682750Y0028750D01*
X0707750Y0028750D01*
X0707750Y0400750D01*
X0682750Y0400750D01*
D13*
X0664250Y0390750D02*
X0664252Y0390911D01*
X0664258Y0391071D01*
X0664268Y0391232D01*
X0664282Y0391392D01*
X0664300Y0391552D01*
X0664321Y0391711D01*
X0664347Y0391870D01*
X0664377Y0392028D01*
X0664410Y0392185D01*
X0664448Y0392342D01*
X0664489Y0392497D01*
X0664534Y0392651D01*
X0664583Y0392804D01*
X0664636Y0392956D01*
X0664692Y0393107D01*
X0664753Y0393256D01*
X0664816Y0393404D01*
X0664884Y0393550D01*
X0664955Y0393694D01*
X0665029Y0393836D01*
X0665107Y0393977D01*
X0665189Y0394115D01*
X0665274Y0394252D01*
X0665362Y0394386D01*
X0665454Y0394518D01*
X0665549Y0394648D01*
X0665647Y0394776D01*
X0665748Y0394901D01*
X0665852Y0395023D01*
X0665959Y0395143D01*
X0666069Y0395260D01*
X0666182Y0395375D01*
X0666298Y0395486D01*
X0666417Y0395595D01*
X0666538Y0395700D01*
X0666662Y0395803D01*
X0666788Y0395903D01*
X0666916Y0395999D01*
X0667047Y0396092D01*
X0667181Y0396182D01*
X0667316Y0396269D01*
X0667454Y0396352D01*
X0667593Y0396432D01*
X0667735Y0396508D01*
X0667878Y0396581D01*
X0668023Y0396650D01*
X0668170Y0396716D01*
X0668318Y0396778D01*
X0668468Y0396836D01*
X0668619Y0396891D01*
X0668772Y0396942D01*
X0668926Y0396989D01*
X0669081Y0397032D01*
X0669237Y0397071D01*
X0669393Y0397107D01*
X0669551Y0397138D01*
X0669709Y0397166D01*
X0669868Y0397190D01*
X0670028Y0397210D01*
X0670188Y0397226D01*
X0670348Y0397238D01*
X0670509Y0397246D01*
X0670670Y0397250D01*
X0670830Y0397250D01*
X0670991Y0397246D01*
X0671152Y0397238D01*
X0671312Y0397226D01*
X0671472Y0397210D01*
X0671632Y0397190D01*
X0671791Y0397166D01*
X0671949Y0397138D01*
X0672107Y0397107D01*
X0672263Y0397071D01*
X0672419Y0397032D01*
X0672574Y0396989D01*
X0672728Y0396942D01*
X0672881Y0396891D01*
X0673032Y0396836D01*
X0673182Y0396778D01*
X0673330Y0396716D01*
X0673477Y0396650D01*
X0673622Y0396581D01*
X0673765Y0396508D01*
X0673907Y0396432D01*
X0674046Y0396352D01*
X0674184Y0396269D01*
X0674319Y0396182D01*
X0674453Y0396092D01*
X0674584Y0395999D01*
X0674712Y0395903D01*
X0674838Y0395803D01*
X0674962Y0395700D01*
X0675083Y0395595D01*
X0675202Y0395486D01*
X0675318Y0395375D01*
X0675431Y0395260D01*
X0675541Y0395143D01*
X0675648Y0395023D01*
X0675752Y0394901D01*
X0675853Y0394776D01*
X0675951Y0394648D01*
X0676046Y0394518D01*
X0676138Y0394386D01*
X0676226Y0394252D01*
X0676311Y0394115D01*
X0676393Y0393977D01*
X0676471Y0393836D01*
X0676545Y0393694D01*
X0676616Y0393550D01*
X0676684Y0393404D01*
X0676747Y0393256D01*
X0676808Y0393107D01*
X0676864Y0392956D01*
X0676917Y0392804D01*
X0676966Y0392651D01*
X0677011Y0392497D01*
X0677052Y0392342D01*
X0677090Y0392185D01*
X0677123Y0392028D01*
X0677153Y0391870D01*
X0677179Y0391711D01*
X0677200Y0391552D01*
X0677218Y0391392D01*
X0677232Y0391232D01*
X0677242Y0391071D01*
X0677248Y0390911D01*
X0677250Y0390750D01*
X0677248Y0390589D01*
X0677242Y0390429D01*
X0677232Y0390268D01*
X0677218Y0390108D01*
X0677200Y0389948D01*
X0677179Y0389789D01*
X0677153Y0389630D01*
X0677123Y0389472D01*
X0677090Y0389315D01*
X0677052Y0389158D01*
X0677011Y0389003D01*
X0676966Y0388849D01*
X0676917Y0388696D01*
X0676864Y0388544D01*
X0676808Y0388393D01*
X0676747Y0388244D01*
X0676684Y0388096D01*
X0676616Y0387950D01*
X0676545Y0387806D01*
X0676471Y0387664D01*
X0676393Y0387523D01*
X0676311Y0387385D01*
X0676226Y0387248D01*
X0676138Y0387114D01*
X0676046Y0386982D01*
X0675951Y0386852D01*
X0675853Y0386724D01*
X0675752Y0386599D01*
X0675648Y0386477D01*
X0675541Y0386357D01*
X0675431Y0386240D01*
X0675318Y0386125D01*
X0675202Y0386014D01*
X0675083Y0385905D01*
X0674962Y0385800D01*
X0674838Y0385697D01*
X0674712Y0385597D01*
X0674584Y0385501D01*
X0674453Y0385408D01*
X0674319Y0385318D01*
X0674184Y0385231D01*
X0674046Y0385148D01*
X0673907Y0385068D01*
X0673765Y0384992D01*
X0673622Y0384919D01*
X0673477Y0384850D01*
X0673330Y0384784D01*
X0673182Y0384722D01*
X0673032Y0384664D01*
X0672881Y0384609D01*
X0672728Y0384558D01*
X0672574Y0384511D01*
X0672419Y0384468D01*
X0672263Y0384429D01*
X0672107Y0384393D01*
X0671949Y0384362D01*
X0671791Y0384334D01*
X0671632Y0384310D01*
X0671472Y0384290D01*
X0671312Y0384274D01*
X0671152Y0384262D01*
X0670991Y0384254D01*
X0670830Y0384250D01*
X0670670Y0384250D01*
X0670509Y0384254D01*
X0670348Y0384262D01*
X0670188Y0384274D01*
X0670028Y0384290D01*
X0669868Y0384310D01*
X0669709Y0384334D01*
X0669551Y0384362D01*
X0669393Y0384393D01*
X0669237Y0384429D01*
X0669081Y0384468D01*
X0668926Y0384511D01*
X0668772Y0384558D01*
X0668619Y0384609D01*
X0668468Y0384664D01*
X0668318Y0384722D01*
X0668170Y0384784D01*
X0668023Y0384850D01*
X0667878Y0384919D01*
X0667735Y0384992D01*
X0667593Y0385068D01*
X0667454Y0385148D01*
X0667316Y0385231D01*
X0667181Y0385318D01*
X0667047Y0385408D01*
X0666916Y0385501D01*
X0666788Y0385597D01*
X0666662Y0385697D01*
X0666538Y0385800D01*
X0666417Y0385905D01*
X0666298Y0386014D01*
X0666182Y0386125D01*
X0666069Y0386240D01*
X0665959Y0386357D01*
X0665852Y0386477D01*
X0665748Y0386599D01*
X0665647Y0386724D01*
X0665549Y0386852D01*
X0665454Y0386982D01*
X0665362Y0387114D01*
X0665274Y0387248D01*
X0665189Y0387385D01*
X0665107Y0387523D01*
X0665029Y0387664D01*
X0664955Y0387806D01*
X0664884Y0387950D01*
X0664816Y0388096D01*
X0664753Y0388244D01*
X0664692Y0388393D01*
X0664636Y0388544D01*
X0664583Y0388696D01*
X0664534Y0388849D01*
X0664489Y0389003D01*
X0664448Y0389158D01*
X0664410Y0389315D01*
X0664377Y0389472D01*
X0664347Y0389630D01*
X0664321Y0389789D01*
X0664300Y0389948D01*
X0664282Y0390108D01*
X0664268Y0390268D01*
X0664258Y0390429D01*
X0664252Y0390589D01*
X0664250Y0390750D01*
X0664250Y0225750D02*
X0664252Y0225911D01*
X0664258Y0226071D01*
X0664268Y0226232D01*
X0664282Y0226392D01*
X0664300Y0226552D01*
X0664321Y0226711D01*
X0664347Y0226870D01*
X0664377Y0227028D01*
X0664410Y0227185D01*
X0664448Y0227342D01*
X0664489Y0227497D01*
X0664534Y0227651D01*
X0664583Y0227804D01*
X0664636Y0227956D01*
X0664692Y0228107D01*
X0664753Y0228256D01*
X0664816Y0228404D01*
X0664884Y0228550D01*
X0664955Y0228694D01*
X0665029Y0228836D01*
X0665107Y0228977D01*
X0665189Y0229115D01*
X0665274Y0229252D01*
X0665362Y0229386D01*
X0665454Y0229518D01*
X0665549Y0229648D01*
X0665647Y0229776D01*
X0665748Y0229901D01*
X0665852Y0230023D01*
X0665959Y0230143D01*
X0666069Y0230260D01*
X0666182Y0230375D01*
X0666298Y0230486D01*
X0666417Y0230595D01*
X0666538Y0230700D01*
X0666662Y0230803D01*
X0666788Y0230903D01*
X0666916Y0230999D01*
X0667047Y0231092D01*
X0667181Y0231182D01*
X0667316Y0231269D01*
X0667454Y0231352D01*
X0667593Y0231432D01*
X0667735Y0231508D01*
X0667878Y0231581D01*
X0668023Y0231650D01*
X0668170Y0231716D01*
X0668318Y0231778D01*
X0668468Y0231836D01*
X0668619Y0231891D01*
X0668772Y0231942D01*
X0668926Y0231989D01*
X0669081Y0232032D01*
X0669237Y0232071D01*
X0669393Y0232107D01*
X0669551Y0232138D01*
X0669709Y0232166D01*
X0669868Y0232190D01*
X0670028Y0232210D01*
X0670188Y0232226D01*
X0670348Y0232238D01*
X0670509Y0232246D01*
X0670670Y0232250D01*
X0670830Y0232250D01*
X0670991Y0232246D01*
X0671152Y0232238D01*
X0671312Y0232226D01*
X0671472Y0232210D01*
X0671632Y0232190D01*
X0671791Y0232166D01*
X0671949Y0232138D01*
X0672107Y0232107D01*
X0672263Y0232071D01*
X0672419Y0232032D01*
X0672574Y0231989D01*
X0672728Y0231942D01*
X0672881Y0231891D01*
X0673032Y0231836D01*
X0673182Y0231778D01*
X0673330Y0231716D01*
X0673477Y0231650D01*
X0673622Y0231581D01*
X0673765Y0231508D01*
X0673907Y0231432D01*
X0674046Y0231352D01*
X0674184Y0231269D01*
X0674319Y0231182D01*
X0674453Y0231092D01*
X0674584Y0230999D01*
X0674712Y0230903D01*
X0674838Y0230803D01*
X0674962Y0230700D01*
X0675083Y0230595D01*
X0675202Y0230486D01*
X0675318Y0230375D01*
X0675431Y0230260D01*
X0675541Y0230143D01*
X0675648Y0230023D01*
X0675752Y0229901D01*
X0675853Y0229776D01*
X0675951Y0229648D01*
X0676046Y0229518D01*
X0676138Y0229386D01*
X0676226Y0229252D01*
X0676311Y0229115D01*
X0676393Y0228977D01*
X0676471Y0228836D01*
X0676545Y0228694D01*
X0676616Y0228550D01*
X0676684Y0228404D01*
X0676747Y0228256D01*
X0676808Y0228107D01*
X0676864Y0227956D01*
X0676917Y0227804D01*
X0676966Y0227651D01*
X0677011Y0227497D01*
X0677052Y0227342D01*
X0677090Y0227185D01*
X0677123Y0227028D01*
X0677153Y0226870D01*
X0677179Y0226711D01*
X0677200Y0226552D01*
X0677218Y0226392D01*
X0677232Y0226232D01*
X0677242Y0226071D01*
X0677248Y0225911D01*
X0677250Y0225750D01*
X0677248Y0225589D01*
X0677242Y0225429D01*
X0677232Y0225268D01*
X0677218Y0225108D01*
X0677200Y0224948D01*
X0677179Y0224789D01*
X0677153Y0224630D01*
X0677123Y0224472D01*
X0677090Y0224315D01*
X0677052Y0224158D01*
X0677011Y0224003D01*
X0676966Y0223849D01*
X0676917Y0223696D01*
X0676864Y0223544D01*
X0676808Y0223393D01*
X0676747Y0223244D01*
X0676684Y0223096D01*
X0676616Y0222950D01*
X0676545Y0222806D01*
X0676471Y0222664D01*
X0676393Y0222523D01*
X0676311Y0222385D01*
X0676226Y0222248D01*
X0676138Y0222114D01*
X0676046Y0221982D01*
X0675951Y0221852D01*
X0675853Y0221724D01*
X0675752Y0221599D01*
X0675648Y0221477D01*
X0675541Y0221357D01*
X0675431Y0221240D01*
X0675318Y0221125D01*
X0675202Y0221014D01*
X0675083Y0220905D01*
X0674962Y0220800D01*
X0674838Y0220697D01*
X0674712Y0220597D01*
X0674584Y0220501D01*
X0674453Y0220408D01*
X0674319Y0220318D01*
X0674184Y0220231D01*
X0674046Y0220148D01*
X0673907Y0220068D01*
X0673765Y0219992D01*
X0673622Y0219919D01*
X0673477Y0219850D01*
X0673330Y0219784D01*
X0673182Y0219722D01*
X0673032Y0219664D01*
X0672881Y0219609D01*
X0672728Y0219558D01*
X0672574Y0219511D01*
X0672419Y0219468D01*
X0672263Y0219429D01*
X0672107Y0219393D01*
X0671949Y0219362D01*
X0671791Y0219334D01*
X0671632Y0219310D01*
X0671472Y0219290D01*
X0671312Y0219274D01*
X0671152Y0219262D01*
X0670991Y0219254D01*
X0670830Y0219250D01*
X0670670Y0219250D01*
X0670509Y0219254D01*
X0670348Y0219262D01*
X0670188Y0219274D01*
X0670028Y0219290D01*
X0669868Y0219310D01*
X0669709Y0219334D01*
X0669551Y0219362D01*
X0669393Y0219393D01*
X0669237Y0219429D01*
X0669081Y0219468D01*
X0668926Y0219511D01*
X0668772Y0219558D01*
X0668619Y0219609D01*
X0668468Y0219664D01*
X0668318Y0219722D01*
X0668170Y0219784D01*
X0668023Y0219850D01*
X0667878Y0219919D01*
X0667735Y0219992D01*
X0667593Y0220068D01*
X0667454Y0220148D01*
X0667316Y0220231D01*
X0667181Y0220318D01*
X0667047Y0220408D01*
X0666916Y0220501D01*
X0666788Y0220597D01*
X0666662Y0220697D01*
X0666538Y0220800D01*
X0666417Y0220905D01*
X0666298Y0221014D01*
X0666182Y0221125D01*
X0666069Y0221240D01*
X0665959Y0221357D01*
X0665852Y0221477D01*
X0665748Y0221599D01*
X0665647Y0221724D01*
X0665549Y0221852D01*
X0665454Y0221982D01*
X0665362Y0222114D01*
X0665274Y0222248D01*
X0665189Y0222385D01*
X0665107Y0222523D01*
X0665029Y0222664D01*
X0664955Y0222806D01*
X0664884Y0222950D01*
X0664816Y0223096D01*
X0664753Y0223244D01*
X0664692Y0223393D01*
X0664636Y0223544D01*
X0664583Y0223696D01*
X0664534Y0223849D01*
X0664489Y0224003D01*
X0664448Y0224158D01*
X0664410Y0224315D01*
X0664377Y0224472D01*
X0664347Y0224630D01*
X0664321Y0224789D01*
X0664300Y0224948D01*
X0664282Y0225108D01*
X0664268Y0225268D01*
X0664258Y0225429D01*
X0664252Y0225589D01*
X0664250Y0225750D01*
X0664250Y0203750D02*
X0664252Y0203911D01*
X0664258Y0204071D01*
X0664268Y0204232D01*
X0664282Y0204392D01*
X0664300Y0204552D01*
X0664321Y0204711D01*
X0664347Y0204870D01*
X0664377Y0205028D01*
X0664410Y0205185D01*
X0664448Y0205342D01*
X0664489Y0205497D01*
X0664534Y0205651D01*
X0664583Y0205804D01*
X0664636Y0205956D01*
X0664692Y0206107D01*
X0664753Y0206256D01*
X0664816Y0206404D01*
X0664884Y0206550D01*
X0664955Y0206694D01*
X0665029Y0206836D01*
X0665107Y0206977D01*
X0665189Y0207115D01*
X0665274Y0207252D01*
X0665362Y0207386D01*
X0665454Y0207518D01*
X0665549Y0207648D01*
X0665647Y0207776D01*
X0665748Y0207901D01*
X0665852Y0208023D01*
X0665959Y0208143D01*
X0666069Y0208260D01*
X0666182Y0208375D01*
X0666298Y0208486D01*
X0666417Y0208595D01*
X0666538Y0208700D01*
X0666662Y0208803D01*
X0666788Y0208903D01*
X0666916Y0208999D01*
X0667047Y0209092D01*
X0667181Y0209182D01*
X0667316Y0209269D01*
X0667454Y0209352D01*
X0667593Y0209432D01*
X0667735Y0209508D01*
X0667878Y0209581D01*
X0668023Y0209650D01*
X0668170Y0209716D01*
X0668318Y0209778D01*
X0668468Y0209836D01*
X0668619Y0209891D01*
X0668772Y0209942D01*
X0668926Y0209989D01*
X0669081Y0210032D01*
X0669237Y0210071D01*
X0669393Y0210107D01*
X0669551Y0210138D01*
X0669709Y0210166D01*
X0669868Y0210190D01*
X0670028Y0210210D01*
X0670188Y0210226D01*
X0670348Y0210238D01*
X0670509Y0210246D01*
X0670670Y0210250D01*
X0670830Y0210250D01*
X0670991Y0210246D01*
X0671152Y0210238D01*
X0671312Y0210226D01*
X0671472Y0210210D01*
X0671632Y0210190D01*
X0671791Y0210166D01*
X0671949Y0210138D01*
X0672107Y0210107D01*
X0672263Y0210071D01*
X0672419Y0210032D01*
X0672574Y0209989D01*
X0672728Y0209942D01*
X0672881Y0209891D01*
X0673032Y0209836D01*
X0673182Y0209778D01*
X0673330Y0209716D01*
X0673477Y0209650D01*
X0673622Y0209581D01*
X0673765Y0209508D01*
X0673907Y0209432D01*
X0674046Y0209352D01*
X0674184Y0209269D01*
X0674319Y0209182D01*
X0674453Y0209092D01*
X0674584Y0208999D01*
X0674712Y0208903D01*
X0674838Y0208803D01*
X0674962Y0208700D01*
X0675083Y0208595D01*
X0675202Y0208486D01*
X0675318Y0208375D01*
X0675431Y0208260D01*
X0675541Y0208143D01*
X0675648Y0208023D01*
X0675752Y0207901D01*
X0675853Y0207776D01*
X0675951Y0207648D01*
X0676046Y0207518D01*
X0676138Y0207386D01*
X0676226Y0207252D01*
X0676311Y0207115D01*
X0676393Y0206977D01*
X0676471Y0206836D01*
X0676545Y0206694D01*
X0676616Y0206550D01*
X0676684Y0206404D01*
X0676747Y0206256D01*
X0676808Y0206107D01*
X0676864Y0205956D01*
X0676917Y0205804D01*
X0676966Y0205651D01*
X0677011Y0205497D01*
X0677052Y0205342D01*
X0677090Y0205185D01*
X0677123Y0205028D01*
X0677153Y0204870D01*
X0677179Y0204711D01*
X0677200Y0204552D01*
X0677218Y0204392D01*
X0677232Y0204232D01*
X0677242Y0204071D01*
X0677248Y0203911D01*
X0677250Y0203750D01*
X0677248Y0203589D01*
X0677242Y0203429D01*
X0677232Y0203268D01*
X0677218Y0203108D01*
X0677200Y0202948D01*
X0677179Y0202789D01*
X0677153Y0202630D01*
X0677123Y0202472D01*
X0677090Y0202315D01*
X0677052Y0202158D01*
X0677011Y0202003D01*
X0676966Y0201849D01*
X0676917Y0201696D01*
X0676864Y0201544D01*
X0676808Y0201393D01*
X0676747Y0201244D01*
X0676684Y0201096D01*
X0676616Y0200950D01*
X0676545Y0200806D01*
X0676471Y0200664D01*
X0676393Y0200523D01*
X0676311Y0200385D01*
X0676226Y0200248D01*
X0676138Y0200114D01*
X0676046Y0199982D01*
X0675951Y0199852D01*
X0675853Y0199724D01*
X0675752Y0199599D01*
X0675648Y0199477D01*
X0675541Y0199357D01*
X0675431Y0199240D01*
X0675318Y0199125D01*
X0675202Y0199014D01*
X0675083Y0198905D01*
X0674962Y0198800D01*
X0674838Y0198697D01*
X0674712Y0198597D01*
X0674584Y0198501D01*
X0674453Y0198408D01*
X0674319Y0198318D01*
X0674184Y0198231D01*
X0674046Y0198148D01*
X0673907Y0198068D01*
X0673765Y0197992D01*
X0673622Y0197919D01*
X0673477Y0197850D01*
X0673330Y0197784D01*
X0673182Y0197722D01*
X0673032Y0197664D01*
X0672881Y0197609D01*
X0672728Y0197558D01*
X0672574Y0197511D01*
X0672419Y0197468D01*
X0672263Y0197429D01*
X0672107Y0197393D01*
X0671949Y0197362D01*
X0671791Y0197334D01*
X0671632Y0197310D01*
X0671472Y0197290D01*
X0671312Y0197274D01*
X0671152Y0197262D01*
X0670991Y0197254D01*
X0670830Y0197250D01*
X0670670Y0197250D01*
X0670509Y0197254D01*
X0670348Y0197262D01*
X0670188Y0197274D01*
X0670028Y0197290D01*
X0669868Y0197310D01*
X0669709Y0197334D01*
X0669551Y0197362D01*
X0669393Y0197393D01*
X0669237Y0197429D01*
X0669081Y0197468D01*
X0668926Y0197511D01*
X0668772Y0197558D01*
X0668619Y0197609D01*
X0668468Y0197664D01*
X0668318Y0197722D01*
X0668170Y0197784D01*
X0668023Y0197850D01*
X0667878Y0197919D01*
X0667735Y0197992D01*
X0667593Y0198068D01*
X0667454Y0198148D01*
X0667316Y0198231D01*
X0667181Y0198318D01*
X0667047Y0198408D01*
X0666916Y0198501D01*
X0666788Y0198597D01*
X0666662Y0198697D01*
X0666538Y0198800D01*
X0666417Y0198905D01*
X0666298Y0199014D01*
X0666182Y0199125D01*
X0666069Y0199240D01*
X0665959Y0199357D01*
X0665852Y0199477D01*
X0665748Y0199599D01*
X0665647Y0199724D01*
X0665549Y0199852D01*
X0665454Y0199982D01*
X0665362Y0200114D01*
X0665274Y0200248D01*
X0665189Y0200385D01*
X0665107Y0200523D01*
X0665029Y0200664D01*
X0664955Y0200806D01*
X0664884Y0200950D01*
X0664816Y0201096D01*
X0664753Y0201244D01*
X0664692Y0201393D01*
X0664636Y0201544D01*
X0664583Y0201696D01*
X0664534Y0201849D01*
X0664489Y0202003D01*
X0664448Y0202158D01*
X0664410Y0202315D01*
X0664377Y0202472D01*
X0664347Y0202630D01*
X0664321Y0202789D01*
X0664300Y0202948D01*
X0664282Y0203108D01*
X0664268Y0203268D01*
X0664258Y0203429D01*
X0664252Y0203589D01*
X0664250Y0203750D01*
X0664250Y0038750D02*
X0664252Y0038911D01*
X0664258Y0039071D01*
X0664268Y0039232D01*
X0664282Y0039392D01*
X0664300Y0039552D01*
X0664321Y0039711D01*
X0664347Y0039870D01*
X0664377Y0040028D01*
X0664410Y0040185D01*
X0664448Y0040342D01*
X0664489Y0040497D01*
X0664534Y0040651D01*
X0664583Y0040804D01*
X0664636Y0040956D01*
X0664692Y0041107D01*
X0664753Y0041256D01*
X0664816Y0041404D01*
X0664884Y0041550D01*
X0664955Y0041694D01*
X0665029Y0041836D01*
X0665107Y0041977D01*
X0665189Y0042115D01*
X0665274Y0042252D01*
X0665362Y0042386D01*
X0665454Y0042518D01*
X0665549Y0042648D01*
X0665647Y0042776D01*
X0665748Y0042901D01*
X0665852Y0043023D01*
X0665959Y0043143D01*
X0666069Y0043260D01*
X0666182Y0043375D01*
X0666298Y0043486D01*
X0666417Y0043595D01*
X0666538Y0043700D01*
X0666662Y0043803D01*
X0666788Y0043903D01*
X0666916Y0043999D01*
X0667047Y0044092D01*
X0667181Y0044182D01*
X0667316Y0044269D01*
X0667454Y0044352D01*
X0667593Y0044432D01*
X0667735Y0044508D01*
X0667878Y0044581D01*
X0668023Y0044650D01*
X0668170Y0044716D01*
X0668318Y0044778D01*
X0668468Y0044836D01*
X0668619Y0044891D01*
X0668772Y0044942D01*
X0668926Y0044989D01*
X0669081Y0045032D01*
X0669237Y0045071D01*
X0669393Y0045107D01*
X0669551Y0045138D01*
X0669709Y0045166D01*
X0669868Y0045190D01*
X0670028Y0045210D01*
X0670188Y0045226D01*
X0670348Y0045238D01*
X0670509Y0045246D01*
X0670670Y0045250D01*
X0670830Y0045250D01*
X0670991Y0045246D01*
X0671152Y0045238D01*
X0671312Y0045226D01*
X0671472Y0045210D01*
X0671632Y0045190D01*
X0671791Y0045166D01*
X0671949Y0045138D01*
X0672107Y0045107D01*
X0672263Y0045071D01*
X0672419Y0045032D01*
X0672574Y0044989D01*
X0672728Y0044942D01*
X0672881Y0044891D01*
X0673032Y0044836D01*
X0673182Y0044778D01*
X0673330Y0044716D01*
X0673477Y0044650D01*
X0673622Y0044581D01*
X0673765Y0044508D01*
X0673907Y0044432D01*
X0674046Y0044352D01*
X0674184Y0044269D01*
X0674319Y0044182D01*
X0674453Y0044092D01*
X0674584Y0043999D01*
X0674712Y0043903D01*
X0674838Y0043803D01*
X0674962Y0043700D01*
X0675083Y0043595D01*
X0675202Y0043486D01*
X0675318Y0043375D01*
X0675431Y0043260D01*
X0675541Y0043143D01*
X0675648Y0043023D01*
X0675752Y0042901D01*
X0675853Y0042776D01*
X0675951Y0042648D01*
X0676046Y0042518D01*
X0676138Y0042386D01*
X0676226Y0042252D01*
X0676311Y0042115D01*
X0676393Y0041977D01*
X0676471Y0041836D01*
X0676545Y0041694D01*
X0676616Y0041550D01*
X0676684Y0041404D01*
X0676747Y0041256D01*
X0676808Y0041107D01*
X0676864Y0040956D01*
X0676917Y0040804D01*
X0676966Y0040651D01*
X0677011Y0040497D01*
X0677052Y0040342D01*
X0677090Y0040185D01*
X0677123Y0040028D01*
X0677153Y0039870D01*
X0677179Y0039711D01*
X0677200Y0039552D01*
X0677218Y0039392D01*
X0677232Y0039232D01*
X0677242Y0039071D01*
X0677248Y0038911D01*
X0677250Y0038750D01*
X0677248Y0038589D01*
X0677242Y0038429D01*
X0677232Y0038268D01*
X0677218Y0038108D01*
X0677200Y0037948D01*
X0677179Y0037789D01*
X0677153Y0037630D01*
X0677123Y0037472D01*
X0677090Y0037315D01*
X0677052Y0037158D01*
X0677011Y0037003D01*
X0676966Y0036849D01*
X0676917Y0036696D01*
X0676864Y0036544D01*
X0676808Y0036393D01*
X0676747Y0036244D01*
X0676684Y0036096D01*
X0676616Y0035950D01*
X0676545Y0035806D01*
X0676471Y0035664D01*
X0676393Y0035523D01*
X0676311Y0035385D01*
X0676226Y0035248D01*
X0676138Y0035114D01*
X0676046Y0034982D01*
X0675951Y0034852D01*
X0675853Y0034724D01*
X0675752Y0034599D01*
X0675648Y0034477D01*
X0675541Y0034357D01*
X0675431Y0034240D01*
X0675318Y0034125D01*
X0675202Y0034014D01*
X0675083Y0033905D01*
X0674962Y0033800D01*
X0674838Y0033697D01*
X0674712Y0033597D01*
X0674584Y0033501D01*
X0674453Y0033408D01*
X0674319Y0033318D01*
X0674184Y0033231D01*
X0674046Y0033148D01*
X0673907Y0033068D01*
X0673765Y0032992D01*
X0673622Y0032919D01*
X0673477Y0032850D01*
X0673330Y0032784D01*
X0673182Y0032722D01*
X0673032Y0032664D01*
X0672881Y0032609D01*
X0672728Y0032558D01*
X0672574Y0032511D01*
X0672419Y0032468D01*
X0672263Y0032429D01*
X0672107Y0032393D01*
X0671949Y0032362D01*
X0671791Y0032334D01*
X0671632Y0032310D01*
X0671472Y0032290D01*
X0671312Y0032274D01*
X0671152Y0032262D01*
X0670991Y0032254D01*
X0670830Y0032250D01*
X0670670Y0032250D01*
X0670509Y0032254D01*
X0670348Y0032262D01*
X0670188Y0032274D01*
X0670028Y0032290D01*
X0669868Y0032310D01*
X0669709Y0032334D01*
X0669551Y0032362D01*
X0669393Y0032393D01*
X0669237Y0032429D01*
X0669081Y0032468D01*
X0668926Y0032511D01*
X0668772Y0032558D01*
X0668619Y0032609D01*
X0668468Y0032664D01*
X0668318Y0032722D01*
X0668170Y0032784D01*
X0668023Y0032850D01*
X0667878Y0032919D01*
X0667735Y0032992D01*
X0667593Y0033068D01*
X0667454Y0033148D01*
X0667316Y0033231D01*
X0667181Y0033318D01*
X0667047Y0033408D01*
X0666916Y0033501D01*
X0666788Y0033597D01*
X0666662Y0033697D01*
X0666538Y0033800D01*
X0666417Y0033905D01*
X0666298Y0034014D01*
X0666182Y0034125D01*
X0666069Y0034240D01*
X0665959Y0034357D01*
X0665852Y0034477D01*
X0665748Y0034599D01*
X0665647Y0034724D01*
X0665549Y0034852D01*
X0665454Y0034982D01*
X0665362Y0035114D01*
X0665274Y0035248D01*
X0665189Y0035385D01*
X0665107Y0035523D01*
X0665029Y0035664D01*
X0664955Y0035806D01*
X0664884Y0035950D01*
X0664816Y0036096D01*
X0664753Y0036244D01*
X0664692Y0036393D01*
X0664636Y0036544D01*
X0664583Y0036696D01*
X0664534Y0036849D01*
X0664489Y0037003D01*
X0664448Y0037158D01*
X0664410Y0037315D01*
X0664377Y0037472D01*
X0664347Y0037630D01*
X0664321Y0037789D01*
X0664300Y0037948D01*
X0664282Y0038108D01*
X0664268Y0038268D01*
X0664258Y0038429D01*
X0664252Y0038589D01*
X0664250Y0038750D01*
X0359250Y0038750D02*
X0359252Y0038911D01*
X0359258Y0039071D01*
X0359268Y0039232D01*
X0359282Y0039392D01*
X0359300Y0039552D01*
X0359321Y0039711D01*
X0359347Y0039870D01*
X0359377Y0040028D01*
X0359410Y0040185D01*
X0359448Y0040342D01*
X0359489Y0040497D01*
X0359534Y0040651D01*
X0359583Y0040804D01*
X0359636Y0040956D01*
X0359692Y0041107D01*
X0359753Y0041256D01*
X0359816Y0041404D01*
X0359884Y0041550D01*
X0359955Y0041694D01*
X0360029Y0041836D01*
X0360107Y0041977D01*
X0360189Y0042115D01*
X0360274Y0042252D01*
X0360362Y0042386D01*
X0360454Y0042518D01*
X0360549Y0042648D01*
X0360647Y0042776D01*
X0360748Y0042901D01*
X0360852Y0043023D01*
X0360959Y0043143D01*
X0361069Y0043260D01*
X0361182Y0043375D01*
X0361298Y0043486D01*
X0361417Y0043595D01*
X0361538Y0043700D01*
X0361662Y0043803D01*
X0361788Y0043903D01*
X0361916Y0043999D01*
X0362047Y0044092D01*
X0362181Y0044182D01*
X0362316Y0044269D01*
X0362454Y0044352D01*
X0362593Y0044432D01*
X0362735Y0044508D01*
X0362878Y0044581D01*
X0363023Y0044650D01*
X0363170Y0044716D01*
X0363318Y0044778D01*
X0363468Y0044836D01*
X0363619Y0044891D01*
X0363772Y0044942D01*
X0363926Y0044989D01*
X0364081Y0045032D01*
X0364237Y0045071D01*
X0364393Y0045107D01*
X0364551Y0045138D01*
X0364709Y0045166D01*
X0364868Y0045190D01*
X0365028Y0045210D01*
X0365188Y0045226D01*
X0365348Y0045238D01*
X0365509Y0045246D01*
X0365670Y0045250D01*
X0365830Y0045250D01*
X0365991Y0045246D01*
X0366152Y0045238D01*
X0366312Y0045226D01*
X0366472Y0045210D01*
X0366632Y0045190D01*
X0366791Y0045166D01*
X0366949Y0045138D01*
X0367107Y0045107D01*
X0367263Y0045071D01*
X0367419Y0045032D01*
X0367574Y0044989D01*
X0367728Y0044942D01*
X0367881Y0044891D01*
X0368032Y0044836D01*
X0368182Y0044778D01*
X0368330Y0044716D01*
X0368477Y0044650D01*
X0368622Y0044581D01*
X0368765Y0044508D01*
X0368907Y0044432D01*
X0369046Y0044352D01*
X0369184Y0044269D01*
X0369319Y0044182D01*
X0369453Y0044092D01*
X0369584Y0043999D01*
X0369712Y0043903D01*
X0369838Y0043803D01*
X0369962Y0043700D01*
X0370083Y0043595D01*
X0370202Y0043486D01*
X0370318Y0043375D01*
X0370431Y0043260D01*
X0370541Y0043143D01*
X0370648Y0043023D01*
X0370752Y0042901D01*
X0370853Y0042776D01*
X0370951Y0042648D01*
X0371046Y0042518D01*
X0371138Y0042386D01*
X0371226Y0042252D01*
X0371311Y0042115D01*
X0371393Y0041977D01*
X0371471Y0041836D01*
X0371545Y0041694D01*
X0371616Y0041550D01*
X0371684Y0041404D01*
X0371747Y0041256D01*
X0371808Y0041107D01*
X0371864Y0040956D01*
X0371917Y0040804D01*
X0371966Y0040651D01*
X0372011Y0040497D01*
X0372052Y0040342D01*
X0372090Y0040185D01*
X0372123Y0040028D01*
X0372153Y0039870D01*
X0372179Y0039711D01*
X0372200Y0039552D01*
X0372218Y0039392D01*
X0372232Y0039232D01*
X0372242Y0039071D01*
X0372248Y0038911D01*
X0372250Y0038750D01*
X0372248Y0038589D01*
X0372242Y0038429D01*
X0372232Y0038268D01*
X0372218Y0038108D01*
X0372200Y0037948D01*
X0372179Y0037789D01*
X0372153Y0037630D01*
X0372123Y0037472D01*
X0372090Y0037315D01*
X0372052Y0037158D01*
X0372011Y0037003D01*
X0371966Y0036849D01*
X0371917Y0036696D01*
X0371864Y0036544D01*
X0371808Y0036393D01*
X0371747Y0036244D01*
X0371684Y0036096D01*
X0371616Y0035950D01*
X0371545Y0035806D01*
X0371471Y0035664D01*
X0371393Y0035523D01*
X0371311Y0035385D01*
X0371226Y0035248D01*
X0371138Y0035114D01*
X0371046Y0034982D01*
X0370951Y0034852D01*
X0370853Y0034724D01*
X0370752Y0034599D01*
X0370648Y0034477D01*
X0370541Y0034357D01*
X0370431Y0034240D01*
X0370318Y0034125D01*
X0370202Y0034014D01*
X0370083Y0033905D01*
X0369962Y0033800D01*
X0369838Y0033697D01*
X0369712Y0033597D01*
X0369584Y0033501D01*
X0369453Y0033408D01*
X0369319Y0033318D01*
X0369184Y0033231D01*
X0369046Y0033148D01*
X0368907Y0033068D01*
X0368765Y0032992D01*
X0368622Y0032919D01*
X0368477Y0032850D01*
X0368330Y0032784D01*
X0368182Y0032722D01*
X0368032Y0032664D01*
X0367881Y0032609D01*
X0367728Y0032558D01*
X0367574Y0032511D01*
X0367419Y0032468D01*
X0367263Y0032429D01*
X0367107Y0032393D01*
X0366949Y0032362D01*
X0366791Y0032334D01*
X0366632Y0032310D01*
X0366472Y0032290D01*
X0366312Y0032274D01*
X0366152Y0032262D01*
X0365991Y0032254D01*
X0365830Y0032250D01*
X0365670Y0032250D01*
X0365509Y0032254D01*
X0365348Y0032262D01*
X0365188Y0032274D01*
X0365028Y0032290D01*
X0364868Y0032310D01*
X0364709Y0032334D01*
X0364551Y0032362D01*
X0364393Y0032393D01*
X0364237Y0032429D01*
X0364081Y0032468D01*
X0363926Y0032511D01*
X0363772Y0032558D01*
X0363619Y0032609D01*
X0363468Y0032664D01*
X0363318Y0032722D01*
X0363170Y0032784D01*
X0363023Y0032850D01*
X0362878Y0032919D01*
X0362735Y0032992D01*
X0362593Y0033068D01*
X0362454Y0033148D01*
X0362316Y0033231D01*
X0362181Y0033318D01*
X0362047Y0033408D01*
X0361916Y0033501D01*
X0361788Y0033597D01*
X0361662Y0033697D01*
X0361538Y0033800D01*
X0361417Y0033905D01*
X0361298Y0034014D01*
X0361182Y0034125D01*
X0361069Y0034240D01*
X0360959Y0034357D01*
X0360852Y0034477D01*
X0360748Y0034599D01*
X0360647Y0034724D01*
X0360549Y0034852D01*
X0360454Y0034982D01*
X0360362Y0035114D01*
X0360274Y0035248D01*
X0360189Y0035385D01*
X0360107Y0035523D01*
X0360029Y0035664D01*
X0359955Y0035806D01*
X0359884Y0035950D01*
X0359816Y0036096D01*
X0359753Y0036244D01*
X0359692Y0036393D01*
X0359636Y0036544D01*
X0359583Y0036696D01*
X0359534Y0036849D01*
X0359489Y0037003D01*
X0359448Y0037158D01*
X0359410Y0037315D01*
X0359377Y0037472D01*
X0359347Y0037630D01*
X0359321Y0037789D01*
X0359300Y0037948D01*
X0359282Y0038108D01*
X0359268Y0038268D01*
X0359258Y0038429D01*
X0359252Y0038589D01*
X0359250Y0038750D01*
X0337250Y0038750D02*
X0337252Y0038911D01*
X0337258Y0039071D01*
X0337268Y0039232D01*
X0337282Y0039392D01*
X0337300Y0039552D01*
X0337321Y0039711D01*
X0337347Y0039870D01*
X0337377Y0040028D01*
X0337410Y0040185D01*
X0337448Y0040342D01*
X0337489Y0040497D01*
X0337534Y0040651D01*
X0337583Y0040804D01*
X0337636Y0040956D01*
X0337692Y0041107D01*
X0337753Y0041256D01*
X0337816Y0041404D01*
X0337884Y0041550D01*
X0337955Y0041694D01*
X0338029Y0041836D01*
X0338107Y0041977D01*
X0338189Y0042115D01*
X0338274Y0042252D01*
X0338362Y0042386D01*
X0338454Y0042518D01*
X0338549Y0042648D01*
X0338647Y0042776D01*
X0338748Y0042901D01*
X0338852Y0043023D01*
X0338959Y0043143D01*
X0339069Y0043260D01*
X0339182Y0043375D01*
X0339298Y0043486D01*
X0339417Y0043595D01*
X0339538Y0043700D01*
X0339662Y0043803D01*
X0339788Y0043903D01*
X0339916Y0043999D01*
X0340047Y0044092D01*
X0340181Y0044182D01*
X0340316Y0044269D01*
X0340454Y0044352D01*
X0340593Y0044432D01*
X0340735Y0044508D01*
X0340878Y0044581D01*
X0341023Y0044650D01*
X0341170Y0044716D01*
X0341318Y0044778D01*
X0341468Y0044836D01*
X0341619Y0044891D01*
X0341772Y0044942D01*
X0341926Y0044989D01*
X0342081Y0045032D01*
X0342237Y0045071D01*
X0342393Y0045107D01*
X0342551Y0045138D01*
X0342709Y0045166D01*
X0342868Y0045190D01*
X0343028Y0045210D01*
X0343188Y0045226D01*
X0343348Y0045238D01*
X0343509Y0045246D01*
X0343670Y0045250D01*
X0343830Y0045250D01*
X0343991Y0045246D01*
X0344152Y0045238D01*
X0344312Y0045226D01*
X0344472Y0045210D01*
X0344632Y0045190D01*
X0344791Y0045166D01*
X0344949Y0045138D01*
X0345107Y0045107D01*
X0345263Y0045071D01*
X0345419Y0045032D01*
X0345574Y0044989D01*
X0345728Y0044942D01*
X0345881Y0044891D01*
X0346032Y0044836D01*
X0346182Y0044778D01*
X0346330Y0044716D01*
X0346477Y0044650D01*
X0346622Y0044581D01*
X0346765Y0044508D01*
X0346907Y0044432D01*
X0347046Y0044352D01*
X0347184Y0044269D01*
X0347319Y0044182D01*
X0347453Y0044092D01*
X0347584Y0043999D01*
X0347712Y0043903D01*
X0347838Y0043803D01*
X0347962Y0043700D01*
X0348083Y0043595D01*
X0348202Y0043486D01*
X0348318Y0043375D01*
X0348431Y0043260D01*
X0348541Y0043143D01*
X0348648Y0043023D01*
X0348752Y0042901D01*
X0348853Y0042776D01*
X0348951Y0042648D01*
X0349046Y0042518D01*
X0349138Y0042386D01*
X0349226Y0042252D01*
X0349311Y0042115D01*
X0349393Y0041977D01*
X0349471Y0041836D01*
X0349545Y0041694D01*
X0349616Y0041550D01*
X0349684Y0041404D01*
X0349747Y0041256D01*
X0349808Y0041107D01*
X0349864Y0040956D01*
X0349917Y0040804D01*
X0349966Y0040651D01*
X0350011Y0040497D01*
X0350052Y0040342D01*
X0350090Y0040185D01*
X0350123Y0040028D01*
X0350153Y0039870D01*
X0350179Y0039711D01*
X0350200Y0039552D01*
X0350218Y0039392D01*
X0350232Y0039232D01*
X0350242Y0039071D01*
X0350248Y0038911D01*
X0350250Y0038750D01*
X0350248Y0038589D01*
X0350242Y0038429D01*
X0350232Y0038268D01*
X0350218Y0038108D01*
X0350200Y0037948D01*
X0350179Y0037789D01*
X0350153Y0037630D01*
X0350123Y0037472D01*
X0350090Y0037315D01*
X0350052Y0037158D01*
X0350011Y0037003D01*
X0349966Y0036849D01*
X0349917Y0036696D01*
X0349864Y0036544D01*
X0349808Y0036393D01*
X0349747Y0036244D01*
X0349684Y0036096D01*
X0349616Y0035950D01*
X0349545Y0035806D01*
X0349471Y0035664D01*
X0349393Y0035523D01*
X0349311Y0035385D01*
X0349226Y0035248D01*
X0349138Y0035114D01*
X0349046Y0034982D01*
X0348951Y0034852D01*
X0348853Y0034724D01*
X0348752Y0034599D01*
X0348648Y0034477D01*
X0348541Y0034357D01*
X0348431Y0034240D01*
X0348318Y0034125D01*
X0348202Y0034014D01*
X0348083Y0033905D01*
X0347962Y0033800D01*
X0347838Y0033697D01*
X0347712Y0033597D01*
X0347584Y0033501D01*
X0347453Y0033408D01*
X0347319Y0033318D01*
X0347184Y0033231D01*
X0347046Y0033148D01*
X0346907Y0033068D01*
X0346765Y0032992D01*
X0346622Y0032919D01*
X0346477Y0032850D01*
X0346330Y0032784D01*
X0346182Y0032722D01*
X0346032Y0032664D01*
X0345881Y0032609D01*
X0345728Y0032558D01*
X0345574Y0032511D01*
X0345419Y0032468D01*
X0345263Y0032429D01*
X0345107Y0032393D01*
X0344949Y0032362D01*
X0344791Y0032334D01*
X0344632Y0032310D01*
X0344472Y0032290D01*
X0344312Y0032274D01*
X0344152Y0032262D01*
X0343991Y0032254D01*
X0343830Y0032250D01*
X0343670Y0032250D01*
X0343509Y0032254D01*
X0343348Y0032262D01*
X0343188Y0032274D01*
X0343028Y0032290D01*
X0342868Y0032310D01*
X0342709Y0032334D01*
X0342551Y0032362D01*
X0342393Y0032393D01*
X0342237Y0032429D01*
X0342081Y0032468D01*
X0341926Y0032511D01*
X0341772Y0032558D01*
X0341619Y0032609D01*
X0341468Y0032664D01*
X0341318Y0032722D01*
X0341170Y0032784D01*
X0341023Y0032850D01*
X0340878Y0032919D01*
X0340735Y0032992D01*
X0340593Y0033068D01*
X0340454Y0033148D01*
X0340316Y0033231D01*
X0340181Y0033318D01*
X0340047Y0033408D01*
X0339916Y0033501D01*
X0339788Y0033597D01*
X0339662Y0033697D01*
X0339538Y0033800D01*
X0339417Y0033905D01*
X0339298Y0034014D01*
X0339182Y0034125D01*
X0339069Y0034240D01*
X0338959Y0034357D01*
X0338852Y0034477D01*
X0338748Y0034599D01*
X0338647Y0034724D01*
X0338549Y0034852D01*
X0338454Y0034982D01*
X0338362Y0035114D01*
X0338274Y0035248D01*
X0338189Y0035385D01*
X0338107Y0035523D01*
X0338029Y0035664D01*
X0337955Y0035806D01*
X0337884Y0035950D01*
X0337816Y0036096D01*
X0337753Y0036244D01*
X0337692Y0036393D01*
X0337636Y0036544D01*
X0337583Y0036696D01*
X0337534Y0036849D01*
X0337489Y0037003D01*
X0337448Y0037158D01*
X0337410Y0037315D01*
X0337377Y0037472D01*
X0337347Y0037630D01*
X0337321Y0037789D01*
X0337300Y0037948D01*
X0337282Y0038108D01*
X0337268Y0038268D01*
X0337258Y0038429D01*
X0337252Y0038589D01*
X0337250Y0038750D01*
X0337250Y0203750D02*
X0337252Y0203911D01*
X0337258Y0204071D01*
X0337268Y0204232D01*
X0337282Y0204392D01*
X0337300Y0204552D01*
X0337321Y0204711D01*
X0337347Y0204870D01*
X0337377Y0205028D01*
X0337410Y0205185D01*
X0337448Y0205342D01*
X0337489Y0205497D01*
X0337534Y0205651D01*
X0337583Y0205804D01*
X0337636Y0205956D01*
X0337692Y0206107D01*
X0337753Y0206256D01*
X0337816Y0206404D01*
X0337884Y0206550D01*
X0337955Y0206694D01*
X0338029Y0206836D01*
X0338107Y0206977D01*
X0338189Y0207115D01*
X0338274Y0207252D01*
X0338362Y0207386D01*
X0338454Y0207518D01*
X0338549Y0207648D01*
X0338647Y0207776D01*
X0338748Y0207901D01*
X0338852Y0208023D01*
X0338959Y0208143D01*
X0339069Y0208260D01*
X0339182Y0208375D01*
X0339298Y0208486D01*
X0339417Y0208595D01*
X0339538Y0208700D01*
X0339662Y0208803D01*
X0339788Y0208903D01*
X0339916Y0208999D01*
X0340047Y0209092D01*
X0340181Y0209182D01*
X0340316Y0209269D01*
X0340454Y0209352D01*
X0340593Y0209432D01*
X0340735Y0209508D01*
X0340878Y0209581D01*
X0341023Y0209650D01*
X0341170Y0209716D01*
X0341318Y0209778D01*
X0341468Y0209836D01*
X0341619Y0209891D01*
X0341772Y0209942D01*
X0341926Y0209989D01*
X0342081Y0210032D01*
X0342237Y0210071D01*
X0342393Y0210107D01*
X0342551Y0210138D01*
X0342709Y0210166D01*
X0342868Y0210190D01*
X0343028Y0210210D01*
X0343188Y0210226D01*
X0343348Y0210238D01*
X0343509Y0210246D01*
X0343670Y0210250D01*
X0343830Y0210250D01*
X0343991Y0210246D01*
X0344152Y0210238D01*
X0344312Y0210226D01*
X0344472Y0210210D01*
X0344632Y0210190D01*
X0344791Y0210166D01*
X0344949Y0210138D01*
X0345107Y0210107D01*
X0345263Y0210071D01*
X0345419Y0210032D01*
X0345574Y0209989D01*
X0345728Y0209942D01*
X0345881Y0209891D01*
X0346032Y0209836D01*
X0346182Y0209778D01*
X0346330Y0209716D01*
X0346477Y0209650D01*
X0346622Y0209581D01*
X0346765Y0209508D01*
X0346907Y0209432D01*
X0347046Y0209352D01*
X0347184Y0209269D01*
X0347319Y0209182D01*
X0347453Y0209092D01*
X0347584Y0208999D01*
X0347712Y0208903D01*
X0347838Y0208803D01*
X0347962Y0208700D01*
X0348083Y0208595D01*
X0348202Y0208486D01*
X0348318Y0208375D01*
X0348431Y0208260D01*
X0348541Y0208143D01*
X0348648Y0208023D01*
X0348752Y0207901D01*
X0348853Y0207776D01*
X0348951Y0207648D01*
X0349046Y0207518D01*
X0349138Y0207386D01*
X0349226Y0207252D01*
X0349311Y0207115D01*
X0349393Y0206977D01*
X0349471Y0206836D01*
X0349545Y0206694D01*
X0349616Y0206550D01*
X0349684Y0206404D01*
X0349747Y0206256D01*
X0349808Y0206107D01*
X0349864Y0205956D01*
X0349917Y0205804D01*
X0349966Y0205651D01*
X0350011Y0205497D01*
X0350052Y0205342D01*
X0350090Y0205185D01*
X0350123Y0205028D01*
X0350153Y0204870D01*
X0350179Y0204711D01*
X0350200Y0204552D01*
X0350218Y0204392D01*
X0350232Y0204232D01*
X0350242Y0204071D01*
X0350248Y0203911D01*
X0350250Y0203750D01*
X0350248Y0203589D01*
X0350242Y0203429D01*
X0350232Y0203268D01*
X0350218Y0203108D01*
X0350200Y0202948D01*
X0350179Y0202789D01*
X0350153Y0202630D01*
X0350123Y0202472D01*
X0350090Y0202315D01*
X0350052Y0202158D01*
X0350011Y0202003D01*
X0349966Y0201849D01*
X0349917Y0201696D01*
X0349864Y0201544D01*
X0349808Y0201393D01*
X0349747Y0201244D01*
X0349684Y0201096D01*
X0349616Y0200950D01*
X0349545Y0200806D01*
X0349471Y0200664D01*
X0349393Y0200523D01*
X0349311Y0200385D01*
X0349226Y0200248D01*
X0349138Y0200114D01*
X0349046Y0199982D01*
X0348951Y0199852D01*
X0348853Y0199724D01*
X0348752Y0199599D01*
X0348648Y0199477D01*
X0348541Y0199357D01*
X0348431Y0199240D01*
X0348318Y0199125D01*
X0348202Y0199014D01*
X0348083Y0198905D01*
X0347962Y0198800D01*
X0347838Y0198697D01*
X0347712Y0198597D01*
X0347584Y0198501D01*
X0347453Y0198408D01*
X0347319Y0198318D01*
X0347184Y0198231D01*
X0347046Y0198148D01*
X0346907Y0198068D01*
X0346765Y0197992D01*
X0346622Y0197919D01*
X0346477Y0197850D01*
X0346330Y0197784D01*
X0346182Y0197722D01*
X0346032Y0197664D01*
X0345881Y0197609D01*
X0345728Y0197558D01*
X0345574Y0197511D01*
X0345419Y0197468D01*
X0345263Y0197429D01*
X0345107Y0197393D01*
X0344949Y0197362D01*
X0344791Y0197334D01*
X0344632Y0197310D01*
X0344472Y0197290D01*
X0344312Y0197274D01*
X0344152Y0197262D01*
X0343991Y0197254D01*
X0343830Y0197250D01*
X0343670Y0197250D01*
X0343509Y0197254D01*
X0343348Y0197262D01*
X0343188Y0197274D01*
X0343028Y0197290D01*
X0342868Y0197310D01*
X0342709Y0197334D01*
X0342551Y0197362D01*
X0342393Y0197393D01*
X0342237Y0197429D01*
X0342081Y0197468D01*
X0341926Y0197511D01*
X0341772Y0197558D01*
X0341619Y0197609D01*
X0341468Y0197664D01*
X0341318Y0197722D01*
X0341170Y0197784D01*
X0341023Y0197850D01*
X0340878Y0197919D01*
X0340735Y0197992D01*
X0340593Y0198068D01*
X0340454Y0198148D01*
X0340316Y0198231D01*
X0340181Y0198318D01*
X0340047Y0198408D01*
X0339916Y0198501D01*
X0339788Y0198597D01*
X0339662Y0198697D01*
X0339538Y0198800D01*
X0339417Y0198905D01*
X0339298Y0199014D01*
X0339182Y0199125D01*
X0339069Y0199240D01*
X0338959Y0199357D01*
X0338852Y0199477D01*
X0338748Y0199599D01*
X0338647Y0199724D01*
X0338549Y0199852D01*
X0338454Y0199982D01*
X0338362Y0200114D01*
X0338274Y0200248D01*
X0338189Y0200385D01*
X0338107Y0200523D01*
X0338029Y0200664D01*
X0337955Y0200806D01*
X0337884Y0200950D01*
X0337816Y0201096D01*
X0337753Y0201244D01*
X0337692Y0201393D01*
X0337636Y0201544D01*
X0337583Y0201696D01*
X0337534Y0201849D01*
X0337489Y0202003D01*
X0337448Y0202158D01*
X0337410Y0202315D01*
X0337377Y0202472D01*
X0337347Y0202630D01*
X0337321Y0202789D01*
X0337300Y0202948D01*
X0337282Y0203108D01*
X0337268Y0203268D01*
X0337258Y0203429D01*
X0337252Y0203589D01*
X0337250Y0203750D01*
X0359250Y0203750D02*
X0359252Y0203911D01*
X0359258Y0204071D01*
X0359268Y0204232D01*
X0359282Y0204392D01*
X0359300Y0204552D01*
X0359321Y0204711D01*
X0359347Y0204870D01*
X0359377Y0205028D01*
X0359410Y0205185D01*
X0359448Y0205342D01*
X0359489Y0205497D01*
X0359534Y0205651D01*
X0359583Y0205804D01*
X0359636Y0205956D01*
X0359692Y0206107D01*
X0359753Y0206256D01*
X0359816Y0206404D01*
X0359884Y0206550D01*
X0359955Y0206694D01*
X0360029Y0206836D01*
X0360107Y0206977D01*
X0360189Y0207115D01*
X0360274Y0207252D01*
X0360362Y0207386D01*
X0360454Y0207518D01*
X0360549Y0207648D01*
X0360647Y0207776D01*
X0360748Y0207901D01*
X0360852Y0208023D01*
X0360959Y0208143D01*
X0361069Y0208260D01*
X0361182Y0208375D01*
X0361298Y0208486D01*
X0361417Y0208595D01*
X0361538Y0208700D01*
X0361662Y0208803D01*
X0361788Y0208903D01*
X0361916Y0208999D01*
X0362047Y0209092D01*
X0362181Y0209182D01*
X0362316Y0209269D01*
X0362454Y0209352D01*
X0362593Y0209432D01*
X0362735Y0209508D01*
X0362878Y0209581D01*
X0363023Y0209650D01*
X0363170Y0209716D01*
X0363318Y0209778D01*
X0363468Y0209836D01*
X0363619Y0209891D01*
X0363772Y0209942D01*
X0363926Y0209989D01*
X0364081Y0210032D01*
X0364237Y0210071D01*
X0364393Y0210107D01*
X0364551Y0210138D01*
X0364709Y0210166D01*
X0364868Y0210190D01*
X0365028Y0210210D01*
X0365188Y0210226D01*
X0365348Y0210238D01*
X0365509Y0210246D01*
X0365670Y0210250D01*
X0365830Y0210250D01*
X0365991Y0210246D01*
X0366152Y0210238D01*
X0366312Y0210226D01*
X0366472Y0210210D01*
X0366632Y0210190D01*
X0366791Y0210166D01*
X0366949Y0210138D01*
X0367107Y0210107D01*
X0367263Y0210071D01*
X0367419Y0210032D01*
X0367574Y0209989D01*
X0367728Y0209942D01*
X0367881Y0209891D01*
X0368032Y0209836D01*
X0368182Y0209778D01*
X0368330Y0209716D01*
X0368477Y0209650D01*
X0368622Y0209581D01*
X0368765Y0209508D01*
X0368907Y0209432D01*
X0369046Y0209352D01*
X0369184Y0209269D01*
X0369319Y0209182D01*
X0369453Y0209092D01*
X0369584Y0208999D01*
X0369712Y0208903D01*
X0369838Y0208803D01*
X0369962Y0208700D01*
X0370083Y0208595D01*
X0370202Y0208486D01*
X0370318Y0208375D01*
X0370431Y0208260D01*
X0370541Y0208143D01*
X0370648Y0208023D01*
X0370752Y0207901D01*
X0370853Y0207776D01*
X0370951Y0207648D01*
X0371046Y0207518D01*
X0371138Y0207386D01*
X0371226Y0207252D01*
X0371311Y0207115D01*
X0371393Y0206977D01*
X0371471Y0206836D01*
X0371545Y0206694D01*
X0371616Y0206550D01*
X0371684Y0206404D01*
X0371747Y0206256D01*
X0371808Y0206107D01*
X0371864Y0205956D01*
X0371917Y0205804D01*
X0371966Y0205651D01*
X0372011Y0205497D01*
X0372052Y0205342D01*
X0372090Y0205185D01*
X0372123Y0205028D01*
X0372153Y0204870D01*
X0372179Y0204711D01*
X0372200Y0204552D01*
X0372218Y0204392D01*
X0372232Y0204232D01*
X0372242Y0204071D01*
X0372248Y0203911D01*
X0372250Y0203750D01*
X0372248Y0203589D01*
X0372242Y0203429D01*
X0372232Y0203268D01*
X0372218Y0203108D01*
X0372200Y0202948D01*
X0372179Y0202789D01*
X0372153Y0202630D01*
X0372123Y0202472D01*
X0372090Y0202315D01*
X0372052Y0202158D01*
X0372011Y0202003D01*
X0371966Y0201849D01*
X0371917Y0201696D01*
X0371864Y0201544D01*
X0371808Y0201393D01*
X0371747Y0201244D01*
X0371684Y0201096D01*
X0371616Y0200950D01*
X0371545Y0200806D01*
X0371471Y0200664D01*
X0371393Y0200523D01*
X0371311Y0200385D01*
X0371226Y0200248D01*
X0371138Y0200114D01*
X0371046Y0199982D01*
X0370951Y0199852D01*
X0370853Y0199724D01*
X0370752Y0199599D01*
X0370648Y0199477D01*
X0370541Y0199357D01*
X0370431Y0199240D01*
X0370318Y0199125D01*
X0370202Y0199014D01*
X0370083Y0198905D01*
X0369962Y0198800D01*
X0369838Y0198697D01*
X0369712Y0198597D01*
X0369584Y0198501D01*
X0369453Y0198408D01*
X0369319Y0198318D01*
X0369184Y0198231D01*
X0369046Y0198148D01*
X0368907Y0198068D01*
X0368765Y0197992D01*
X0368622Y0197919D01*
X0368477Y0197850D01*
X0368330Y0197784D01*
X0368182Y0197722D01*
X0368032Y0197664D01*
X0367881Y0197609D01*
X0367728Y0197558D01*
X0367574Y0197511D01*
X0367419Y0197468D01*
X0367263Y0197429D01*
X0367107Y0197393D01*
X0366949Y0197362D01*
X0366791Y0197334D01*
X0366632Y0197310D01*
X0366472Y0197290D01*
X0366312Y0197274D01*
X0366152Y0197262D01*
X0365991Y0197254D01*
X0365830Y0197250D01*
X0365670Y0197250D01*
X0365509Y0197254D01*
X0365348Y0197262D01*
X0365188Y0197274D01*
X0365028Y0197290D01*
X0364868Y0197310D01*
X0364709Y0197334D01*
X0364551Y0197362D01*
X0364393Y0197393D01*
X0364237Y0197429D01*
X0364081Y0197468D01*
X0363926Y0197511D01*
X0363772Y0197558D01*
X0363619Y0197609D01*
X0363468Y0197664D01*
X0363318Y0197722D01*
X0363170Y0197784D01*
X0363023Y0197850D01*
X0362878Y0197919D01*
X0362735Y0197992D01*
X0362593Y0198068D01*
X0362454Y0198148D01*
X0362316Y0198231D01*
X0362181Y0198318D01*
X0362047Y0198408D01*
X0361916Y0198501D01*
X0361788Y0198597D01*
X0361662Y0198697D01*
X0361538Y0198800D01*
X0361417Y0198905D01*
X0361298Y0199014D01*
X0361182Y0199125D01*
X0361069Y0199240D01*
X0360959Y0199357D01*
X0360852Y0199477D01*
X0360748Y0199599D01*
X0360647Y0199724D01*
X0360549Y0199852D01*
X0360454Y0199982D01*
X0360362Y0200114D01*
X0360274Y0200248D01*
X0360189Y0200385D01*
X0360107Y0200523D01*
X0360029Y0200664D01*
X0359955Y0200806D01*
X0359884Y0200950D01*
X0359816Y0201096D01*
X0359753Y0201244D01*
X0359692Y0201393D01*
X0359636Y0201544D01*
X0359583Y0201696D01*
X0359534Y0201849D01*
X0359489Y0202003D01*
X0359448Y0202158D01*
X0359410Y0202315D01*
X0359377Y0202472D01*
X0359347Y0202630D01*
X0359321Y0202789D01*
X0359300Y0202948D01*
X0359282Y0203108D01*
X0359268Y0203268D01*
X0359258Y0203429D01*
X0359252Y0203589D01*
X0359250Y0203750D01*
X0359250Y0225750D02*
X0359252Y0225911D01*
X0359258Y0226071D01*
X0359268Y0226232D01*
X0359282Y0226392D01*
X0359300Y0226552D01*
X0359321Y0226711D01*
X0359347Y0226870D01*
X0359377Y0227028D01*
X0359410Y0227185D01*
X0359448Y0227342D01*
X0359489Y0227497D01*
X0359534Y0227651D01*
X0359583Y0227804D01*
X0359636Y0227956D01*
X0359692Y0228107D01*
X0359753Y0228256D01*
X0359816Y0228404D01*
X0359884Y0228550D01*
X0359955Y0228694D01*
X0360029Y0228836D01*
X0360107Y0228977D01*
X0360189Y0229115D01*
X0360274Y0229252D01*
X0360362Y0229386D01*
X0360454Y0229518D01*
X0360549Y0229648D01*
X0360647Y0229776D01*
X0360748Y0229901D01*
X0360852Y0230023D01*
X0360959Y0230143D01*
X0361069Y0230260D01*
X0361182Y0230375D01*
X0361298Y0230486D01*
X0361417Y0230595D01*
X0361538Y0230700D01*
X0361662Y0230803D01*
X0361788Y0230903D01*
X0361916Y0230999D01*
X0362047Y0231092D01*
X0362181Y0231182D01*
X0362316Y0231269D01*
X0362454Y0231352D01*
X0362593Y0231432D01*
X0362735Y0231508D01*
X0362878Y0231581D01*
X0363023Y0231650D01*
X0363170Y0231716D01*
X0363318Y0231778D01*
X0363468Y0231836D01*
X0363619Y0231891D01*
X0363772Y0231942D01*
X0363926Y0231989D01*
X0364081Y0232032D01*
X0364237Y0232071D01*
X0364393Y0232107D01*
X0364551Y0232138D01*
X0364709Y0232166D01*
X0364868Y0232190D01*
X0365028Y0232210D01*
X0365188Y0232226D01*
X0365348Y0232238D01*
X0365509Y0232246D01*
X0365670Y0232250D01*
X0365830Y0232250D01*
X0365991Y0232246D01*
X0366152Y0232238D01*
X0366312Y0232226D01*
X0366472Y0232210D01*
X0366632Y0232190D01*
X0366791Y0232166D01*
X0366949Y0232138D01*
X0367107Y0232107D01*
X0367263Y0232071D01*
X0367419Y0232032D01*
X0367574Y0231989D01*
X0367728Y0231942D01*
X0367881Y0231891D01*
X0368032Y0231836D01*
X0368182Y0231778D01*
X0368330Y0231716D01*
X0368477Y0231650D01*
X0368622Y0231581D01*
X0368765Y0231508D01*
X0368907Y0231432D01*
X0369046Y0231352D01*
X0369184Y0231269D01*
X0369319Y0231182D01*
X0369453Y0231092D01*
X0369584Y0230999D01*
X0369712Y0230903D01*
X0369838Y0230803D01*
X0369962Y0230700D01*
X0370083Y0230595D01*
X0370202Y0230486D01*
X0370318Y0230375D01*
X0370431Y0230260D01*
X0370541Y0230143D01*
X0370648Y0230023D01*
X0370752Y0229901D01*
X0370853Y0229776D01*
X0370951Y0229648D01*
X0371046Y0229518D01*
X0371138Y0229386D01*
X0371226Y0229252D01*
X0371311Y0229115D01*
X0371393Y0228977D01*
X0371471Y0228836D01*
X0371545Y0228694D01*
X0371616Y0228550D01*
X0371684Y0228404D01*
X0371747Y0228256D01*
X0371808Y0228107D01*
X0371864Y0227956D01*
X0371917Y0227804D01*
X0371966Y0227651D01*
X0372011Y0227497D01*
X0372052Y0227342D01*
X0372090Y0227185D01*
X0372123Y0227028D01*
X0372153Y0226870D01*
X0372179Y0226711D01*
X0372200Y0226552D01*
X0372218Y0226392D01*
X0372232Y0226232D01*
X0372242Y0226071D01*
X0372248Y0225911D01*
X0372250Y0225750D01*
X0372248Y0225589D01*
X0372242Y0225429D01*
X0372232Y0225268D01*
X0372218Y0225108D01*
X0372200Y0224948D01*
X0372179Y0224789D01*
X0372153Y0224630D01*
X0372123Y0224472D01*
X0372090Y0224315D01*
X0372052Y0224158D01*
X0372011Y0224003D01*
X0371966Y0223849D01*
X0371917Y0223696D01*
X0371864Y0223544D01*
X0371808Y0223393D01*
X0371747Y0223244D01*
X0371684Y0223096D01*
X0371616Y0222950D01*
X0371545Y0222806D01*
X0371471Y0222664D01*
X0371393Y0222523D01*
X0371311Y0222385D01*
X0371226Y0222248D01*
X0371138Y0222114D01*
X0371046Y0221982D01*
X0370951Y0221852D01*
X0370853Y0221724D01*
X0370752Y0221599D01*
X0370648Y0221477D01*
X0370541Y0221357D01*
X0370431Y0221240D01*
X0370318Y0221125D01*
X0370202Y0221014D01*
X0370083Y0220905D01*
X0369962Y0220800D01*
X0369838Y0220697D01*
X0369712Y0220597D01*
X0369584Y0220501D01*
X0369453Y0220408D01*
X0369319Y0220318D01*
X0369184Y0220231D01*
X0369046Y0220148D01*
X0368907Y0220068D01*
X0368765Y0219992D01*
X0368622Y0219919D01*
X0368477Y0219850D01*
X0368330Y0219784D01*
X0368182Y0219722D01*
X0368032Y0219664D01*
X0367881Y0219609D01*
X0367728Y0219558D01*
X0367574Y0219511D01*
X0367419Y0219468D01*
X0367263Y0219429D01*
X0367107Y0219393D01*
X0366949Y0219362D01*
X0366791Y0219334D01*
X0366632Y0219310D01*
X0366472Y0219290D01*
X0366312Y0219274D01*
X0366152Y0219262D01*
X0365991Y0219254D01*
X0365830Y0219250D01*
X0365670Y0219250D01*
X0365509Y0219254D01*
X0365348Y0219262D01*
X0365188Y0219274D01*
X0365028Y0219290D01*
X0364868Y0219310D01*
X0364709Y0219334D01*
X0364551Y0219362D01*
X0364393Y0219393D01*
X0364237Y0219429D01*
X0364081Y0219468D01*
X0363926Y0219511D01*
X0363772Y0219558D01*
X0363619Y0219609D01*
X0363468Y0219664D01*
X0363318Y0219722D01*
X0363170Y0219784D01*
X0363023Y0219850D01*
X0362878Y0219919D01*
X0362735Y0219992D01*
X0362593Y0220068D01*
X0362454Y0220148D01*
X0362316Y0220231D01*
X0362181Y0220318D01*
X0362047Y0220408D01*
X0361916Y0220501D01*
X0361788Y0220597D01*
X0361662Y0220697D01*
X0361538Y0220800D01*
X0361417Y0220905D01*
X0361298Y0221014D01*
X0361182Y0221125D01*
X0361069Y0221240D01*
X0360959Y0221357D01*
X0360852Y0221477D01*
X0360748Y0221599D01*
X0360647Y0221724D01*
X0360549Y0221852D01*
X0360454Y0221982D01*
X0360362Y0222114D01*
X0360274Y0222248D01*
X0360189Y0222385D01*
X0360107Y0222523D01*
X0360029Y0222664D01*
X0359955Y0222806D01*
X0359884Y0222950D01*
X0359816Y0223096D01*
X0359753Y0223244D01*
X0359692Y0223393D01*
X0359636Y0223544D01*
X0359583Y0223696D01*
X0359534Y0223849D01*
X0359489Y0224003D01*
X0359448Y0224158D01*
X0359410Y0224315D01*
X0359377Y0224472D01*
X0359347Y0224630D01*
X0359321Y0224789D01*
X0359300Y0224948D01*
X0359282Y0225108D01*
X0359268Y0225268D01*
X0359258Y0225429D01*
X0359252Y0225589D01*
X0359250Y0225750D01*
X0337250Y0225750D02*
X0337252Y0225911D01*
X0337258Y0226071D01*
X0337268Y0226232D01*
X0337282Y0226392D01*
X0337300Y0226552D01*
X0337321Y0226711D01*
X0337347Y0226870D01*
X0337377Y0227028D01*
X0337410Y0227185D01*
X0337448Y0227342D01*
X0337489Y0227497D01*
X0337534Y0227651D01*
X0337583Y0227804D01*
X0337636Y0227956D01*
X0337692Y0228107D01*
X0337753Y0228256D01*
X0337816Y0228404D01*
X0337884Y0228550D01*
X0337955Y0228694D01*
X0338029Y0228836D01*
X0338107Y0228977D01*
X0338189Y0229115D01*
X0338274Y0229252D01*
X0338362Y0229386D01*
X0338454Y0229518D01*
X0338549Y0229648D01*
X0338647Y0229776D01*
X0338748Y0229901D01*
X0338852Y0230023D01*
X0338959Y0230143D01*
X0339069Y0230260D01*
X0339182Y0230375D01*
X0339298Y0230486D01*
X0339417Y0230595D01*
X0339538Y0230700D01*
X0339662Y0230803D01*
X0339788Y0230903D01*
X0339916Y0230999D01*
X0340047Y0231092D01*
X0340181Y0231182D01*
X0340316Y0231269D01*
X0340454Y0231352D01*
X0340593Y0231432D01*
X0340735Y0231508D01*
X0340878Y0231581D01*
X0341023Y0231650D01*
X0341170Y0231716D01*
X0341318Y0231778D01*
X0341468Y0231836D01*
X0341619Y0231891D01*
X0341772Y0231942D01*
X0341926Y0231989D01*
X0342081Y0232032D01*
X0342237Y0232071D01*
X0342393Y0232107D01*
X0342551Y0232138D01*
X0342709Y0232166D01*
X0342868Y0232190D01*
X0343028Y0232210D01*
X0343188Y0232226D01*
X0343348Y0232238D01*
X0343509Y0232246D01*
X0343670Y0232250D01*
X0343830Y0232250D01*
X0343991Y0232246D01*
X0344152Y0232238D01*
X0344312Y0232226D01*
X0344472Y0232210D01*
X0344632Y0232190D01*
X0344791Y0232166D01*
X0344949Y0232138D01*
X0345107Y0232107D01*
X0345263Y0232071D01*
X0345419Y0232032D01*
X0345574Y0231989D01*
X0345728Y0231942D01*
X0345881Y0231891D01*
X0346032Y0231836D01*
X0346182Y0231778D01*
X0346330Y0231716D01*
X0346477Y0231650D01*
X0346622Y0231581D01*
X0346765Y0231508D01*
X0346907Y0231432D01*
X0347046Y0231352D01*
X0347184Y0231269D01*
X0347319Y0231182D01*
X0347453Y0231092D01*
X0347584Y0230999D01*
X0347712Y0230903D01*
X0347838Y0230803D01*
X0347962Y0230700D01*
X0348083Y0230595D01*
X0348202Y0230486D01*
X0348318Y0230375D01*
X0348431Y0230260D01*
X0348541Y0230143D01*
X0348648Y0230023D01*
X0348752Y0229901D01*
X0348853Y0229776D01*
X0348951Y0229648D01*
X0349046Y0229518D01*
X0349138Y0229386D01*
X0349226Y0229252D01*
X0349311Y0229115D01*
X0349393Y0228977D01*
X0349471Y0228836D01*
X0349545Y0228694D01*
X0349616Y0228550D01*
X0349684Y0228404D01*
X0349747Y0228256D01*
X0349808Y0228107D01*
X0349864Y0227956D01*
X0349917Y0227804D01*
X0349966Y0227651D01*
X0350011Y0227497D01*
X0350052Y0227342D01*
X0350090Y0227185D01*
X0350123Y0227028D01*
X0350153Y0226870D01*
X0350179Y0226711D01*
X0350200Y0226552D01*
X0350218Y0226392D01*
X0350232Y0226232D01*
X0350242Y0226071D01*
X0350248Y0225911D01*
X0350250Y0225750D01*
X0350248Y0225589D01*
X0350242Y0225429D01*
X0350232Y0225268D01*
X0350218Y0225108D01*
X0350200Y0224948D01*
X0350179Y0224789D01*
X0350153Y0224630D01*
X0350123Y0224472D01*
X0350090Y0224315D01*
X0350052Y0224158D01*
X0350011Y0224003D01*
X0349966Y0223849D01*
X0349917Y0223696D01*
X0349864Y0223544D01*
X0349808Y0223393D01*
X0349747Y0223244D01*
X0349684Y0223096D01*
X0349616Y0222950D01*
X0349545Y0222806D01*
X0349471Y0222664D01*
X0349393Y0222523D01*
X0349311Y0222385D01*
X0349226Y0222248D01*
X0349138Y0222114D01*
X0349046Y0221982D01*
X0348951Y0221852D01*
X0348853Y0221724D01*
X0348752Y0221599D01*
X0348648Y0221477D01*
X0348541Y0221357D01*
X0348431Y0221240D01*
X0348318Y0221125D01*
X0348202Y0221014D01*
X0348083Y0220905D01*
X0347962Y0220800D01*
X0347838Y0220697D01*
X0347712Y0220597D01*
X0347584Y0220501D01*
X0347453Y0220408D01*
X0347319Y0220318D01*
X0347184Y0220231D01*
X0347046Y0220148D01*
X0346907Y0220068D01*
X0346765Y0219992D01*
X0346622Y0219919D01*
X0346477Y0219850D01*
X0346330Y0219784D01*
X0346182Y0219722D01*
X0346032Y0219664D01*
X0345881Y0219609D01*
X0345728Y0219558D01*
X0345574Y0219511D01*
X0345419Y0219468D01*
X0345263Y0219429D01*
X0345107Y0219393D01*
X0344949Y0219362D01*
X0344791Y0219334D01*
X0344632Y0219310D01*
X0344472Y0219290D01*
X0344312Y0219274D01*
X0344152Y0219262D01*
X0343991Y0219254D01*
X0343830Y0219250D01*
X0343670Y0219250D01*
X0343509Y0219254D01*
X0343348Y0219262D01*
X0343188Y0219274D01*
X0343028Y0219290D01*
X0342868Y0219310D01*
X0342709Y0219334D01*
X0342551Y0219362D01*
X0342393Y0219393D01*
X0342237Y0219429D01*
X0342081Y0219468D01*
X0341926Y0219511D01*
X0341772Y0219558D01*
X0341619Y0219609D01*
X0341468Y0219664D01*
X0341318Y0219722D01*
X0341170Y0219784D01*
X0341023Y0219850D01*
X0340878Y0219919D01*
X0340735Y0219992D01*
X0340593Y0220068D01*
X0340454Y0220148D01*
X0340316Y0220231D01*
X0340181Y0220318D01*
X0340047Y0220408D01*
X0339916Y0220501D01*
X0339788Y0220597D01*
X0339662Y0220697D01*
X0339538Y0220800D01*
X0339417Y0220905D01*
X0339298Y0221014D01*
X0339182Y0221125D01*
X0339069Y0221240D01*
X0338959Y0221357D01*
X0338852Y0221477D01*
X0338748Y0221599D01*
X0338647Y0221724D01*
X0338549Y0221852D01*
X0338454Y0221982D01*
X0338362Y0222114D01*
X0338274Y0222248D01*
X0338189Y0222385D01*
X0338107Y0222523D01*
X0338029Y0222664D01*
X0337955Y0222806D01*
X0337884Y0222950D01*
X0337816Y0223096D01*
X0337753Y0223244D01*
X0337692Y0223393D01*
X0337636Y0223544D01*
X0337583Y0223696D01*
X0337534Y0223849D01*
X0337489Y0224003D01*
X0337448Y0224158D01*
X0337410Y0224315D01*
X0337377Y0224472D01*
X0337347Y0224630D01*
X0337321Y0224789D01*
X0337300Y0224948D01*
X0337282Y0225108D01*
X0337268Y0225268D01*
X0337258Y0225429D01*
X0337252Y0225589D01*
X0337250Y0225750D01*
X0337250Y0390750D02*
X0337252Y0390911D01*
X0337258Y0391071D01*
X0337268Y0391232D01*
X0337282Y0391392D01*
X0337300Y0391552D01*
X0337321Y0391711D01*
X0337347Y0391870D01*
X0337377Y0392028D01*
X0337410Y0392185D01*
X0337448Y0392342D01*
X0337489Y0392497D01*
X0337534Y0392651D01*
X0337583Y0392804D01*
X0337636Y0392956D01*
X0337692Y0393107D01*
X0337753Y0393256D01*
X0337816Y0393404D01*
X0337884Y0393550D01*
X0337955Y0393694D01*
X0338029Y0393836D01*
X0338107Y0393977D01*
X0338189Y0394115D01*
X0338274Y0394252D01*
X0338362Y0394386D01*
X0338454Y0394518D01*
X0338549Y0394648D01*
X0338647Y0394776D01*
X0338748Y0394901D01*
X0338852Y0395023D01*
X0338959Y0395143D01*
X0339069Y0395260D01*
X0339182Y0395375D01*
X0339298Y0395486D01*
X0339417Y0395595D01*
X0339538Y0395700D01*
X0339662Y0395803D01*
X0339788Y0395903D01*
X0339916Y0395999D01*
X0340047Y0396092D01*
X0340181Y0396182D01*
X0340316Y0396269D01*
X0340454Y0396352D01*
X0340593Y0396432D01*
X0340735Y0396508D01*
X0340878Y0396581D01*
X0341023Y0396650D01*
X0341170Y0396716D01*
X0341318Y0396778D01*
X0341468Y0396836D01*
X0341619Y0396891D01*
X0341772Y0396942D01*
X0341926Y0396989D01*
X0342081Y0397032D01*
X0342237Y0397071D01*
X0342393Y0397107D01*
X0342551Y0397138D01*
X0342709Y0397166D01*
X0342868Y0397190D01*
X0343028Y0397210D01*
X0343188Y0397226D01*
X0343348Y0397238D01*
X0343509Y0397246D01*
X0343670Y0397250D01*
X0343830Y0397250D01*
X0343991Y0397246D01*
X0344152Y0397238D01*
X0344312Y0397226D01*
X0344472Y0397210D01*
X0344632Y0397190D01*
X0344791Y0397166D01*
X0344949Y0397138D01*
X0345107Y0397107D01*
X0345263Y0397071D01*
X0345419Y0397032D01*
X0345574Y0396989D01*
X0345728Y0396942D01*
X0345881Y0396891D01*
X0346032Y0396836D01*
X0346182Y0396778D01*
X0346330Y0396716D01*
X0346477Y0396650D01*
X0346622Y0396581D01*
X0346765Y0396508D01*
X0346907Y0396432D01*
X0347046Y0396352D01*
X0347184Y0396269D01*
X0347319Y0396182D01*
X0347453Y0396092D01*
X0347584Y0395999D01*
X0347712Y0395903D01*
X0347838Y0395803D01*
X0347962Y0395700D01*
X0348083Y0395595D01*
X0348202Y0395486D01*
X0348318Y0395375D01*
X0348431Y0395260D01*
X0348541Y0395143D01*
X0348648Y0395023D01*
X0348752Y0394901D01*
X0348853Y0394776D01*
X0348951Y0394648D01*
X0349046Y0394518D01*
X0349138Y0394386D01*
X0349226Y0394252D01*
X0349311Y0394115D01*
X0349393Y0393977D01*
X0349471Y0393836D01*
X0349545Y0393694D01*
X0349616Y0393550D01*
X0349684Y0393404D01*
X0349747Y0393256D01*
X0349808Y0393107D01*
X0349864Y0392956D01*
X0349917Y0392804D01*
X0349966Y0392651D01*
X0350011Y0392497D01*
X0350052Y0392342D01*
X0350090Y0392185D01*
X0350123Y0392028D01*
X0350153Y0391870D01*
X0350179Y0391711D01*
X0350200Y0391552D01*
X0350218Y0391392D01*
X0350232Y0391232D01*
X0350242Y0391071D01*
X0350248Y0390911D01*
X0350250Y0390750D01*
X0350248Y0390589D01*
X0350242Y0390429D01*
X0350232Y0390268D01*
X0350218Y0390108D01*
X0350200Y0389948D01*
X0350179Y0389789D01*
X0350153Y0389630D01*
X0350123Y0389472D01*
X0350090Y0389315D01*
X0350052Y0389158D01*
X0350011Y0389003D01*
X0349966Y0388849D01*
X0349917Y0388696D01*
X0349864Y0388544D01*
X0349808Y0388393D01*
X0349747Y0388244D01*
X0349684Y0388096D01*
X0349616Y0387950D01*
X0349545Y0387806D01*
X0349471Y0387664D01*
X0349393Y0387523D01*
X0349311Y0387385D01*
X0349226Y0387248D01*
X0349138Y0387114D01*
X0349046Y0386982D01*
X0348951Y0386852D01*
X0348853Y0386724D01*
X0348752Y0386599D01*
X0348648Y0386477D01*
X0348541Y0386357D01*
X0348431Y0386240D01*
X0348318Y0386125D01*
X0348202Y0386014D01*
X0348083Y0385905D01*
X0347962Y0385800D01*
X0347838Y0385697D01*
X0347712Y0385597D01*
X0347584Y0385501D01*
X0347453Y0385408D01*
X0347319Y0385318D01*
X0347184Y0385231D01*
X0347046Y0385148D01*
X0346907Y0385068D01*
X0346765Y0384992D01*
X0346622Y0384919D01*
X0346477Y0384850D01*
X0346330Y0384784D01*
X0346182Y0384722D01*
X0346032Y0384664D01*
X0345881Y0384609D01*
X0345728Y0384558D01*
X0345574Y0384511D01*
X0345419Y0384468D01*
X0345263Y0384429D01*
X0345107Y0384393D01*
X0344949Y0384362D01*
X0344791Y0384334D01*
X0344632Y0384310D01*
X0344472Y0384290D01*
X0344312Y0384274D01*
X0344152Y0384262D01*
X0343991Y0384254D01*
X0343830Y0384250D01*
X0343670Y0384250D01*
X0343509Y0384254D01*
X0343348Y0384262D01*
X0343188Y0384274D01*
X0343028Y0384290D01*
X0342868Y0384310D01*
X0342709Y0384334D01*
X0342551Y0384362D01*
X0342393Y0384393D01*
X0342237Y0384429D01*
X0342081Y0384468D01*
X0341926Y0384511D01*
X0341772Y0384558D01*
X0341619Y0384609D01*
X0341468Y0384664D01*
X0341318Y0384722D01*
X0341170Y0384784D01*
X0341023Y0384850D01*
X0340878Y0384919D01*
X0340735Y0384992D01*
X0340593Y0385068D01*
X0340454Y0385148D01*
X0340316Y0385231D01*
X0340181Y0385318D01*
X0340047Y0385408D01*
X0339916Y0385501D01*
X0339788Y0385597D01*
X0339662Y0385697D01*
X0339538Y0385800D01*
X0339417Y0385905D01*
X0339298Y0386014D01*
X0339182Y0386125D01*
X0339069Y0386240D01*
X0338959Y0386357D01*
X0338852Y0386477D01*
X0338748Y0386599D01*
X0338647Y0386724D01*
X0338549Y0386852D01*
X0338454Y0386982D01*
X0338362Y0387114D01*
X0338274Y0387248D01*
X0338189Y0387385D01*
X0338107Y0387523D01*
X0338029Y0387664D01*
X0337955Y0387806D01*
X0337884Y0387950D01*
X0337816Y0388096D01*
X0337753Y0388244D01*
X0337692Y0388393D01*
X0337636Y0388544D01*
X0337583Y0388696D01*
X0337534Y0388849D01*
X0337489Y0389003D01*
X0337448Y0389158D01*
X0337410Y0389315D01*
X0337377Y0389472D01*
X0337347Y0389630D01*
X0337321Y0389789D01*
X0337300Y0389948D01*
X0337282Y0390108D01*
X0337268Y0390268D01*
X0337258Y0390429D01*
X0337252Y0390589D01*
X0337250Y0390750D01*
X0359250Y0390750D02*
X0359252Y0390911D01*
X0359258Y0391071D01*
X0359268Y0391232D01*
X0359282Y0391392D01*
X0359300Y0391552D01*
X0359321Y0391711D01*
X0359347Y0391870D01*
X0359377Y0392028D01*
X0359410Y0392185D01*
X0359448Y0392342D01*
X0359489Y0392497D01*
X0359534Y0392651D01*
X0359583Y0392804D01*
X0359636Y0392956D01*
X0359692Y0393107D01*
X0359753Y0393256D01*
X0359816Y0393404D01*
X0359884Y0393550D01*
X0359955Y0393694D01*
X0360029Y0393836D01*
X0360107Y0393977D01*
X0360189Y0394115D01*
X0360274Y0394252D01*
X0360362Y0394386D01*
X0360454Y0394518D01*
X0360549Y0394648D01*
X0360647Y0394776D01*
X0360748Y0394901D01*
X0360852Y0395023D01*
X0360959Y0395143D01*
X0361069Y0395260D01*
X0361182Y0395375D01*
X0361298Y0395486D01*
X0361417Y0395595D01*
X0361538Y0395700D01*
X0361662Y0395803D01*
X0361788Y0395903D01*
X0361916Y0395999D01*
X0362047Y0396092D01*
X0362181Y0396182D01*
X0362316Y0396269D01*
X0362454Y0396352D01*
X0362593Y0396432D01*
X0362735Y0396508D01*
X0362878Y0396581D01*
X0363023Y0396650D01*
X0363170Y0396716D01*
X0363318Y0396778D01*
X0363468Y0396836D01*
X0363619Y0396891D01*
X0363772Y0396942D01*
X0363926Y0396989D01*
X0364081Y0397032D01*
X0364237Y0397071D01*
X0364393Y0397107D01*
X0364551Y0397138D01*
X0364709Y0397166D01*
X0364868Y0397190D01*
X0365028Y0397210D01*
X0365188Y0397226D01*
X0365348Y0397238D01*
X0365509Y0397246D01*
X0365670Y0397250D01*
X0365830Y0397250D01*
X0365991Y0397246D01*
X0366152Y0397238D01*
X0366312Y0397226D01*
X0366472Y0397210D01*
X0366632Y0397190D01*
X0366791Y0397166D01*
X0366949Y0397138D01*
X0367107Y0397107D01*
X0367263Y0397071D01*
X0367419Y0397032D01*
X0367574Y0396989D01*
X0367728Y0396942D01*
X0367881Y0396891D01*
X0368032Y0396836D01*
X0368182Y0396778D01*
X0368330Y0396716D01*
X0368477Y0396650D01*
X0368622Y0396581D01*
X0368765Y0396508D01*
X0368907Y0396432D01*
X0369046Y0396352D01*
X0369184Y0396269D01*
X0369319Y0396182D01*
X0369453Y0396092D01*
X0369584Y0395999D01*
X0369712Y0395903D01*
X0369838Y0395803D01*
X0369962Y0395700D01*
X0370083Y0395595D01*
X0370202Y0395486D01*
X0370318Y0395375D01*
X0370431Y0395260D01*
X0370541Y0395143D01*
X0370648Y0395023D01*
X0370752Y0394901D01*
X0370853Y0394776D01*
X0370951Y0394648D01*
X0371046Y0394518D01*
X0371138Y0394386D01*
X0371226Y0394252D01*
X0371311Y0394115D01*
X0371393Y0393977D01*
X0371471Y0393836D01*
X0371545Y0393694D01*
X0371616Y0393550D01*
X0371684Y0393404D01*
X0371747Y0393256D01*
X0371808Y0393107D01*
X0371864Y0392956D01*
X0371917Y0392804D01*
X0371966Y0392651D01*
X0372011Y0392497D01*
X0372052Y0392342D01*
X0372090Y0392185D01*
X0372123Y0392028D01*
X0372153Y0391870D01*
X0372179Y0391711D01*
X0372200Y0391552D01*
X0372218Y0391392D01*
X0372232Y0391232D01*
X0372242Y0391071D01*
X0372248Y0390911D01*
X0372250Y0390750D01*
X0372248Y0390589D01*
X0372242Y0390429D01*
X0372232Y0390268D01*
X0372218Y0390108D01*
X0372200Y0389948D01*
X0372179Y0389789D01*
X0372153Y0389630D01*
X0372123Y0389472D01*
X0372090Y0389315D01*
X0372052Y0389158D01*
X0372011Y0389003D01*
X0371966Y0388849D01*
X0371917Y0388696D01*
X0371864Y0388544D01*
X0371808Y0388393D01*
X0371747Y0388244D01*
X0371684Y0388096D01*
X0371616Y0387950D01*
X0371545Y0387806D01*
X0371471Y0387664D01*
X0371393Y0387523D01*
X0371311Y0387385D01*
X0371226Y0387248D01*
X0371138Y0387114D01*
X0371046Y0386982D01*
X0370951Y0386852D01*
X0370853Y0386724D01*
X0370752Y0386599D01*
X0370648Y0386477D01*
X0370541Y0386357D01*
X0370431Y0386240D01*
X0370318Y0386125D01*
X0370202Y0386014D01*
X0370083Y0385905D01*
X0369962Y0385800D01*
X0369838Y0385697D01*
X0369712Y0385597D01*
X0369584Y0385501D01*
X0369453Y0385408D01*
X0369319Y0385318D01*
X0369184Y0385231D01*
X0369046Y0385148D01*
X0368907Y0385068D01*
X0368765Y0384992D01*
X0368622Y0384919D01*
X0368477Y0384850D01*
X0368330Y0384784D01*
X0368182Y0384722D01*
X0368032Y0384664D01*
X0367881Y0384609D01*
X0367728Y0384558D01*
X0367574Y0384511D01*
X0367419Y0384468D01*
X0367263Y0384429D01*
X0367107Y0384393D01*
X0366949Y0384362D01*
X0366791Y0384334D01*
X0366632Y0384310D01*
X0366472Y0384290D01*
X0366312Y0384274D01*
X0366152Y0384262D01*
X0365991Y0384254D01*
X0365830Y0384250D01*
X0365670Y0384250D01*
X0365509Y0384254D01*
X0365348Y0384262D01*
X0365188Y0384274D01*
X0365028Y0384290D01*
X0364868Y0384310D01*
X0364709Y0384334D01*
X0364551Y0384362D01*
X0364393Y0384393D01*
X0364237Y0384429D01*
X0364081Y0384468D01*
X0363926Y0384511D01*
X0363772Y0384558D01*
X0363619Y0384609D01*
X0363468Y0384664D01*
X0363318Y0384722D01*
X0363170Y0384784D01*
X0363023Y0384850D01*
X0362878Y0384919D01*
X0362735Y0384992D01*
X0362593Y0385068D01*
X0362454Y0385148D01*
X0362316Y0385231D01*
X0362181Y0385318D01*
X0362047Y0385408D01*
X0361916Y0385501D01*
X0361788Y0385597D01*
X0361662Y0385697D01*
X0361538Y0385800D01*
X0361417Y0385905D01*
X0361298Y0386014D01*
X0361182Y0386125D01*
X0361069Y0386240D01*
X0360959Y0386357D01*
X0360852Y0386477D01*
X0360748Y0386599D01*
X0360647Y0386724D01*
X0360549Y0386852D01*
X0360454Y0386982D01*
X0360362Y0387114D01*
X0360274Y0387248D01*
X0360189Y0387385D01*
X0360107Y0387523D01*
X0360029Y0387664D01*
X0359955Y0387806D01*
X0359884Y0387950D01*
X0359816Y0388096D01*
X0359753Y0388244D01*
X0359692Y0388393D01*
X0359636Y0388544D01*
X0359583Y0388696D01*
X0359534Y0388849D01*
X0359489Y0389003D01*
X0359448Y0389158D01*
X0359410Y0389315D01*
X0359377Y0389472D01*
X0359347Y0389630D01*
X0359321Y0389789D01*
X0359300Y0389948D01*
X0359282Y0390108D01*
X0359268Y0390268D01*
X0359258Y0390429D01*
X0359252Y0390589D01*
X0359250Y0390750D01*
X0032250Y0390750D02*
X0032252Y0390911D01*
X0032258Y0391071D01*
X0032268Y0391232D01*
X0032282Y0391392D01*
X0032300Y0391552D01*
X0032321Y0391711D01*
X0032347Y0391870D01*
X0032377Y0392028D01*
X0032410Y0392185D01*
X0032448Y0392342D01*
X0032489Y0392497D01*
X0032534Y0392651D01*
X0032583Y0392804D01*
X0032636Y0392956D01*
X0032692Y0393107D01*
X0032753Y0393256D01*
X0032816Y0393404D01*
X0032884Y0393550D01*
X0032955Y0393694D01*
X0033029Y0393836D01*
X0033107Y0393977D01*
X0033189Y0394115D01*
X0033274Y0394252D01*
X0033362Y0394386D01*
X0033454Y0394518D01*
X0033549Y0394648D01*
X0033647Y0394776D01*
X0033748Y0394901D01*
X0033852Y0395023D01*
X0033959Y0395143D01*
X0034069Y0395260D01*
X0034182Y0395375D01*
X0034298Y0395486D01*
X0034417Y0395595D01*
X0034538Y0395700D01*
X0034662Y0395803D01*
X0034788Y0395903D01*
X0034916Y0395999D01*
X0035047Y0396092D01*
X0035181Y0396182D01*
X0035316Y0396269D01*
X0035454Y0396352D01*
X0035593Y0396432D01*
X0035735Y0396508D01*
X0035878Y0396581D01*
X0036023Y0396650D01*
X0036170Y0396716D01*
X0036318Y0396778D01*
X0036468Y0396836D01*
X0036619Y0396891D01*
X0036772Y0396942D01*
X0036926Y0396989D01*
X0037081Y0397032D01*
X0037237Y0397071D01*
X0037393Y0397107D01*
X0037551Y0397138D01*
X0037709Y0397166D01*
X0037868Y0397190D01*
X0038028Y0397210D01*
X0038188Y0397226D01*
X0038348Y0397238D01*
X0038509Y0397246D01*
X0038670Y0397250D01*
X0038830Y0397250D01*
X0038991Y0397246D01*
X0039152Y0397238D01*
X0039312Y0397226D01*
X0039472Y0397210D01*
X0039632Y0397190D01*
X0039791Y0397166D01*
X0039949Y0397138D01*
X0040107Y0397107D01*
X0040263Y0397071D01*
X0040419Y0397032D01*
X0040574Y0396989D01*
X0040728Y0396942D01*
X0040881Y0396891D01*
X0041032Y0396836D01*
X0041182Y0396778D01*
X0041330Y0396716D01*
X0041477Y0396650D01*
X0041622Y0396581D01*
X0041765Y0396508D01*
X0041907Y0396432D01*
X0042046Y0396352D01*
X0042184Y0396269D01*
X0042319Y0396182D01*
X0042453Y0396092D01*
X0042584Y0395999D01*
X0042712Y0395903D01*
X0042838Y0395803D01*
X0042962Y0395700D01*
X0043083Y0395595D01*
X0043202Y0395486D01*
X0043318Y0395375D01*
X0043431Y0395260D01*
X0043541Y0395143D01*
X0043648Y0395023D01*
X0043752Y0394901D01*
X0043853Y0394776D01*
X0043951Y0394648D01*
X0044046Y0394518D01*
X0044138Y0394386D01*
X0044226Y0394252D01*
X0044311Y0394115D01*
X0044393Y0393977D01*
X0044471Y0393836D01*
X0044545Y0393694D01*
X0044616Y0393550D01*
X0044684Y0393404D01*
X0044747Y0393256D01*
X0044808Y0393107D01*
X0044864Y0392956D01*
X0044917Y0392804D01*
X0044966Y0392651D01*
X0045011Y0392497D01*
X0045052Y0392342D01*
X0045090Y0392185D01*
X0045123Y0392028D01*
X0045153Y0391870D01*
X0045179Y0391711D01*
X0045200Y0391552D01*
X0045218Y0391392D01*
X0045232Y0391232D01*
X0045242Y0391071D01*
X0045248Y0390911D01*
X0045250Y0390750D01*
X0045248Y0390589D01*
X0045242Y0390429D01*
X0045232Y0390268D01*
X0045218Y0390108D01*
X0045200Y0389948D01*
X0045179Y0389789D01*
X0045153Y0389630D01*
X0045123Y0389472D01*
X0045090Y0389315D01*
X0045052Y0389158D01*
X0045011Y0389003D01*
X0044966Y0388849D01*
X0044917Y0388696D01*
X0044864Y0388544D01*
X0044808Y0388393D01*
X0044747Y0388244D01*
X0044684Y0388096D01*
X0044616Y0387950D01*
X0044545Y0387806D01*
X0044471Y0387664D01*
X0044393Y0387523D01*
X0044311Y0387385D01*
X0044226Y0387248D01*
X0044138Y0387114D01*
X0044046Y0386982D01*
X0043951Y0386852D01*
X0043853Y0386724D01*
X0043752Y0386599D01*
X0043648Y0386477D01*
X0043541Y0386357D01*
X0043431Y0386240D01*
X0043318Y0386125D01*
X0043202Y0386014D01*
X0043083Y0385905D01*
X0042962Y0385800D01*
X0042838Y0385697D01*
X0042712Y0385597D01*
X0042584Y0385501D01*
X0042453Y0385408D01*
X0042319Y0385318D01*
X0042184Y0385231D01*
X0042046Y0385148D01*
X0041907Y0385068D01*
X0041765Y0384992D01*
X0041622Y0384919D01*
X0041477Y0384850D01*
X0041330Y0384784D01*
X0041182Y0384722D01*
X0041032Y0384664D01*
X0040881Y0384609D01*
X0040728Y0384558D01*
X0040574Y0384511D01*
X0040419Y0384468D01*
X0040263Y0384429D01*
X0040107Y0384393D01*
X0039949Y0384362D01*
X0039791Y0384334D01*
X0039632Y0384310D01*
X0039472Y0384290D01*
X0039312Y0384274D01*
X0039152Y0384262D01*
X0038991Y0384254D01*
X0038830Y0384250D01*
X0038670Y0384250D01*
X0038509Y0384254D01*
X0038348Y0384262D01*
X0038188Y0384274D01*
X0038028Y0384290D01*
X0037868Y0384310D01*
X0037709Y0384334D01*
X0037551Y0384362D01*
X0037393Y0384393D01*
X0037237Y0384429D01*
X0037081Y0384468D01*
X0036926Y0384511D01*
X0036772Y0384558D01*
X0036619Y0384609D01*
X0036468Y0384664D01*
X0036318Y0384722D01*
X0036170Y0384784D01*
X0036023Y0384850D01*
X0035878Y0384919D01*
X0035735Y0384992D01*
X0035593Y0385068D01*
X0035454Y0385148D01*
X0035316Y0385231D01*
X0035181Y0385318D01*
X0035047Y0385408D01*
X0034916Y0385501D01*
X0034788Y0385597D01*
X0034662Y0385697D01*
X0034538Y0385800D01*
X0034417Y0385905D01*
X0034298Y0386014D01*
X0034182Y0386125D01*
X0034069Y0386240D01*
X0033959Y0386357D01*
X0033852Y0386477D01*
X0033748Y0386599D01*
X0033647Y0386724D01*
X0033549Y0386852D01*
X0033454Y0386982D01*
X0033362Y0387114D01*
X0033274Y0387248D01*
X0033189Y0387385D01*
X0033107Y0387523D01*
X0033029Y0387664D01*
X0032955Y0387806D01*
X0032884Y0387950D01*
X0032816Y0388096D01*
X0032753Y0388244D01*
X0032692Y0388393D01*
X0032636Y0388544D01*
X0032583Y0388696D01*
X0032534Y0388849D01*
X0032489Y0389003D01*
X0032448Y0389158D01*
X0032410Y0389315D01*
X0032377Y0389472D01*
X0032347Y0389630D01*
X0032321Y0389789D01*
X0032300Y0389948D01*
X0032282Y0390108D01*
X0032268Y0390268D01*
X0032258Y0390429D01*
X0032252Y0390589D01*
X0032250Y0390750D01*
X0032250Y0225750D02*
X0032252Y0225911D01*
X0032258Y0226071D01*
X0032268Y0226232D01*
X0032282Y0226392D01*
X0032300Y0226552D01*
X0032321Y0226711D01*
X0032347Y0226870D01*
X0032377Y0227028D01*
X0032410Y0227185D01*
X0032448Y0227342D01*
X0032489Y0227497D01*
X0032534Y0227651D01*
X0032583Y0227804D01*
X0032636Y0227956D01*
X0032692Y0228107D01*
X0032753Y0228256D01*
X0032816Y0228404D01*
X0032884Y0228550D01*
X0032955Y0228694D01*
X0033029Y0228836D01*
X0033107Y0228977D01*
X0033189Y0229115D01*
X0033274Y0229252D01*
X0033362Y0229386D01*
X0033454Y0229518D01*
X0033549Y0229648D01*
X0033647Y0229776D01*
X0033748Y0229901D01*
X0033852Y0230023D01*
X0033959Y0230143D01*
X0034069Y0230260D01*
X0034182Y0230375D01*
X0034298Y0230486D01*
X0034417Y0230595D01*
X0034538Y0230700D01*
X0034662Y0230803D01*
X0034788Y0230903D01*
X0034916Y0230999D01*
X0035047Y0231092D01*
X0035181Y0231182D01*
X0035316Y0231269D01*
X0035454Y0231352D01*
X0035593Y0231432D01*
X0035735Y0231508D01*
X0035878Y0231581D01*
X0036023Y0231650D01*
X0036170Y0231716D01*
X0036318Y0231778D01*
X0036468Y0231836D01*
X0036619Y0231891D01*
X0036772Y0231942D01*
X0036926Y0231989D01*
X0037081Y0232032D01*
X0037237Y0232071D01*
X0037393Y0232107D01*
X0037551Y0232138D01*
X0037709Y0232166D01*
X0037868Y0232190D01*
X0038028Y0232210D01*
X0038188Y0232226D01*
X0038348Y0232238D01*
X0038509Y0232246D01*
X0038670Y0232250D01*
X0038830Y0232250D01*
X0038991Y0232246D01*
X0039152Y0232238D01*
X0039312Y0232226D01*
X0039472Y0232210D01*
X0039632Y0232190D01*
X0039791Y0232166D01*
X0039949Y0232138D01*
X0040107Y0232107D01*
X0040263Y0232071D01*
X0040419Y0232032D01*
X0040574Y0231989D01*
X0040728Y0231942D01*
X0040881Y0231891D01*
X0041032Y0231836D01*
X0041182Y0231778D01*
X0041330Y0231716D01*
X0041477Y0231650D01*
X0041622Y0231581D01*
X0041765Y0231508D01*
X0041907Y0231432D01*
X0042046Y0231352D01*
X0042184Y0231269D01*
X0042319Y0231182D01*
X0042453Y0231092D01*
X0042584Y0230999D01*
X0042712Y0230903D01*
X0042838Y0230803D01*
X0042962Y0230700D01*
X0043083Y0230595D01*
X0043202Y0230486D01*
X0043318Y0230375D01*
X0043431Y0230260D01*
X0043541Y0230143D01*
X0043648Y0230023D01*
X0043752Y0229901D01*
X0043853Y0229776D01*
X0043951Y0229648D01*
X0044046Y0229518D01*
X0044138Y0229386D01*
X0044226Y0229252D01*
X0044311Y0229115D01*
X0044393Y0228977D01*
X0044471Y0228836D01*
X0044545Y0228694D01*
X0044616Y0228550D01*
X0044684Y0228404D01*
X0044747Y0228256D01*
X0044808Y0228107D01*
X0044864Y0227956D01*
X0044917Y0227804D01*
X0044966Y0227651D01*
X0045011Y0227497D01*
X0045052Y0227342D01*
X0045090Y0227185D01*
X0045123Y0227028D01*
X0045153Y0226870D01*
X0045179Y0226711D01*
X0045200Y0226552D01*
X0045218Y0226392D01*
X0045232Y0226232D01*
X0045242Y0226071D01*
X0045248Y0225911D01*
X0045250Y0225750D01*
X0045248Y0225589D01*
X0045242Y0225429D01*
X0045232Y0225268D01*
X0045218Y0225108D01*
X0045200Y0224948D01*
X0045179Y0224789D01*
X0045153Y0224630D01*
X0045123Y0224472D01*
X0045090Y0224315D01*
X0045052Y0224158D01*
X0045011Y0224003D01*
X0044966Y0223849D01*
X0044917Y0223696D01*
X0044864Y0223544D01*
X0044808Y0223393D01*
X0044747Y0223244D01*
X0044684Y0223096D01*
X0044616Y0222950D01*
X0044545Y0222806D01*
X0044471Y0222664D01*
X0044393Y0222523D01*
X0044311Y0222385D01*
X0044226Y0222248D01*
X0044138Y0222114D01*
X0044046Y0221982D01*
X0043951Y0221852D01*
X0043853Y0221724D01*
X0043752Y0221599D01*
X0043648Y0221477D01*
X0043541Y0221357D01*
X0043431Y0221240D01*
X0043318Y0221125D01*
X0043202Y0221014D01*
X0043083Y0220905D01*
X0042962Y0220800D01*
X0042838Y0220697D01*
X0042712Y0220597D01*
X0042584Y0220501D01*
X0042453Y0220408D01*
X0042319Y0220318D01*
X0042184Y0220231D01*
X0042046Y0220148D01*
X0041907Y0220068D01*
X0041765Y0219992D01*
X0041622Y0219919D01*
X0041477Y0219850D01*
X0041330Y0219784D01*
X0041182Y0219722D01*
X0041032Y0219664D01*
X0040881Y0219609D01*
X0040728Y0219558D01*
X0040574Y0219511D01*
X0040419Y0219468D01*
X0040263Y0219429D01*
X0040107Y0219393D01*
X0039949Y0219362D01*
X0039791Y0219334D01*
X0039632Y0219310D01*
X0039472Y0219290D01*
X0039312Y0219274D01*
X0039152Y0219262D01*
X0038991Y0219254D01*
X0038830Y0219250D01*
X0038670Y0219250D01*
X0038509Y0219254D01*
X0038348Y0219262D01*
X0038188Y0219274D01*
X0038028Y0219290D01*
X0037868Y0219310D01*
X0037709Y0219334D01*
X0037551Y0219362D01*
X0037393Y0219393D01*
X0037237Y0219429D01*
X0037081Y0219468D01*
X0036926Y0219511D01*
X0036772Y0219558D01*
X0036619Y0219609D01*
X0036468Y0219664D01*
X0036318Y0219722D01*
X0036170Y0219784D01*
X0036023Y0219850D01*
X0035878Y0219919D01*
X0035735Y0219992D01*
X0035593Y0220068D01*
X0035454Y0220148D01*
X0035316Y0220231D01*
X0035181Y0220318D01*
X0035047Y0220408D01*
X0034916Y0220501D01*
X0034788Y0220597D01*
X0034662Y0220697D01*
X0034538Y0220800D01*
X0034417Y0220905D01*
X0034298Y0221014D01*
X0034182Y0221125D01*
X0034069Y0221240D01*
X0033959Y0221357D01*
X0033852Y0221477D01*
X0033748Y0221599D01*
X0033647Y0221724D01*
X0033549Y0221852D01*
X0033454Y0221982D01*
X0033362Y0222114D01*
X0033274Y0222248D01*
X0033189Y0222385D01*
X0033107Y0222523D01*
X0033029Y0222664D01*
X0032955Y0222806D01*
X0032884Y0222950D01*
X0032816Y0223096D01*
X0032753Y0223244D01*
X0032692Y0223393D01*
X0032636Y0223544D01*
X0032583Y0223696D01*
X0032534Y0223849D01*
X0032489Y0224003D01*
X0032448Y0224158D01*
X0032410Y0224315D01*
X0032377Y0224472D01*
X0032347Y0224630D01*
X0032321Y0224789D01*
X0032300Y0224948D01*
X0032282Y0225108D01*
X0032268Y0225268D01*
X0032258Y0225429D01*
X0032252Y0225589D01*
X0032250Y0225750D01*
X0032250Y0203750D02*
X0032252Y0203911D01*
X0032258Y0204071D01*
X0032268Y0204232D01*
X0032282Y0204392D01*
X0032300Y0204552D01*
X0032321Y0204711D01*
X0032347Y0204870D01*
X0032377Y0205028D01*
X0032410Y0205185D01*
X0032448Y0205342D01*
X0032489Y0205497D01*
X0032534Y0205651D01*
X0032583Y0205804D01*
X0032636Y0205956D01*
X0032692Y0206107D01*
X0032753Y0206256D01*
X0032816Y0206404D01*
X0032884Y0206550D01*
X0032955Y0206694D01*
X0033029Y0206836D01*
X0033107Y0206977D01*
X0033189Y0207115D01*
X0033274Y0207252D01*
X0033362Y0207386D01*
X0033454Y0207518D01*
X0033549Y0207648D01*
X0033647Y0207776D01*
X0033748Y0207901D01*
X0033852Y0208023D01*
X0033959Y0208143D01*
X0034069Y0208260D01*
X0034182Y0208375D01*
X0034298Y0208486D01*
X0034417Y0208595D01*
X0034538Y0208700D01*
X0034662Y0208803D01*
X0034788Y0208903D01*
X0034916Y0208999D01*
X0035047Y0209092D01*
X0035181Y0209182D01*
X0035316Y0209269D01*
X0035454Y0209352D01*
X0035593Y0209432D01*
X0035735Y0209508D01*
X0035878Y0209581D01*
X0036023Y0209650D01*
X0036170Y0209716D01*
X0036318Y0209778D01*
X0036468Y0209836D01*
X0036619Y0209891D01*
X0036772Y0209942D01*
X0036926Y0209989D01*
X0037081Y0210032D01*
X0037237Y0210071D01*
X0037393Y0210107D01*
X0037551Y0210138D01*
X0037709Y0210166D01*
X0037868Y0210190D01*
X0038028Y0210210D01*
X0038188Y0210226D01*
X0038348Y0210238D01*
X0038509Y0210246D01*
X0038670Y0210250D01*
X0038830Y0210250D01*
X0038991Y0210246D01*
X0039152Y0210238D01*
X0039312Y0210226D01*
X0039472Y0210210D01*
X0039632Y0210190D01*
X0039791Y0210166D01*
X0039949Y0210138D01*
X0040107Y0210107D01*
X0040263Y0210071D01*
X0040419Y0210032D01*
X0040574Y0209989D01*
X0040728Y0209942D01*
X0040881Y0209891D01*
X0041032Y0209836D01*
X0041182Y0209778D01*
X0041330Y0209716D01*
X0041477Y0209650D01*
X0041622Y0209581D01*
X0041765Y0209508D01*
X0041907Y0209432D01*
X0042046Y0209352D01*
X0042184Y0209269D01*
X0042319Y0209182D01*
X0042453Y0209092D01*
X0042584Y0208999D01*
X0042712Y0208903D01*
X0042838Y0208803D01*
X0042962Y0208700D01*
X0043083Y0208595D01*
X0043202Y0208486D01*
X0043318Y0208375D01*
X0043431Y0208260D01*
X0043541Y0208143D01*
X0043648Y0208023D01*
X0043752Y0207901D01*
X0043853Y0207776D01*
X0043951Y0207648D01*
X0044046Y0207518D01*
X0044138Y0207386D01*
X0044226Y0207252D01*
X0044311Y0207115D01*
X0044393Y0206977D01*
X0044471Y0206836D01*
X0044545Y0206694D01*
X0044616Y0206550D01*
X0044684Y0206404D01*
X0044747Y0206256D01*
X0044808Y0206107D01*
X0044864Y0205956D01*
X0044917Y0205804D01*
X0044966Y0205651D01*
X0045011Y0205497D01*
X0045052Y0205342D01*
X0045090Y0205185D01*
X0045123Y0205028D01*
X0045153Y0204870D01*
X0045179Y0204711D01*
X0045200Y0204552D01*
X0045218Y0204392D01*
X0045232Y0204232D01*
X0045242Y0204071D01*
X0045248Y0203911D01*
X0045250Y0203750D01*
X0045248Y0203589D01*
X0045242Y0203429D01*
X0045232Y0203268D01*
X0045218Y0203108D01*
X0045200Y0202948D01*
X0045179Y0202789D01*
X0045153Y0202630D01*
X0045123Y0202472D01*
X0045090Y0202315D01*
X0045052Y0202158D01*
X0045011Y0202003D01*
X0044966Y0201849D01*
X0044917Y0201696D01*
X0044864Y0201544D01*
X0044808Y0201393D01*
X0044747Y0201244D01*
X0044684Y0201096D01*
X0044616Y0200950D01*
X0044545Y0200806D01*
X0044471Y0200664D01*
X0044393Y0200523D01*
X0044311Y0200385D01*
X0044226Y0200248D01*
X0044138Y0200114D01*
X0044046Y0199982D01*
X0043951Y0199852D01*
X0043853Y0199724D01*
X0043752Y0199599D01*
X0043648Y0199477D01*
X0043541Y0199357D01*
X0043431Y0199240D01*
X0043318Y0199125D01*
X0043202Y0199014D01*
X0043083Y0198905D01*
X0042962Y0198800D01*
X0042838Y0198697D01*
X0042712Y0198597D01*
X0042584Y0198501D01*
X0042453Y0198408D01*
X0042319Y0198318D01*
X0042184Y0198231D01*
X0042046Y0198148D01*
X0041907Y0198068D01*
X0041765Y0197992D01*
X0041622Y0197919D01*
X0041477Y0197850D01*
X0041330Y0197784D01*
X0041182Y0197722D01*
X0041032Y0197664D01*
X0040881Y0197609D01*
X0040728Y0197558D01*
X0040574Y0197511D01*
X0040419Y0197468D01*
X0040263Y0197429D01*
X0040107Y0197393D01*
X0039949Y0197362D01*
X0039791Y0197334D01*
X0039632Y0197310D01*
X0039472Y0197290D01*
X0039312Y0197274D01*
X0039152Y0197262D01*
X0038991Y0197254D01*
X0038830Y0197250D01*
X0038670Y0197250D01*
X0038509Y0197254D01*
X0038348Y0197262D01*
X0038188Y0197274D01*
X0038028Y0197290D01*
X0037868Y0197310D01*
X0037709Y0197334D01*
X0037551Y0197362D01*
X0037393Y0197393D01*
X0037237Y0197429D01*
X0037081Y0197468D01*
X0036926Y0197511D01*
X0036772Y0197558D01*
X0036619Y0197609D01*
X0036468Y0197664D01*
X0036318Y0197722D01*
X0036170Y0197784D01*
X0036023Y0197850D01*
X0035878Y0197919D01*
X0035735Y0197992D01*
X0035593Y0198068D01*
X0035454Y0198148D01*
X0035316Y0198231D01*
X0035181Y0198318D01*
X0035047Y0198408D01*
X0034916Y0198501D01*
X0034788Y0198597D01*
X0034662Y0198697D01*
X0034538Y0198800D01*
X0034417Y0198905D01*
X0034298Y0199014D01*
X0034182Y0199125D01*
X0034069Y0199240D01*
X0033959Y0199357D01*
X0033852Y0199477D01*
X0033748Y0199599D01*
X0033647Y0199724D01*
X0033549Y0199852D01*
X0033454Y0199982D01*
X0033362Y0200114D01*
X0033274Y0200248D01*
X0033189Y0200385D01*
X0033107Y0200523D01*
X0033029Y0200664D01*
X0032955Y0200806D01*
X0032884Y0200950D01*
X0032816Y0201096D01*
X0032753Y0201244D01*
X0032692Y0201393D01*
X0032636Y0201544D01*
X0032583Y0201696D01*
X0032534Y0201849D01*
X0032489Y0202003D01*
X0032448Y0202158D01*
X0032410Y0202315D01*
X0032377Y0202472D01*
X0032347Y0202630D01*
X0032321Y0202789D01*
X0032300Y0202948D01*
X0032282Y0203108D01*
X0032268Y0203268D01*
X0032258Y0203429D01*
X0032252Y0203589D01*
X0032250Y0203750D01*
X0032250Y0038750D02*
X0032252Y0038911D01*
X0032258Y0039071D01*
X0032268Y0039232D01*
X0032282Y0039392D01*
X0032300Y0039552D01*
X0032321Y0039711D01*
X0032347Y0039870D01*
X0032377Y0040028D01*
X0032410Y0040185D01*
X0032448Y0040342D01*
X0032489Y0040497D01*
X0032534Y0040651D01*
X0032583Y0040804D01*
X0032636Y0040956D01*
X0032692Y0041107D01*
X0032753Y0041256D01*
X0032816Y0041404D01*
X0032884Y0041550D01*
X0032955Y0041694D01*
X0033029Y0041836D01*
X0033107Y0041977D01*
X0033189Y0042115D01*
X0033274Y0042252D01*
X0033362Y0042386D01*
X0033454Y0042518D01*
X0033549Y0042648D01*
X0033647Y0042776D01*
X0033748Y0042901D01*
X0033852Y0043023D01*
X0033959Y0043143D01*
X0034069Y0043260D01*
X0034182Y0043375D01*
X0034298Y0043486D01*
X0034417Y0043595D01*
X0034538Y0043700D01*
X0034662Y0043803D01*
X0034788Y0043903D01*
X0034916Y0043999D01*
X0035047Y0044092D01*
X0035181Y0044182D01*
X0035316Y0044269D01*
X0035454Y0044352D01*
X0035593Y0044432D01*
X0035735Y0044508D01*
X0035878Y0044581D01*
X0036023Y0044650D01*
X0036170Y0044716D01*
X0036318Y0044778D01*
X0036468Y0044836D01*
X0036619Y0044891D01*
X0036772Y0044942D01*
X0036926Y0044989D01*
X0037081Y0045032D01*
X0037237Y0045071D01*
X0037393Y0045107D01*
X0037551Y0045138D01*
X0037709Y0045166D01*
X0037868Y0045190D01*
X0038028Y0045210D01*
X0038188Y0045226D01*
X0038348Y0045238D01*
X0038509Y0045246D01*
X0038670Y0045250D01*
X0038830Y0045250D01*
X0038991Y0045246D01*
X0039152Y0045238D01*
X0039312Y0045226D01*
X0039472Y0045210D01*
X0039632Y0045190D01*
X0039791Y0045166D01*
X0039949Y0045138D01*
X0040107Y0045107D01*
X0040263Y0045071D01*
X0040419Y0045032D01*
X0040574Y0044989D01*
X0040728Y0044942D01*
X0040881Y0044891D01*
X0041032Y0044836D01*
X0041182Y0044778D01*
X0041330Y0044716D01*
X0041477Y0044650D01*
X0041622Y0044581D01*
X0041765Y0044508D01*
X0041907Y0044432D01*
X0042046Y0044352D01*
X0042184Y0044269D01*
X0042319Y0044182D01*
X0042453Y0044092D01*
X0042584Y0043999D01*
X0042712Y0043903D01*
X0042838Y0043803D01*
X0042962Y0043700D01*
X0043083Y0043595D01*
X0043202Y0043486D01*
X0043318Y0043375D01*
X0043431Y0043260D01*
X0043541Y0043143D01*
X0043648Y0043023D01*
X0043752Y0042901D01*
X0043853Y0042776D01*
X0043951Y0042648D01*
X0044046Y0042518D01*
X0044138Y0042386D01*
X0044226Y0042252D01*
X0044311Y0042115D01*
X0044393Y0041977D01*
X0044471Y0041836D01*
X0044545Y0041694D01*
X0044616Y0041550D01*
X0044684Y0041404D01*
X0044747Y0041256D01*
X0044808Y0041107D01*
X0044864Y0040956D01*
X0044917Y0040804D01*
X0044966Y0040651D01*
X0045011Y0040497D01*
X0045052Y0040342D01*
X0045090Y0040185D01*
X0045123Y0040028D01*
X0045153Y0039870D01*
X0045179Y0039711D01*
X0045200Y0039552D01*
X0045218Y0039392D01*
X0045232Y0039232D01*
X0045242Y0039071D01*
X0045248Y0038911D01*
X0045250Y0038750D01*
X0045248Y0038589D01*
X0045242Y0038429D01*
X0045232Y0038268D01*
X0045218Y0038108D01*
X0045200Y0037948D01*
X0045179Y0037789D01*
X0045153Y0037630D01*
X0045123Y0037472D01*
X0045090Y0037315D01*
X0045052Y0037158D01*
X0045011Y0037003D01*
X0044966Y0036849D01*
X0044917Y0036696D01*
X0044864Y0036544D01*
X0044808Y0036393D01*
X0044747Y0036244D01*
X0044684Y0036096D01*
X0044616Y0035950D01*
X0044545Y0035806D01*
X0044471Y0035664D01*
X0044393Y0035523D01*
X0044311Y0035385D01*
X0044226Y0035248D01*
X0044138Y0035114D01*
X0044046Y0034982D01*
X0043951Y0034852D01*
X0043853Y0034724D01*
X0043752Y0034599D01*
X0043648Y0034477D01*
X0043541Y0034357D01*
X0043431Y0034240D01*
X0043318Y0034125D01*
X0043202Y0034014D01*
X0043083Y0033905D01*
X0042962Y0033800D01*
X0042838Y0033697D01*
X0042712Y0033597D01*
X0042584Y0033501D01*
X0042453Y0033408D01*
X0042319Y0033318D01*
X0042184Y0033231D01*
X0042046Y0033148D01*
X0041907Y0033068D01*
X0041765Y0032992D01*
X0041622Y0032919D01*
X0041477Y0032850D01*
X0041330Y0032784D01*
X0041182Y0032722D01*
X0041032Y0032664D01*
X0040881Y0032609D01*
X0040728Y0032558D01*
X0040574Y0032511D01*
X0040419Y0032468D01*
X0040263Y0032429D01*
X0040107Y0032393D01*
X0039949Y0032362D01*
X0039791Y0032334D01*
X0039632Y0032310D01*
X0039472Y0032290D01*
X0039312Y0032274D01*
X0039152Y0032262D01*
X0038991Y0032254D01*
X0038830Y0032250D01*
X0038670Y0032250D01*
X0038509Y0032254D01*
X0038348Y0032262D01*
X0038188Y0032274D01*
X0038028Y0032290D01*
X0037868Y0032310D01*
X0037709Y0032334D01*
X0037551Y0032362D01*
X0037393Y0032393D01*
X0037237Y0032429D01*
X0037081Y0032468D01*
X0036926Y0032511D01*
X0036772Y0032558D01*
X0036619Y0032609D01*
X0036468Y0032664D01*
X0036318Y0032722D01*
X0036170Y0032784D01*
X0036023Y0032850D01*
X0035878Y0032919D01*
X0035735Y0032992D01*
X0035593Y0033068D01*
X0035454Y0033148D01*
X0035316Y0033231D01*
X0035181Y0033318D01*
X0035047Y0033408D01*
X0034916Y0033501D01*
X0034788Y0033597D01*
X0034662Y0033697D01*
X0034538Y0033800D01*
X0034417Y0033905D01*
X0034298Y0034014D01*
X0034182Y0034125D01*
X0034069Y0034240D01*
X0033959Y0034357D01*
X0033852Y0034477D01*
X0033748Y0034599D01*
X0033647Y0034724D01*
X0033549Y0034852D01*
X0033454Y0034982D01*
X0033362Y0035114D01*
X0033274Y0035248D01*
X0033189Y0035385D01*
X0033107Y0035523D01*
X0033029Y0035664D01*
X0032955Y0035806D01*
X0032884Y0035950D01*
X0032816Y0036096D01*
X0032753Y0036244D01*
X0032692Y0036393D01*
X0032636Y0036544D01*
X0032583Y0036696D01*
X0032534Y0036849D01*
X0032489Y0037003D01*
X0032448Y0037158D01*
X0032410Y0037315D01*
X0032377Y0037472D01*
X0032347Y0037630D01*
X0032321Y0037789D01*
X0032300Y0037948D01*
X0032282Y0038108D01*
X0032268Y0038268D01*
X0032258Y0038429D01*
X0032252Y0038589D01*
X0032250Y0038750D01*
M02*
