%
M48
M72
T01C0.0120
T02C0.0138
T03C0.0200
T04C0.0400
T05C0.0512
T06C0.1180
T07C0.1300
%
T01
X12325Y14525
X13075Y14525
X15325Y16175
X20175Y14725
X21175Y14725
X28275Y14675
X29125Y14675
X34075Y14775
X37375Y14875
X38375Y14875
X45025Y14525
X45775Y14525
X48025Y16175
X52875Y14725
X53875Y14725
X60975Y14675
X61825Y14675
X66775Y14775
X45775Y33225
X45025Y33225
X48025Y34875
X52875Y33425
X53875Y33425
X60975Y33375
X61825Y33375
X66775Y33475
X38375Y33575
X37375Y33575
X34075Y33475
X29125Y33375
X28275Y33375
X21175Y33425
X20175Y33425
X15325Y34875
X13075Y33225
X12325Y33225
X5675Y33575
X4675Y33575
X4675Y14875
X5675Y14875
T02
X7025Y15025
X6575Y15925
X5925Y16625
X5625Y17025
X9375Y15925
X9675Y16275
X10025Y15525
X10625Y16275
X10975Y15925
X10975Y15525
X11575Y16125
X13975Y15025
X17025Y17875
X16625Y19475
X16125Y19475
X17375Y20275
X19225Y16175
X20175Y15925
X21025Y16225
X21575Y16225
X22075Y16075
X22275Y15675
X22175Y14825
X21025Y15525
X30175Y15025
X32825Y16575
X32475Y16925
X32325Y17375
X38325Y17025
X38625Y16625
X39275Y15925
X39725Y15025
X42075Y15925
X42375Y16275
X42725Y15525
X43675Y15525
X43675Y15925
X43325Y16275
X44275Y16125
X46675Y15025
X49725Y17875
X49325Y19475
X48825Y19475
X50075Y20275
X51925Y16175
X52875Y15925
X53725Y16225
X54275Y16225
X54775Y16075
X54975Y15675
X54875Y14825
X53725Y15525
X62875Y15025
X65525Y16575
X65175Y16925
X65025Y17375
X62875Y33725
X65175Y35625
X65025Y36075
X65525Y35275
X54975Y34375
X54775Y34775
X54275Y34925
X53725Y34925
X52875Y34625
X53725Y34225
X54875Y33525
X51925Y34875
X49725Y36575
X49325Y38175
X48825Y38175
X50075Y38975
X44275Y34825
X43675Y34625
X43675Y34225
X42725Y34225
X42075Y34625
X42375Y34975
X43325Y34975
X46675Y33725
X39725Y33725
X39275Y34625
X38625Y35325
X38325Y35725
X32825Y35275
X32475Y35625
X32325Y36075
X30175Y33725
X22275Y34375
X22075Y34775
X21575Y34925
X21025Y34925
X20175Y34625
X21025Y34225
X22175Y33525
X19225Y34875
X17025Y36575
X16625Y38175
X16125Y38175
X17375Y38975
X11575Y34825
X10975Y34625
X10975Y34225
X10625Y34975
X9675Y34975
X9375Y34625
X10025Y34225
X7025Y33725
X6575Y34625
X5925Y35325
X5625Y35725
X13975Y33725
T03
X14125Y36025
X15125Y36025
X16125Y36025
X16125Y37025
X15125Y37025
X14125Y37025
X23900Y37300
X46825Y37025
X46825Y36025
X47825Y36025
X48825Y36025
X48825Y37025
X47825Y37025
X56600Y37300
X56600Y18600
X48825Y18325
X47825Y18325
X46825Y18325
X46825Y17325
X47825Y17325
X48825Y17325
X23900Y18600
X16125Y18325
X15125Y18325
X14125Y18325
X14125Y17325
X15125Y17325
X16125Y17325
T04
X15875Y20875
X16875Y20875
X14875Y20875
X13875Y20875
X13875Y39575
X14875Y39575
X15875Y39575
X16875Y39575
X46575Y39575
X47575Y39575
X48575Y39575
X49575Y39575
X49575Y20875
X48575Y20875
X47575Y20875
X46575Y20875
T05
X46625Y25075
X48594Y25075
X50562Y25075
X53075Y25075
X55044Y25075
X57012Y25075
X59525Y25075
X61494Y25075
X63462Y25075
X63075Y27575
X61075Y27575
X59075Y27575
X55075Y27575
X53075Y27575
X51075Y27575
X47075Y27575
X45075Y27575
X43075Y27575
X42144Y25075
X40175Y25075
X39075Y27575
X37075Y27575
X34375Y27575
X30375Y27575
X28375Y27575
X26375Y27575
X26825Y25075
X28794Y25075
X30762Y25075
X24312Y25075
X22344Y25075
X20375Y25075
X17862Y25075
X15894Y25075
X13925Y25075
X11412Y25075
X9444Y25075
X7475Y25075
X6375Y27575
X4375Y27575
X5375Y30575
X10375Y30575
X13375Y30575
X18375Y30575
X21375Y30575
X26375Y30575
X29375Y30575
X34375Y30575
X38075Y30575
X43075Y30575
X46075Y30575
X51075Y30575
X54075Y30575
X59075Y30575
X62075Y30575
X67075Y30575
X67075Y27575
X44112Y25075
X43075Y11875
X46075Y11875
X45075Y8875
X43075Y8875
X42144Y6375
X40175Y6375
X39075Y8875
X37075Y8875
X34375Y8875
X30375Y8875
X28375Y8875
X26375Y8875
X26825Y6375
X28794Y6375
X30762Y6375
X24312Y6375
X22344Y6375
X20375Y6375
X17862Y6375
X15894Y6375
X13925Y6375
X11412Y6375
X9444Y6375
X7475Y6375
X6375Y8875
X4375Y8875
X5375Y11875
X10375Y11875
X13375Y11875
X18375Y11875
X21375Y11875
X26375Y11875
X29375Y11875
X34375Y11875
X38075Y11875
X44112Y6375
X46625Y6375
X48594Y6375
X50562Y6375
X53075Y6375
X55044Y6375
X57012Y6375
X59525Y6375
X61494Y6375
X63462Y6375
X63075Y8875
X61075Y8875
X59075Y8875
X55075Y8875
X53075Y8875
X51075Y8875
X47075Y8875
X51075Y11875
X54075Y11875
X59075Y11875
X62075Y11875
X67075Y11875
X67075Y8875
X22375Y8875
X20375Y8875
X18375Y8875
X14375Y8875
X12375Y8875
X10375Y8875
X10375Y27575
X12375Y27575
X14375Y27575
X18375Y27575
X20375Y27575
X22375Y27575
T06
X30675Y19544
X28825Y18362
X30675Y17181
X61525Y18362
X63375Y19544
X63375Y17181
X63375Y35881
X61525Y37062
X63375Y38244
X30675Y38244
X28825Y37062
X30675Y35881
T07
X3875Y3875
X3875Y20375
X3875Y22575
X3875Y39075
X34375Y39075
X36575Y39075
X36575Y22575
X34375Y22575
X34375Y20375
X36575Y20375
X36575Y3875
X34375Y3875
X67075Y3875
X67075Y20375
X67075Y22575
X67075Y39075
M30
