G75*
%MOIN*%
%OFA0B0*%
%FSLAX25Y25*%
%IPPOS*%
%LPD*%
%AMOC8*
5,1,8,0,0,1.08239X$1,22.5*
%
%ADD10R,0.04331X0.03937*%
%ADD11R,0.02480X0.03268*%
%ADD12C,0.01181*%
%ADD13R,0.07874X0.04724*%
%ADD14R,0.05315X0.02362*%
%ADD15R,0.03937X0.04331*%
%ADD16R,0.03150X0.03543*%
%ADD17R,0.02362X0.04724*%
%ADD18R,0.04800X0.08800*%
%ADD19R,0.14173X0.08661*%
%ADD20R,0.04724X0.09843*%
%ADD21R,0.05000X0.05787*%
D10*
X0100404Y0133750D03*
X0107096Y0133750D03*
X0120404Y0139750D03*
X0127096Y0139750D03*
X0127096Y0161250D03*
X0120404Y0161250D03*
X0136404Y0161250D03*
X0143096Y0161250D03*
X0180404Y0133750D03*
X0187096Y0133750D03*
X0200404Y0139750D03*
X0207096Y0139750D03*
X0229404Y0160250D03*
X0229404Y0166750D03*
X0236096Y0166750D03*
X0236096Y0160250D03*
X0262404Y0182750D03*
X0269096Y0182750D03*
X0269096Y0188750D03*
X0269096Y0194750D03*
X0262404Y0194750D03*
X0262404Y0188750D03*
X0280404Y0140250D03*
X0287096Y0140250D03*
X0267096Y0133750D03*
X0260404Y0133750D03*
X0340404Y0133750D03*
X0347096Y0133750D03*
X0371904Y0139750D03*
X0378596Y0139750D03*
X0427404Y0133750D03*
X0434096Y0133750D03*
X0447404Y0139750D03*
X0454096Y0139750D03*
X0454096Y0161250D03*
X0447404Y0161250D03*
X0463404Y0161250D03*
X0470096Y0161250D03*
X0507404Y0133750D03*
X0514096Y0133750D03*
X0527404Y0139750D03*
X0534096Y0139750D03*
X0556404Y0160250D03*
X0556404Y0166750D03*
X0563096Y0166750D03*
X0563096Y0160250D03*
X0589404Y0182750D03*
X0596096Y0182750D03*
X0596096Y0188750D03*
X0596096Y0194750D03*
X0589404Y0194750D03*
X0589404Y0188750D03*
X0607404Y0140250D03*
X0614096Y0140250D03*
X0594096Y0133750D03*
X0587404Y0133750D03*
X0667404Y0133750D03*
X0674096Y0133750D03*
X0674096Y0320750D03*
X0667404Y0320750D03*
X0614096Y0327250D03*
X0607404Y0327250D03*
X0594096Y0320750D03*
X0587404Y0320750D03*
X0563096Y0347250D03*
X0556404Y0347250D03*
X0556404Y0353750D03*
X0563096Y0353750D03*
X0589404Y0369750D03*
X0596096Y0369750D03*
X0596096Y0375750D03*
X0596096Y0381750D03*
X0589404Y0381750D03*
X0589404Y0375750D03*
X0534096Y0326750D03*
X0527404Y0326750D03*
X0514096Y0320750D03*
X0507404Y0320750D03*
X0470096Y0348250D03*
X0463404Y0348250D03*
X0454096Y0348250D03*
X0447404Y0348250D03*
X0447404Y0326750D03*
X0454096Y0326750D03*
X0434096Y0320750D03*
X0427404Y0320750D03*
X0378596Y0326750D03*
X0371904Y0326750D03*
X0347096Y0320750D03*
X0340404Y0320750D03*
X0287096Y0327250D03*
X0280404Y0327250D03*
X0267096Y0320750D03*
X0260404Y0320750D03*
X0236096Y0347250D03*
X0229404Y0347250D03*
X0229404Y0353750D03*
X0236096Y0353750D03*
X0262404Y0369750D03*
X0269096Y0369750D03*
X0269096Y0375750D03*
X0269096Y0381750D03*
X0262404Y0381750D03*
X0262404Y0375750D03*
X0207096Y0326750D03*
X0200404Y0326750D03*
X0187096Y0320750D03*
X0180404Y0320750D03*
X0143096Y0348250D03*
X0136404Y0348250D03*
X0127096Y0348250D03*
X0120404Y0348250D03*
X0120404Y0326750D03*
X0127096Y0326750D03*
X0107096Y0320750D03*
X0100404Y0320750D03*
X0051596Y0326750D03*
X0044904Y0326750D03*
X0044904Y0139750D03*
X0051596Y0139750D03*
D11*
X0044222Y0133750D03*
X0053278Y0133750D03*
X0119222Y0133750D03*
X0128278Y0133750D03*
X0199222Y0133750D03*
X0208278Y0133750D03*
X0279222Y0133750D03*
X0288278Y0133750D03*
X0371222Y0133750D03*
X0380278Y0133750D03*
X0446222Y0133750D03*
X0455278Y0133750D03*
X0526222Y0133750D03*
X0535278Y0133750D03*
X0606222Y0133750D03*
X0615278Y0133750D03*
X0615278Y0320750D03*
X0606222Y0320750D03*
X0535278Y0320750D03*
X0526222Y0320750D03*
X0455278Y0320750D03*
X0446222Y0320750D03*
X0380278Y0320750D03*
X0371222Y0320750D03*
X0288278Y0320750D03*
X0279222Y0320750D03*
X0208278Y0320750D03*
X0199222Y0320750D03*
X0128278Y0320750D03*
X0119222Y0320750D03*
X0053278Y0320750D03*
X0044222Y0320750D03*
D12*
X0088372Y0328675D02*
X0091128Y0328675D01*
X0091128Y0325919D01*
X0088372Y0325919D01*
X0088372Y0328675D01*
X0088372Y0327041D02*
X0091128Y0327041D01*
X0091128Y0328163D02*
X0088372Y0328163D01*
X0088372Y0335581D02*
X0091128Y0335581D01*
X0091128Y0332825D01*
X0088372Y0332825D01*
X0088372Y0335581D01*
X0088372Y0333947D02*
X0091128Y0333947D01*
X0091128Y0335069D02*
X0088372Y0335069D01*
X0168372Y0335581D02*
X0171128Y0335581D01*
X0171128Y0332825D01*
X0168372Y0332825D01*
X0168372Y0335581D01*
X0168372Y0333947D02*
X0171128Y0333947D01*
X0171128Y0335069D02*
X0168372Y0335069D01*
X0168372Y0328675D02*
X0171128Y0328675D01*
X0171128Y0325919D01*
X0168372Y0325919D01*
X0168372Y0328675D01*
X0168372Y0327041D02*
X0171128Y0327041D01*
X0171128Y0328163D02*
X0168372Y0328163D01*
X0248372Y0328675D02*
X0251128Y0328675D01*
X0251128Y0325919D01*
X0248372Y0325919D01*
X0248372Y0328675D01*
X0248372Y0327041D02*
X0251128Y0327041D01*
X0251128Y0328163D02*
X0248372Y0328163D01*
X0248372Y0335581D02*
X0251128Y0335581D01*
X0251128Y0332825D01*
X0248372Y0332825D01*
X0248372Y0335581D01*
X0248372Y0333947D02*
X0251128Y0333947D01*
X0251128Y0335069D02*
X0248372Y0335069D01*
X0260419Y0387872D02*
X0260419Y0390628D01*
X0263175Y0390628D01*
X0263175Y0387872D01*
X0260419Y0387872D01*
X0260419Y0388994D02*
X0263175Y0388994D01*
X0263175Y0390116D02*
X0260419Y0390116D01*
X0267325Y0390628D02*
X0267325Y0387872D01*
X0267325Y0390628D02*
X0270081Y0390628D01*
X0270081Y0387872D01*
X0267325Y0387872D01*
X0267325Y0388994D02*
X0270081Y0388994D01*
X0270081Y0390116D02*
X0267325Y0390116D01*
X0328372Y0335581D02*
X0331128Y0335581D01*
X0331128Y0332825D01*
X0328372Y0332825D01*
X0328372Y0335581D01*
X0328372Y0333947D02*
X0331128Y0333947D01*
X0331128Y0335069D02*
X0328372Y0335069D01*
X0328372Y0328675D02*
X0331128Y0328675D01*
X0331128Y0325919D01*
X0328372Y0325919D01*
X0328372Y0328675D01*
X0328372Y0327041D02*
X0331128Y0327041D01*
X0331128Y0328163D02*
X0328372Y0328163D01*
X0415372Y0328675D02*
X0418128Y0328675D01*
X0418128Y0325919D01*
X0415372Y0325919D01*
X0415372Y0328675D01*
X0415372Y0327041D02*
X0418128Y0327041D01*
X0418128Y0328163D02*
X0415372Y0328163D01*
X0415372Y0335581D02*
X0418128Y0335581D01*
X0418128Y0332825D01*
X0415372Y0332825D01*
X0415372Y0335581D01*
X0415372Y0333947D02*
X0418128Y0333947D01*
X0418128Y0335069D02*
X0415372Y0335069D01*
X0495372Y0335581D02*
X0498128Y0335581D01*
X0498128Y0332825D01*
X0495372Y0332825D01*
X0495372Y0335581D01*
X0495372Y0333947D02*
X0498128Y0333947D01*
X0498128Y0335069D02*
X0495372Y0335069D01*
X0495372Y0328675D02*
X0498128Y0328675D01*
X0498128Y0325919D01*
X0495372Y0325919D01*
X0495372Y0328675D01*
X0495372Y0327041D02*
X0498128Y0327041D01*
X0498128Y0328163D02*
X0495372Y0328163D01*
X0575372Y0328675D02*
X0578128Y0328675D01*
X0578128Y0325919D01*
X0575372Y0325919D01*
X0575372Y0328675D01*
X0575372Y0327041D02*
X0578128Y0327041D01*
X0578128Y0328163D02*
X0575372Y0328163D01*
X0575372Y0335581D02*
X0578128Y0335581D01*
X0578128Y0332825D01*
X0575372Y0332825D01*
X0575372Y0335581D01*
X0575372Y0333947D02*
X0578128Y0333947D01*
X0578128Y0335069D02*
X0575372Y0335069D01*
X0655372Y0335581D02*
X0658128Y0335581D01*
X0658128Y0332825D01*
X0655372Y0332825D01*
X0655372Y0335581D01*
X0655372Y0333947D02*
X0658128Y0333947D01*
X0658128Y0335069D02*
X0655372Y0335069D01*
X0655372Y0328675D02*
X0658128Y0328675D01*
X0658128Y0325919D01*
X0655372Y0325919D01*
X0655372Y0328675D01*
X0655372Y0327041D02*
X0658128Y0327041D01*
X0658128Y0328163D02*
X0655372Y0328163D01*
X0594325Y0387872D02*
X0594325Y0390628D01*
X0597081Y0390628D01*
X0597081Y0387872D01*
X0594325Y0387872D01*
X0594325Y0388994D02*
X0597081Y0388994D01*
X0597081Y0390116D02*
X0594325Y0390116D01*
X0587419Y0390628D02*
X0587419Y0387872D01*
X0587419Y0390628D02*
X0590175Y0390628D01*
X0590175Y0387872D01*
X0587419Y0387872D01*
X0587419Y0388994D02*
X0590175Y0388994D01*
X0590175Y0390116D02*
X0587419Y0390116D01*
X0587419Y0203628D02*
X0587419Y0200872D01*
X0587419Y0203628D02*
X0590175Y0203628D01*
X0590175Y0200872D01*
X0587419Y0200872D01*
X0587419Y0201994D02*
X0590175Y0201994D01*
X0590175Y0203116D02*
X0587419Y0203116D01*
X0594325Y0203628D02*
X0594325Y0200872D01*
X0594325Y0203628D02*
X0597081Y0203628D01*
X0597081Y0200872D01*
X0594325Y0200872D01*
X0594325Y0201994D02*
X0597081Y0201994D01*
X0597081Y0203116D02*
X0594325Y0203116D01*
X0578128Y0148581D02*
X0575372Y0148581D01*
X0578128Y0148581D02*
X0578128Y0145825D01*
X0575372Y0145825D01*
X0575372Y0148581D01*
X0575372Y0146947D02*
X0578128Y0146947D01*
X0578128Y0148069D02*
X0575372Y0148069D01*
X0575372Y0141675D02*
X0578128Y0141675D01*
X0578128Y0138919D01*
X0575372Y0138919D01*
X0575372Y0141675D01*
X0575372Y0140041D02*
X0578128Y0140041D01*
X0578128Y0141163D02*
X0575372Y0141163D01*
X0498128Y0141675D02*
X0495372Y0141675D01*
X0498128Y0141675D02*
X0498128Y0138919D01*
X0495372Y0138919D01*
X0495372Y0141675D01*
X0495372Y0140041D02*
X0498128Y0140041D01*
X0498128Y0141163D02*
X0495372Y0141163D01*
X0495372Y0148581D02*
X0498128Y0148581D01*
X0498128Y0145825D01*
X0495372Y0145825D01*
X0495372Y0148581D01*
X0495372Y0146947D02*
X0498128Y0146947D01*
X0498128Y0148069D02*
X0495372Y0148069D01*
X0418128Y0148581D02*
X0415372Y0148581D01*
X0418128Y0148581D02*
X0418128Y0145825D01*
X0415372Y0145825D01*
X0415372Y0148581D01*
X0415372Y0146947D02*
X0418128Y0146947D01*
X0418128Y0148069D02*
X0415372Y0148069D01*
X0415372Y0141675D02*
X0418128Y0141675D01*
X0418128Y0138919D01*
X0415372Y0138919D01*
X0415372Y0141675D01*
X0415372Y0140041D02*
X0418128Y0140041D01*
X0418128Y0141163D02*
X0415372Y0141163D01*
X0331128Y0141675D02*
X0328372Y0141675D01*
X0331128Y0141675D02*
X0331128Y0138919D01*
X0328372Y0138919D01*
X0328372Y0141675D01*
X0328372Y0140041D02*
X0331128Y0140041D01*
X0331128Y0141163D02*
X0328372Y0141163D01*
X0328372Y0148581D02*
X0331128Y0148581D01*
X0331128Y0145825D01*
X0328372Y0145825D01*
X0328372Y0148581D01*
X0328372Y0146947D02*
X0331128Y0146947D01*
X0331128Y0148069D02*
X0328372Y0148069D01*
X0251128Y0148581D02*
X0248372Y0148581D01*
X0251128Y0148581D02*
X0251128Y0145825D01*
X0248372Y0145825D01*
X0248372Y0148581D01*
X0248372Y0146947D02*
X0251128Y0146947D01*
X0251128Y0148069D02*
X0248372Y0148069D01*
X0248372Y0141675D02*
X0251128Y0141675D01*
X0251128Y0138919D01*
X0248372Y0138919D01*
X0248372Y0141675D01*
X0248372Y0140041D02*
X0251128Y0140041D01*
X0251128Y0141163D02*
X0248372Y0141163D01*
X0171128Y0141675D02*
X0168372Y0141675D01*
X0171128Y0141675D02*
X0171128Y0138919D01*
X0168372Y0138919D01*
X0168372Y0141675D01*
X0168372Y0140041D02*
X0171128Y0140041D01*
X0171128Y0141163D02*
X0168372Y0141163D01*
X0168372Y0148581D02*
X0171128Y0148581D01*
X0171128Y0145825D01*
X0168372Y0145825D01*
X0168372Y0148581D01*
X0168372Y0146947D02*
X0171128Y0146947D01*
X0171128Y0148069D02*
X0168372Y0148069D01*
X0091128Y0148581D02*
X0088372Y0148581D01*
X0091128Y0148581D02*
X0091128Y0145825D01*
X0088372Y0145825D01*
X0088372Y0148581D01*
X0088372Y0146947D02*
X0091128Y0146947D01*
X0091128Y0148069D02*
X0088372Y0148069D01*
X0088372Y0141675D02*
X0091128Y0141675D01*
X0091128Y0138919D01*
X0088372Y0138919D01*
X0088372Y0141675D01*
X0088372Y0140041D02*
X0091128Y0140041D01*
X0091128Y0141163D02*
X0088372Y0141163D01*
X0260419Y0200872D02*
X0260419Y0203628D01*
X0263175Y0203628D01*
X0263175Y0200872D01*
X0260419Y0200872D01*
X0260419Y0201994D02*
X0263175Y0201994D01*
X0263175Y0203116D02*
X0260419Y0203116D01*
X0267325Y0203628D02*
X0267325Y0200872D01*
X0267325Y0203628D02*
X0270081Y0203628D01*
X0270081Y0200872D01*
X0267325Y0200872D01*
X0267325Y0201994D02*
X0270081Y0201994D01*
X0270081Y0203116D02*
X0267325Y0203116D01*
X0655372Y0148581D02*
X0658128Y0148581D01*
X0658128Y0145825D01*
X0655372Y0145825D01*
X0655372Y0148581D01*
X0655372Y0146947D02*
X0658128Y0146947D01*
X0658128Y0148069D02*
X0655372Y0148069D01*
X0655372Y0141675D02*
X0658128Y0141675D01*
X0658128Y0138919D01*
X0655372Y0138919D01*
X0655372Y0141675D01*
X0655372Y0140041D02*
X0658128Y0140041D01*
X0658128Y0141163D02*
X0655372Y0141163D01*
D13*
X0675219Y0158226D03*
X0675219Y0180274D03*
X0675219Y0345226D03*
X0675219Y0367274D03*
X0361281Y0367274D03*
X0348219Y0367274D03*
X0348219Y0345226D03*
X0361281Y0345226D03*
X0361281Y0180274D03*
X0348219Y0180274D03*
X0348219Y0158226D03*
X0361281Y0158226D03*
X0034281Y0158226D03*
X0034281Y0180274D03*
X0034281Y0345226D03*
X0034281Y0367274D03*
D14*
X0048750Y0362156D03*
X0048750Y0358219D03*
X0048750Y0354281D03*
X0048750Y0350344D03*
X0333750Y0350344D03*
X0333750Y0354281D03*
X0333750Y0358219D03*
X0333750Y0362156D03*
X0375750Y0362156D03*
X0375750Y0358219D03*
X0375750Y0354281D03*
X0375750Y0350344D03*
X0375750Y0175156D03*
X0375750Y0171219D03*
X0375750Y0167281D03*
X0375750Y0163344D03*
X0333750Y0163344D03*
X0333750Y0167281D03*
X0333750Y0171219D03*
X0333750Y0175156D03*
X0048750Y0175156D03*
X0048750Y0171219D03*
X0048750Y0167281D03*
X0048750Y0163344D03*
X0660750Y0163344D03*
X0660750Y0167281D03*
X0660750Y0171219D03*
X0660750Y0175156D03*
X0660750Y0350344D03*
X0660750Y0354281D03*
X0660750Y0358219D03*
X0660750Y0362156D03*
D15*
X0519750Y0362904D03*
X0519750Y0369596D03*
X0511750Y0369596D03*
X0511750Y0362904D03*
X0503750Y0362904D03*
X0503750Y0369596D03*
X0454250Y0369096D03*
X0454250Y0362404D03*
X0446750Y0362404D03*
X0446750Y0369096D03*
X0192750Y0369596D03*
X0192750Y0362904D03*
X0184750Y0362904D03*
X0184750Y0369596D03*
X0176750Y0369596D03*
X0176750Y0362904D03*
X0127250Y0362404D03*
X0127250Y0369096D03*
X0119750Y0369096D03*
X0119750Y0362404D03*
X0119750Y0182096D03*
X0119750Y0175404D03*
X0127250Y0175404D03*
X0127250Y0182096D03*
X0176750Y0182596D03*
X0176750Y0175904D03*
X0184750Y0175904D03*
X0184750Y0182596D03*
X0192750Y0182596D03*
X0192750Y0175904D03*
X0446750Y0175404D03*
X0446750Y0182096D03*
X0454250Y0182096D03*
X0454250Y0175404D03*
X0503750Y0175904D03*
X0503750Y0182596D03*
X0511750Y0182596D03*
X0511750Y0175904D03*
X0519750Y0175904D03*
X0519750Y0182596D03*
D16*
X0542010Y0142687D03*
X0549490Y0142687D03*
X0545750Y0134419D03*
X0469490Y0142687D03*
X0462010Y0142687D03*
X0465750Y0134419D03*
X0394490Y0142687D03*
X0387010Y0142687D03*
X0390750Y0134419D03*
X0302490Y0142687D03*
X0295010Y0142687D03*
X0298750Y0134419D03*
X0222490Y0142687D03*
X0215010Y0142687D03*
X0218750Y0134419D03*
X0142490Y0142687D03*
X0135010Y0142687D03*
X0138750Y0134419D03*
X0067490Y0142687D03*
X0060010Y0142687D03*
X0063750Y0134419D03*
X0063750Y0321419D03*
X0060010Y0329687D03*
X0067490Y0329687D03*
X0135010Y0329687D03*
X0142490Y0329687D03*
X0138750Y0321419D03*
X0215010Y0329687D03*
X0222490Y0329687D03*
X0218750Y0321419D03*
X0295010Y0329687D03*
X0302490Y0329687D03*
X0298750Y0321419D03*
X0387010Y0329687D03*
X0394490Y0329687D03*
X0390750Y0321419D03*
X0462010Y0329687D03*
X0469490Y0329687D03*
X0465750Y0321419D03*
X0542010Y0329687D03*
X0549490Y0329687D03*
X0545750Y0321419D03*
X0622010Y0329687D03*
X0629490Y0329687D03*
X0625750Y0321419D03*
X0622010Y0142687D03*
X0629490Y0142687D03*
X0625750Y0134419D03*
D17*
X0543250Y0167726D03*
X0538250Y0167726D03*
X0533250Y0167726D03*
X0528250Y0167726D03*
X0528250Y0189774D03*
X0533250Y0189774D03*
X0538250Y0189774D03*
X0543250Y0189774D03*
X0493250Y0189274D03*
X0488250Y0189274D03*
X0483250Y0189274D03*
X0478250Y0189274D03*
X0473250Y0189274D03*
X0468250Y0189274D03*
X0463250Y0189274D03*
X0438250Y0189774D03*
X0433250Y0189774D03*
X0428250Y0189774D03*
X0423250Y0189774D03*
X0423250Y0167726D03*
X0428250Y0167726D03*
X0433250Y0167726D03*
X0438250Y0167726D03*
X0463250Y0167226D03*
X0468250Y0167226D03*
X0473250Y0167226D03*
X0478250Y0167226D03*
X0483250Y0167226D03*
X0488250Y0167226D03*
X0493250Y0167226D03*
X0216250Y0167726D03*
X0211250Y0167726D03*
X0206250Y0167726D03*
X0201250Y0167726D03*
X0166250Y0167226D03*
X0161250Y0167226D03*
X0156250Y0167226D03*
X0151250Y0167226D03*
X0146250Y0167226D03*
X0141250Y0167226D03*
X0136250Y0167226D03*
X0111250Y0167726D03*
X0106250Y0167726D03*
X0101250Y0167726D03*
X0096250Y0167726D03*
X0096250Y0189774D03*
X0101250Y0189774D03*
X0106250Y0189774D03*
X0111250Y0189774D03*
X0136250Y0189274D03*
X0141250Y0189274D03*
X0146250Y0189274D03*
X0151250Y0189274D03*
X0156250Y0189274D03*
X0161250Y0189274D03*
X0166250Y0189274D03*
X0201250Y0189774D03*
X0206250Y0189774D03*
X0211250Y0189774D03*
X0216250Y0189774D03*
X0216250Y0354726D03*
X0211250Y0354726D03*
X0206250Y0354726D03*
X0201250Y0354726D03*
X0166250Y0354226D03*
X0161250Y0354226D03*
X0156250Y0354226D03*
X0151250Y0354226D03*
X0146250Y0354226D03*
X0141250Y0354226D03*
X0136250Y0354226D03*
X0111250Y0354726D03*
X0106250Y0354726D03*
X0101250Y0354726D03*
X0096250Y0354726D03*
X0096250Y0376774D03*
X0101250Y0376774D03*
X0106250Y0376774D03*
X0111250Y0376774D03*
X0136250Y0376274D03*
X0141250Y0376274D03*
X0146250Y0376274D03*
X0151250Y0376274D03*
X0156250Y0376274D03*
X0161250Y0376274D03*
X0166250Y0376274D03*
X0201250Y0376774D03*
X0206250Y0376774D03*
X0211250Y0376774D03*
X0216250Y0376774D03*
X0423250Y0376774D03*
X0428250Y0376774D03*
X0433250Y0376774D03*
X0438250Y0376774D03*
X0463250Y0376274D03*
X0468250Y0376274D03*
X0473250Y0376274D03*
X0478250Y0376274D03*
X0483250Y0376274D03*
X0488250Y0376274D03*
X0493250Y0376274D03*
X0493250Y0354226D03*
X0488250Y0354226D03*
X0483250Y0354226D03*
X0478250Y0354226D03*
X0473250Y0354226D03*
X0468250Y0354226D03*
X0463250Y0354226D03*
X0438250Y0354726D03*
X0433250Y0354726D03*
X0428250Y0354726D03*
X0423250Y0354726D03*
X0528250Y0354726D03*
X0533250Y0354726D03*
X0538250Y0354726D03*
X0543250Y0354726D03*
X0543250Y0376774D03*
X0538250Y0376774D03*
X0533250Y0376774D03*
X0528250Y0376774D03*
D18*
X0554150Y0363050D03*
X0563250Y0363050D03*
X0572350Y0363050D03*
X0572350Y0176050D03*
X0563250Y0176050D03*
X0554150Y0176050D03*
X0245350Y0176050D03*
X0236250Y0176050D03*
X0227150Y0176050D03*
X0227150Y0363050D03*
X0236250Y0363050D03*
X0245350Y0363050D03*
D19*
X0236250Y0387451D03*
X0236250Y0200451D03*
X0563250Y0200451D03*
X0563250Y0387451D03*
D20*
X0586754Y0359250D03*
X0599746Y0359250D03*
X0599746Y0172250D03*
X0586754Y0172250D03*
X0272746Y0172250D03*
X0259754Y0172250D03*
X0259754Y0359250D03*
X0272746Y0359250D03*
D21*
X0275215Y0344250D03*
X0258285Y0344250D03*
X0258285Y0157250D03*
X0275215Y0157250D03*
X0585285Y0157250D03*
X0602215Y0157250D03*
X0602215Y0344250D03*
X0585285Y0344250D03*
M02*
