G75*
%MOIN*%
%OFA0B0*%
%FSLAX25Y25*%
%IPPOS*%
%LPD*%
%AMOC8*
5,1,8,0,0,1.08239X$1,22.5*
%
%ADD10R,0.05131X0.04737*%
%ADD11R,0.03280X0.04068*%
%ADD12C,0.01990*%
%ADD13R,0.08674X0.05524*%
%ADD14R,0.06115X0.03162*%
%ADD15C,0.09800*%
%ADD16C,0.13800*%
%ADD17R,0.04737X0.05131*%
%ADD18R,0.03950X0.04343*%
%ADD19R,0.10300X0.10300*%
%ADD20C,0.10300*%
%ADD21C,0.04737*%
%ADD22C,0.08200*%
%ADD23R,0.03162X0.05524*%
%ADD24C,0.17800*%
%ADD25R,0.05600X0.09600*%
%ADD26R,0.14973X0.09461*%
%ADD27R,0.05524X0.10643*%
%ADD28R,0.05800X0.06587*%
%ADD29C,0.05000*%
%ADD30C,0.06706*%
D10*
X0100404Y0133750D03*
X0107096Y0133750D03*
X0120404Y0139750D03*
X0127096Y0139750D03*
X0127096Y0161250D03*
X0120404Y0161250D03*
X0136404Y0161250D03*
X0143096Y0161250D03*
X0180404Y0133750D03*
X0187096Y0133750D03*
X0200404Y0139750D03*
X0207096Y0139750D03*
X0229404Y0160250D03*
X0229404Y0166750D03*
X0236096Y0166750D03*
X0236096Y0160250D03*
X0262404Y0182750D03*
X0269096Y0182750D03*
X0269096Y0188750D03*
X0269096Y0194750D03*
X0262404Y0194750D03*
X0262404Y0188750D03*
X0280404Y0140250D03*
X0287096Y0140250D03*
X0267096Y0133750D03*
X0260404Y0133750D03*
X0340404Y0133750D03*
X0347096Y0133750D03*
X0371904Y0139750D03*
X0378596Y0139750D03*
X0427404Y0133750D03*
X0434096Y0133750D03*
X0447404Y0139750D03*
X0454096Y0139750D03*
X0454096Y0161250D03*
X0447404Y0161250D03*
X0463404Y0161250D03*
X0470096Y0161250D03*
X0507404Y0133750D03*
X0514096Y0133750D03*
X0527404Y0139750D03*
X0534096Y0139750D03*
X0556404Y0160250D03*
X0556404Y0166750D03*
X0563096Y0166750D03*
X0563096Y0160250D03*
X0589404Y0182750D03*
X0596096Y0182750D03*
X0596096Y0188750D03*
X0596096Y0194750D03*
X0589404Y0194750D03*
X0589404Y0188750D03*
X0607404Y0140250D03*
X0614096Y0140250D03*
X0594096Y0133750D03*
X0587404Y0133750D03*
X0667404Y0133750D03*
X0674096Y0133750D03*
X0674096Y0320750D03*
X0667404Y0320750D03*
X0614096Y0327250D03*
X0607404Y0327250D03*
X0594096Y0320750D03*
X0587404Y0320750D03*
X0563096Y0347250D03*
X0556404Y0347250D03*
X0556404Y0353750D03*
X0563096Y0353750D03*
X0589404Y0369750D03*
X0596096Y0369750D03*
X0596096Y0375750D03*
X0596096Y0381750D03*
X0589404Y0381750D03*
X0589404Y0375750D03*
X0534096Y0326750D03*
X0527404Y0326750D03*
X0514096Y0320750D03*
X0507404Y0320750D03*
X0470096Y0348250D03*
X0463404Y0348250D03*
X0454096Y0348250D03*
X0447404Y0348250D03*
X0447404Y0326750D03*
X0454096Y0326750D03*
X0434096Y0320750D03*
X0427404Y0320750D03*
X0378596Y0326750D03*
X0371904Y0326750D03*
X0347096Y0320750D03*
X0340404Y0320750D03*
X0287096Y0327250D03*
X0280404Y0327250D03*
X0267096Y0320750D03*
X0260404Y0320750D03*
X0236096Y0347250D03*
X0229404Y0347250D03*
X0229404Y0353750D03*
X0236096Y0353750D03*
X0262404Y0369750D03*
X0269096Y0369750D03*
X0269096Y0375750D03*
X0269096Y0381750D03*
X0262404Y0381750D03*
X0262404Y0375750D03*
X0207096Y0326750D03*
X0200404Y0326750D03*
X0187096Y0320750D03*
X0180404Y0320750D03*
X0143096Y0348250D03*
X0136404Y0348250D03*
X0127096Y0348250D03*
X0120404Y0348250D03*
X0120404Y0326750D03*
X0127096Y0326750D03*
X0107096Y0320750D03*
X0100404Y0320750D03*
X0051596Y0326750D03*
X0044904Y0326750D03*
X0044904Y0139750D03*
X0051596Y0139750D03*
D11*
X0053278Y0133750D03*
X0044222Y0133750D03*
X0119222Y0133750D03*
X0128278Y0133750D03*
X0199222Y0133750D03*
X0208278Y0133750D03*
X0279222Y0133750D03*
X0288278Y0133750D03*
X0371222Y0133750D03*
X0380278Y0133750D03*
X0446222Y0133750D03*
X0455278Y0133750D03*
X0526222Y0133750D03*
X0535278Y0133750D03*
X0606222Y0133750D03*
X0615278Y0133750D03*
X0615278Y0320750D03*
X0606222Y0320750D03*
X0535278Y0320750D03*
X0526222Y0320750D03*
X0455278Y0320750D03*
X0446222Y0320750D03*
X0380278Y0320750D03*
X0371222Y0320750D03*
X0288278Y0320750D03*
X0279222Y0320750D03*
X0208278Y0320750D03*
X0199222Y0320750D03*
X0128278Y0320750D03*
X0119222Y0320750D03*
X0053278Y0320750D03*
X0044222Y0320750D03*
D12*
X0088377Y0328670D02*
X0091123Y0328670D01*
X0091123Y0325924D01*
X0088377Y0325924D01*
X0088377Y0328670D01*
X0088377Y0327814D02*
X0091123Y0327814D01*
X0091123Y0335576D02*
X0088377Y0335576D01*
X0091123Y0335576D02*
X0091123Y0332830D01*
X0088377Y0332830D01*
X0088377Y0335576D01*
X0088377Y0334720D02*
X0091123Y0334720D01*
X0168377Y0335576D02*
X0171123Y0335576D01*
X0171123Y0332830D01*
X0168377Y0332830D01*
X0168377Y0335576D01*
X0168377Y0334720D02*
X0171123Y0334720D01*
X0171123Y0328670D02*
X0168377Y0328670D01*
X0171123Y0328670D02*
X0171123Y0325924D01*
X0168377Y0325924D01*
X0168377Y0328670D01*
X0168377Y0327814D02*
X0171123Y0327814D01*
X0248377Y0328670D02*
X0251123Y0328670D01*
X0251123Y0325924D01*
X0248377Y0325924D01*
X0248377Y0328670D01*
X0248377Y0327814D02*
X0251123Y0327814D01*
X0251123Y0335576D02*
X0248377Y0335576D01*
X0251123Y0335576D02*
X0251123Y0332830D01*
X0248377Y0332830D01*
X0248377Y0335576D01*
X0248377Y0334720D02*
X0251123Y0334720D01*
X0328377Y0335576D02*
X0331123Y0335576D01*
X0331123Y0332830D01*
X0328377Y0332830D01*
X0328377Y0335576D01*
X0328377Y0334720D02*
X0331123Y0334720D01*
X0331123Y0328670D02*
X0328377Y0328670D01*
X0331123Y0328670D02*
X0331123Y0325924D01*
X0328377Y0325924D01*
X0328377Y0328670D01*
X0328377Y0327814D02*
X0331123Y0327814D01*
X0415377Y0328670D02*
X0418123Y0328670D01*
X0418123Y0325924D01*
X0415377Y0325924D01*
X0415377Y0328670D01*
X0415377Y0327814D02*
X0418123Y0327814D01*
X0418123Y0335576D02*
X0415377Y0335576D01*
X0418123Y0335576D02*
X0418123Y0332830D01*
X0415377Y0332830D01*
X0415377Y0335576D01*
X0415377Y0334720D02*
X0418123Y0334720D01*
X0495377Y0335576D02*
X0498123Y0335576D01*
X0498123Y0332830D01*
X0495377Y0332830D01*
X0495377Y0335576D01*
X0495377Y0334720D02*
X0498123Y0334720D01*
X0498123Y0328670D02*
X0495377Y0328670D01*
X0498123Y0328670D02*
X0498123Y0325924D01*
X0495377Y0325924D01*
X0495377Y0328670D01*
X0495377Y0327814D02*
X0498123Y0327814D01*
X0575377Y0328670D02*
X0578123Y0328670D01*
X0578123Y0325924D01*
X0575377Y0325924D01*
X0575377Y0328670D01*
X0575377Y0327814D02*
X0578123Y0327814D01*
X0578123Y0335576D02*
X0575377Y0335576D01*
X0578123Y0335576D02*
X0578123Y0332830D01*
X0575377Y0332830D01*
X0575377Y0335576D01*
X0575377Y0334720D02*
X0578123Y0334720D01*
X0655377Y0335576D02*
X0658123Y0335576D01*
X0658123Y0332830D01*
X0655377Y0332830D01*
X0655377Y0335576D01*
X0655377Y0334720D02*
X0658123Y0334720D01*
X0658123Y0328670D02*
X0655377Y0328670D01*
X0658123Y0328670D02*
X0658123Y0325924D01*
X0655377Y0325924D01*
X0655377Y0328670D01*
X0655377Y0327814D02*
X0658123Y0327814D01*
X0594330Y0387877D02*
X0594330Y0390623D01*
X0597076Y0390623D01*
X0597076Y0387877D01*
X0594330Y0387877D01*
X0594330Y0389767D02*
X0597076Y0389767D01*
X0587424Y0390623D02*
X0587424Y0387877D01*
X0587424Y0390623D02*
X0590170Y0390623D01*
X0590170Y0387877D01*
X0587424Y0387877D01*
X0587424Y0389767D02*
X0590170Y0389767D01*
X0587424Y0203623D02*
X0587424Y0200877D01*
X0587424Y0203623D02*
X0590170Y0203623D01*
X0590170Y0200877D01*
X0587424Y0200877D01*
X0587424Y0202767D02*
X0590170Y0202767D01*
X0594330Y0203623D02*
X0594330Y0200877D01*
X0594330Y0203623D02*
X0597076Y0203623D01*
X0597076Y0200877D01*
X0594330Y0200877D01*
X0594330Y0202767D02*
X0597076Y0202767D01*
X0578123Y0148576D02*
X0575377Y0148576D01*
X0578123Y0148576D02*
X0578123Y0145830D01*
X0575377Y0145830D01*
X0575377Y0148576D01*
X0575377Y0147720D02*
X0578123Y0147720D01*
X0578123Y0141670D02*
X0575377Y0141670D01*
X0578123Y0141670D02*
X0578123Y0138924D01*
X0575377Y0138924D01*
X0575377Y0141670D01*
X0575377Y0140814D02*
X0578123Y0140814D01*
X0655377Y0141670D02*
X0658123Y0141670D01*
X0658123Y0138924D01*
X0655377Y0138924D01*
X0655377Y0141670D01*
X0655377Y0140814D02*
X0658123Y0140814D01*
X0658123Y0148576D02*
X0655377Y0148576D01*
X0658123Y0148576D02*
X0658123Y0145830D01*
X0655377Y0145830D01*
X0655377Y0148576D01*
X0655377Y0147720D02*
X0658123Y0147720D01*
X0498123Y0148576D02*
X0495377Y0148576D01*
X0498123Y0148576D02*
X0498123Y0145830D01*
X0495377Y0145830D01*
X0495377Y0148576D01*
X0495377Y0147720D02*
X0498123Y0147720D01*
X0498123Y0141670D02*
X0495377Y0141670D01*
X0498123Y0141670D02*
X0498123Y0138924D01*
X0495377Y0138924D01*
X0495377Y0141670D01*
X0495377Y0140814D02*
X0498123Y0140814D01*
X0418123Y0141670D02*
X0415377Y0141670D01*
X0418123Y0141670D02*
X0418123Y0138924D01*
X0415377Y0138924D01*
X0415377Y0141670D01*
X0415377Y0140814D02*
X0418123Y0140814D01*
X0418123Y0148576D02*
X0415377Y0148576D01*
X0418123Y0148576D02*
X0418123Y0145830D01*
X0415377Y0145830D01*
X0415377Y0148576D01*
X0415377Y0147720D02*
X0418123Y0147720D01*
X0331123Y0148576D02*
X0328377Y0148576D01*
X0331123Y0148576D02*
X0331123Y0145830D01*
X0328377Y0145830D01*
X0328377Y0148576D01*
X0328377Y0147720D02*
X0331123Y0147720D01*
X0331123Y0141670D02*
X0328377Y0141670D01*
X0331123Y0141670D02*
X0331123Y0138924D01*
X0328377Y0138924D01*
X0328377Y0141670D01*
X0328377Y0140814D02*
X0331123Y0140814D01*
X0251123Y0141670D02*
X0248377Y0141670D01*
X0251123Y0141670D02*
X0251123Y0138924D01*
X0248377Y0138924D01*
X0248377Y0141670D01*
X0248377Y0140814D02*
X0251123Y0140814D01*
X0251123Y0148576D02*
X0248377Y0148576D01*
X0251123Y0148576D02*
X0251123Y0145830D01*
X0248377Y0145830D01*
X0248377Y0148576D01*
X0248377Y0147720D02*
X0251123Y0147720D01*
X0171123Y0148576D02*
X0168377Y0148576D01*
X0171123Y0148576D02*
X0171123Y0145830D01*
X0168377Y0145830D01*
X0168377Y0148576D01*
X0168377Y0147720D02*
X0171123Y0147720D01*
X0171123Y0141670D02*
X0168377Y0141670D01*
X0171123Y0141670D02*
X0171123Y0138924D01*
X0168377Y0138924D01*
X0168377Y0141670D01*
X0168377Y0140814D02*
X0171123Y0140814D01*
X0091123Y0141670D02*
X0088377Y0141670D01*
X0091123Y0141670D02*
X0091123Y0138924D01*
X0088377Y0138924D01*
X0088377Y0141670D01*
X0088377Y0140814D02*
X0091123Y0140814D01*
X0091123Y0148576D02*
X0088377Y0148576D01*
X0091123Y0148576D02*
X0091123Y0145830D01*
X0088377Y0145830D01*
X0088377Y0148576D01*
X0088377Y0147720D02*
X0091123Y0147720D01*
X0260424Y0200877D02*
X0260424Y0203623D01*
X0263170Y0203623D01*
X0263170Y0200877D01*
X0260424Y0200877D01*
X0260424Y0202767D02*
X0263170Y0202767D01*
X0267330Y0203623D02*
X0267330Y0200877D01*
X0267330Y0203623D02*
X0270076Y0203623D01*
X0270076Y0200877D01*
X0267330Y0200877D01*
X0267330Y0202767D02*
X0270076Y0202767D01*
X0267330Y0387877D02*
X0267330Y0390623D01*
X0270076Y0390623D01*
X0270076Y0387877D01*
X0267330Y0387877D01*
X0267330Y0389767D02*
X0270076Y0389767D01*
X0260424Y0390623D02*
X0260424Y0387877D01*
X0260424Y0390623D02*
X0263170Y0390623D01*
X0263170Y0387877D01*
X0260424Y0387877D01*
X0260424Y0389767D02*
X0263170Y0389767D01*
D13*
X0348219Y0367274D03*
X0361281Y0367274D03*
X0361281Y0345226D03*
X0348219Y0345226D03*
X0348219Y0180274D03*
X0361281Y0180274D03*
X0361281Y0158226D03*
X0348219Y0158226D03*
X0034281Y0158226D03*
X0034281Y0180274D03*
X0034281Y0345226D03*
X0034281Y0367274D03*
X0675219Y0367274D03*
X0675219Y0345226D03*
X0675219Y0180274D03*
X0675219Y0158226D03*
D14*
X0660750Y0163344D03*
X0660750Y0167281D03*
X0660750Y0171219D03*
X0660750Y0175156D03*
X0660750Y0350344D03*
X0660750Y0354281D03*
X0660750Y0358219D03*
X0660750Y0362156D03*
X0375750Y0362156D03*
X0375750Y0358219D03*
X0375750Y0354281D03*
X0375750Y0350344D03*
X0333750Y0350344D03*
X0333750Y0354281D03*
X0333750Y0358219D03*
X0333750Y0362156D03*
X0048750Y0362156D03*
X0048750Y0358219D03*
X0048750Y0354281D03*
X0048750Y0350344D03*
X0048750Y0175156D03*
X0048750Y0171219D03*
X0048750Y0167281D03*
X0048750Y0163344D03*
X0333750Y0163344D03*
X0333750Y0167281D03*
X0333750Y0171219D03*
X0333750Y0175156D03*
X0375750Y0175156D03*
X0375750Y0171219D03*
X0375750Y0167281D03*
X0375750Y0163344D03*
D15*
X0380750Y0118750D03*
X0343750Y0118750D03*
X0293750Y0118750D03*
X0263750Y0118750D03*
X0213750Y0118750D03*
X0183750Y0118750D03*
X0133750Y0118750D03*
X0103750Y0118750D03*
X0103750Y0088750D03*
X0123750Y0088750D03*
X0143750Y0088750D03*
X0183750Y0088750D03*
X0203750Y0088750D03*
X0223750Y0088750D03*
X0263750Y0088750D03*
X0283750Y0088750D03*
X0303750Y0088750D03*
X0343750Y0088750D03*
X0370750Y0088750D03*
X0390750Y0088750D03*
X0430750Y0088750D03*
X0450750Y0088750D03*
X0470750Y0088750D03*
X0510750Y0088750D03*
X0530750Y0088750D03*
X0550750Y0088750D03*
X0590750Y0088750D03*
X0610750Y0088750D03*
X0630750Y0088750D03*
X0670750Y0088750D03*
X0670750Y0118750D03*
X0620750Y0118750D03*
X0590750Y0118750D03*
X0540750Y0118750D03*
X0510750Y0118750D03*
X0460750Y0118750D03*
X0430750Y0118750D03*
X0430750Y0275750D03*
X0450750Y0275750D03*
X0470750Y0275750D03*
X0510750Y0275750D03*
X0530750Y0275750D03*
X0550750Y0275750D03*
X0590750Y0275750D03*
X0610750Y0275750D03*
X0630750Y0275750D03*
X0670750Y0275750D03*
X0670750Y0305750D03*
X0620750Y0305750D03*
X0590750Y0305750D03*
X0540750Y0305750D03*
X0510750Y0305750D03*
X0460750Y0305750D03*
X0430750Y0305750D03*
X0380750Y0305750D03*
X0343750Y0305750D03*
X0293750Y0305750D03*
X0263750Y0305750D03*
X0213750Y0305750D03*
X0183750Y0305750D03*
X0133750Y0305750D03*
X0103750Y0305750D03*
X0103750Y0275750D03*
X0123750Y0275750D03*
X0143750Y0275750D03*
X0183750Y0275750D03*
X0203750Y0275750D03*
X0223750Y0275750D03*
X0263750Y0275750D03*
X0283750Y0275750D03*
X0303750Y0275750D03*
X0343750Y0275750D03*
X0370750Y0275750D03*
X0390750Y0275750D03*
X0063750Y0275750D03*
X0043750Y0275750D03*
X0053750Y0305750D03*
X0053750Y0118750D03*
X0043750Y0088750D03*
X0063750Y0088750D03*
D16*
X0038750Y0038750D03*
X0038750Y0203750D03*
X0038750Y0225750D03*
X0038750Y0390750D03*
X0343750Y0390750D03*
X0365750Y0390750D03*
X0365750Y0225750D03*
X0343750Y0225750D03*
X0343750Y0203750D03*
X0365750Y0203750D03*
X0365750Y0038750D03*
X0343750Y0038750D03*
X0670750Y0038750D03*
X0670750Y0203750D03*
X0670750Y0225750D03*
X0670750Y0390750D03*
D17*
X0519750Y0369596D03*
X0519750Y0362904D03*
X0511750Y0362904D03*
X0511750Y0369596D03*
X0503750Y0369596D03*
X0503750Y0362904D03*
X0454250Y0362404D03*
X0454250Y0369096D03*
X0446750Y0369096D03*
X0446750Y0362404D03*
X0192750Y0362904D03*
X0192750Y0369596D03*
X0184750Y0369596D03*
X0184750Y0362904D03*
X0176750Y0362904D03*
X0176750Y0369596D03*
X0127250Y0369096D03*
X0127250Y0362404D03*
X0119750Y0362404D03*
X0119750Y0369096D03*
X0119750Y0182096D03*
X0119750Y0175404D03*
X0127250Y0175404D03*
X0127250Y0182096D03*
X0176750Y0182596D03*
X0176750Y0175904D03*
X0184750Y0175904D03*
X0184750Y0182596D03*
X0192750Y0182596D03*
X0192750Y0175904D03*
X0446750Y0175404D03*
X0446750Y0182096D03*
X0454250Y0182096D03*
X0454250Y0175404D03*
X0503750Y0175904D03*
X0503750Y0182596D03*
X0511750Y0182596D03*
X0511750Y0175904D03*
X0519750Y0175904D03*
X0519750Y0182596D03*
D18*
X0542010Y0142687D03*
X0549490Y0142687D03*
X0545750Y0134419D03*
X0469490Y0142687D03*
X0462010Y0142687D03*
X0465750Y0134419D03*
X0394490Y0142687D03*
X0387010Y0142687D03*
X0390750Y0134419D03*
X0302490Y0142687D03*
X0295010Y0142687D03*
X0298750Y0134419D03*
X0222490Y0142687D03*
X0215010Y0142687D03*
X0218750Y0134419D03*
X0142490Y0142687D03*
X0135010Y0142687D03*
X0138750Y0134419D03*
X0067490Y0142687D03*
X0060010Y0142687D03*
X0063750Y0134419D03*
X0063750Y0321419D03*
X0060010Y0329687D03*
X0067490Y0329687D03*
X0135010Y0329687D03*
X0142490Y0329687D03*
X0138750Y0321419D03*
X0215010Y0329687D03*
X0222490Y0329687D03*
X0218750Y0321419D03*
X0295010Y0329687D03*
X0302490Y0329687D03*
X0298750Y0321419D03*
X0387010Y0329687D03*
X0394490Y0329687D03*
X0390750Y0321419D03*
X0462010Y0329687D03*
X0469490Y0329687D03*
X0465750Y0321419D03*
X0542010Y0329687D03*
X0549490Y0329687D03*
X0545750Y0321419D03*
X0622010Y0329687D03*
X0629490Y0329687D03*
X0625750Y0321419D03*
X0622010Y0142687D03*
X0629490Y0142687D03*
X0625750Y0134419D03*
D19*
X0595250Y0063750D03*
X0530750Y0063750D03*
X0466250Y0063750D03*
X0401750Y0063750D03*
X0268250Y0063750D03*
X0203750Y0063750D03*
X0139250Y0063750D03*
X0074750Y0063750D03*
X0074750Y0250750D03*
X0139250Y0250750D03*
X0203750Y0250750D03*
X0268250Y0250750D03*
X0401750Y0250750D03*
X0466250Y0250750D03*
X0530750Y0250750D03*
X0595250Y0250750D03*
D20*
X0614935Y0250750D03*
X0634620Y0250750D03*
X0570120Y0250750D03*
X0550435Y0250750D03*
X0505620Y0250750D03*
X0485935Y0250750D03*
X0441120Y0250750D03*
X0421435Y0250750D03*
X0307620Y0250750D03*
X0287935Y0250750D03*
X0243120Y0250750D03*
X0223435Y0250750D03*
X0178620Y0250750D03*
X0158935Y0250750D03*
X0114120Y0250750D03*
X0094435Y0250750D03*
X0094435Y0063750D03*
X0114120Y0063750D03*
X0158935Y0063750D03*
X0178620Y0063750D03*
X0223435Y0063750D03*
X0243120Y0063750D03*
X0287935Y0063750D03*
X0307620Y0063750D03*
X0421435Y0063750D03*
X0441120Y0063750D03*
X0485935Y0063750D03*
X0505620Y0063750D03*
X0550435Y0063750D03*
X0570120Y0063750D03*
X0614935Y0063750D03*
X0634620Y0063750D03*
D21*
X0670750Y0193750D03*
X0375750Y0225750D03*
X0343750Y0193750D03*
X0375750Y0038750D03*
X0048750Y0038750D03*
X0048750Y0225750D03*
X0343750Y0380750D03*
X0055750Y0409000D03*
X0653750Y0409000D03*
X0670750Y0380750D03*
D22*
X0495750Y0395750D03*
X0485750Y0395750D03*
X0475750Y0395750D03*
X0465750Y0395750D03*
X0168750Y0395750D03*
X0158750Y0395750D03*
X0148750Y0395750D03*
X0138750Y0395750D03*
X0138750Y0208750D03*
X0148750Y0208750D03*
X0158750Y0208750D03*
X0168750Y0208750D03*
X0465750Y0208750D03*
X0475750Y0208750D03*
X0485750Y0208750D03*
X0495750Y0208750D03*
D23*
X0493250Y0189274D03*
X0488250Y0189274D03*
X0483250Y0189274D03*
X0478250Y0189274D03*
X0473250Y0189274D03*
X0468250Y0189274D03*
X0463250Y0189274D03*
X0438250Y0189774D03*
X0433250Y0189774D03*
X0428250Y0189774D03*
X0423250Y0189774D03*
X0423250Y0167726D03*
X0428250Y0167726D03*
X0433250Y0167726D03*
X0438250Y0167726D03*
X0463250Y0167226D03*
X0468250Y0167226D03*
X0473250Y0167226D03*
X0478250Y0167226D03*
X0483250Y0167226D03*
X0488250Y0167226D03*
X0493250Y0167226D03*
X0528250Y0167726D03*
X0533250Y0167726D03*
X0538250Y0167726D03*
X0543250Y0167726D03*
X0543250Y0189774D03*
X0538250Y0189774D03*
X0533250Y0189774D03*
X0528250Y0189774D03*
X0528250Y0354726D03*
X0533250Y0354726D03*
X0538250Y0354726D03*
X0543250Y0354726D03*
X0543250Y0376774D03*
X0538250Y0376774D03*
X0533250Y0376774D03*
X0528250Y0376774D03*
X0493250Y0376274D03*
X0488250Y0376274D03*
X0483250Y0376274D03*
X0478250Y0376274D03*
X0473250Y0376274D03*
X0468250Y0376274D03*
X0463250Y0376274D03*
X0438250Y0376774D03*
X0433250Y0376774D03*
X0428250Y0376774D03*
X0423250Y0376774D03*
X0423250Y0354726D03*
X0428250Y0354726D03*
X0433250Y0354726D03*
X0438250Y0354726D03*
X0463250Y0354226D03*
X0468250Y0354226D03*
X0473250Y0354226D03*
X0478250Y0354226D03*
X0483250Y0354226D03*
X0488250Y0354226D03*
X0493250Y0354226D03*
X0216250Y0354726D03*
X0211250Y0354726D03*
X0206250Y0354726D03*
X0201250Y0354726D03*
X0166250Y0354226D03*
X0161250Y0354226D03*
X0156250Y0354226D03*
X0151250Y0354226D03*
X0146250Y0354226D03*
X0141250Y0354226D03*
X0136250Y0354226D03*
X0111250Y0354726D03*
X0106250Y0354726D03*
X0101250Y0354726D03*
X0096250Y0354726D03*
X0096250Y0376774D03*
X0101250Y0376774D03*
X0106250Y0376774D03*
X0111250Y0376774D03*
X0136250Y0376274D03*
X0141250Y0376274D03*
X0146250Y0376274D03*
X0151250Y0376274D03*
X0156250Y0376274D03*
X0161250Y0376274D03*
X0166250Y0376274D03*
X0201250Y0376774D03*
X0206250Y0376774D03*
X0211250Y0376774D03*
X0216250Y0376774D03*
X0216250Y0189774D03*
X0211250Y0189774D03*
X0206250Y0189774D03*
X0201250Y0189774D03*
X0166250Y0189274D03*
X0161250Y0189274D03*
X0156250Y0189274D03*
X0151250Y0189274D03*
X0146250Y0189274D03*
X0141250Y0189274D03*
X0136250Y0189274D03*
X0111250Y0189774D03*
X0106250Y0189774D03*
X0101250Y0189774D03*
X0096250Y0189774D03*
X0096250Y0167726D03*
X0101250Y0167726D03*
X0106250Y0167726D03*
X0111250Y0167726D03*
X0136250Y0167226D03*
X0141250Y0167226D03*
X0146250Y0167226D03*
X0151250Y0167226D03*
X0156250Y0167226D03*
X0161250Y0167226D03*
X0166250Y0167226D03*
X0201250Y0167726D03*
X0206250Y0167726D03*
X0211250Y0167726D03*
X0216250Y0167726D03*
D24*
X0288246Y0183624D03*
X0306750Y0171813D03*
X0306750Y0195435D03*
X0306750Y0358813D03*
X0288246Y0370624D03*
X0306750Y0382435D03*
X0615246Y0370624D03*
X0633750Y0358813D03*
X0633750Y0382435D03*
X0633750Y0195435D03*
X0615246Y0183624D03*
X0633750Y0171813D03*
D25*
X0572350Y0176050D03*
X0563250Y0176050D03*
X0554150Y0176050D03*
X0245350Y0176050D03*
X0236250Y0176050D03*
X0227150Y0176050D03*
X0227150Y0363050D03*
X0236250Y0363050D03*
X0245350Y0363050D03*
X0554150Y0363050D03*
X0563250Y0363050D03*
X0572350Y0363050D03*
D26*
X0563250Y0387451D03*
X0563250Y0200451D03*
X0236250Y0200451D03*
X0236250Y0387451D03*
D27*
X0259754Y0359250D03*
X0272746Y0359250D03*
X0272746Y0172250D03*
X0259754Y0172250D03*
X0586754Y0172250D03*
X0599746Y0172250D03*
X0599746Y0359250D03*
X0586754Y0359250D03*
D28*
X0585285Y0344250D03*
X0602215Y0344250D03*
X0602215Y0157250D03*
X0585285Y0157250D03*
X0275215Y0157250D03*
X0258285Y0157250D03*
X0258285Y0344250D03*
X0275215Y0344250D03*
D29*
X0052185Y0020500D02*
X0052187Y0020619D01*
X0052193Y0020738D01*
X0052203Y0020857D01*
X0052217Y0020975D01*
X0052235Y0021093D01*
X0052256Y0021210D01*
X0052282Y0021326D01*
X0052312Y0021442D01*
X0052345Y0021556D01*
X0052382Y0021669D01*
X0052423Y0021781D01*
X0052468Y0021892D01*
X0052516Y0022001D01*
X0052568Y0022108D01*
X0052624Y0022213D01*
X0052683Y0022317D01*
X0052745Y0022418D01*
X0052811Y0022518D01*
X0052880Y0022615D01*
X0052952Y0022709D01*
X0053028Y0022802D01*
X0053106Y0022891D01*
X0053187Y0022978D01*
X0053272Y0023063D01*
X0053359Y0023144D01*
X0053448Y0023222D01*
X0053541Y0023298D01*
X0053635Y0023370D01*
X0053732Y0023439D01*
X0053832Y0023505D01*
X0053933Y0023567D01*
X0054037Y0023626D01*
X0054142Y0023682D01*
X0054249Y0023734D01*
X0054358Y0023782D01*
X0054469Y0023827D01*
X0054581Y0023868D01*
X0054694Y0023905D01*
X0054808Y0023938D01*
X0054924Y0023968D01*
X0055040Y0023994D01*
X0055157Y0024015D01*
X0055275Y0024033D01*
X0055393Y0024047D01*
X0055512Y0024057D01*
X0055631Y0024063D01*
X0055750Y0024065D01*
X0055869Y0024063D01*
X0055988Y0024057D01*
X0056107Y0024047D01*
X0056225Y0024033D01*
X0056343Y0024015D01*
X0056460Y0023994D01*
X0056576Y0023968D01*
X0056692Y0023938D01*
X0056806Y0023905D01*
X0056919Y0023868D01*
X0057031Y0023827D01*
X0057142Y0023782D01*
X0057251Y0023734D01*
X0057358Y0023682D01*
X0057463Y0023626D01*
X0057567Y0023567D01*
X0057668Y0023505D01*
X0057768Y0023439D01*
X0057865Y0023370D01*
X0057959Y0023298D01*
X0058052Y0023222D01*
X0058141Y0023144D01*
X0058228Y0023063D01*
X0058313Y0022978D01*
X0058394Y0022891D01*
X0058472Y0022802D01*
X0058548Y0022709D01*
X0058620Y0022615D01*
X0058689Y0022518D01*
X0058755Y0022418D01*
X0058817Y0022317D01*
X0058876Y0022213D01*
X0058932Y0022108D01*
X0058984Y0022001D01*
X0059032Y0021892D01*
X0059077Y0021781D01*
X0059118Y0021669D01*
X0059155Y0021556D01*
X0059188Y0021442D01*
X0059218Y0021326D01*
X0059244Y0021210D01*
X0059265Y0021093D01*
X0059283Y0020975D01*
X0059297Y0020857D01*
X0059307Y0020738D01*
X0059313Y0020619D01*
X0059315Y0020500D01*
X0059313Y0020381D01*
X0059307Y0020262D01*
X0059297Y0020143D01*
X0059283Y0020025D01*
X0059265Y0019907D01*
X0059244Y0019790D01*
X0059218Y0019674D01*
X0059188Y0019558D01*
X0059155Y0019444D01*
X0059118Y0019331D01*
X0059077Y0019219D01*
X0059032Y0019108D01*
X0058984Y0018999D01*
X0058932Y0018892D01*
X0058876Y0018787D01*
X0058817Y0018683D01*
X0058755Y0018582D01*
X0058689Y0018482D01*
X0058620Y0018385D01*
X0058548Y0018291D01*
X0058472Y0018198D01*
X0058394Y0018109D01*
X0058313Y0018022D01*
X0058228Y0017937D01*
X0058141Y0017856D01*
X0058052Y0017778D01*
X0057959Y0017702D01*
X0057865Y0017630D01*
X0057768Y0017561D01*
X0057668Y0017495D01*
X0057567Y0017433D01*
X0057463Y0017374D01*
X0057358Y0017318D01*
X0057251Y0017266D01*
X0057142Y0017218D01*
X0057031Y0017173D01*
X0056919Y0017132D01*
X0056806Y0017095D01*
X0056692Y0017062D01*
X0056576Y0017032D01*
X0056460Y0017006D01*
X0056343Y0016985D01*
X0056225Y0016967D01*
X0056107Y0016953D01*
X0055988Y0016943D01*
X0055869Y0016937D01*
X0055750Y0016935D01*
X0055631Y0016937D01*
X0055512Y0016943D01*
X0055393Y0016953D01*
X0055275Y0016967D01*
X0055157Y0016985D01*
X0055040Y0017006D01*
X0054924Y0017032D01*
X0054808Y0017062D01*
X0054694Y0017095D01*
X0054581Y0017132D01*
X0054469Y0017173D01*
X0054358Y0017218D01*
X0054249Y0017266D01*
X0054142Y0017318D01*
X0054037Y0017374D01*
X0053933Y0017433D01*
X0053832Y0017495D01*
X0053732Y0017561D01*
X0053635Y0017630D01*
X0053541Y0017702D01*
X0053448Y0017778D01*
X0053359Y0017856D01*
X0053272Y0017937D01*
X0053187Y0018022D01*
X0053106Y0018109D01*
X0053028Y0018198D01*
X0052952Y0018291D01*
X0052880Y0018385D01*
X0052811Y0018482D01*
X0052745Y0018582D01*
X0052683Y0018683D01*
X0052624Y0018787D01*
X0052568Y0018892D01*
X0052516Y0018999D01*
X0052468Y0019108D01*
X0052423Y0019219D01*
X0052382Y0019331D01*
X0052345Y0019444D01*
X0052312Y0019558D01*
X0052282Y0019674D01*
X0052256Y0019790D01*
X0052235Y0019907D01*
X0052217Y0020025D01*
X0052203Y0020143D01*
X0052193Y0020262D01*
X0052187Y0020381D01*
X0052185Y0020500D01*
D30*
X0055750Y0020500D03*
M02*
